<svg  xmlns="http://www.w3.org/2000/svg" xmlns:xlink="http://www.w3.org/1999/xlink" width="261.63604736328125px" height="120px" style="font-family: 'IBM Plex Sans'; font-size: 13"><g data-id="6cZ{+;|WT3([4hmx7cg(" class="blocklyDraggable"><path class="blocklyPath" stroke="#bfbfbf" fill="#ffffff" d=" m 48,0  h 165.6360028427951 a 48 48 0 0,1 48,48  v 24 a 48 48 0 0,1 -48,48  V 120  h -165.6360028427951 a 48 48 0 0,1 -48,-48  v -24 a 48 48 0 0,1 48,-48 z
"></path><g transform="translate(30.24297395557724,11)"><text class="blocklyText" dominant-baseline="central" x="0" y="9">Create a node with origin</text></g><g transform="translate(130.71097627491318,51)"><text class="blocklyText" dominant-baseline="central" x="0" y="9">rotation</text></g><g transform="translate(28.816673906749116,91)"><text class="blocklyText" dominant-baseline="central" x="0" y="9">in a space of parent node</text></g><path class="blocklyOutlinePath" d=" M 200.819328936046,4  h 16 a 16 16 0 0,1 16,16  v 0 a 16 16 0 0,1 -16,16  h -16 a 16 16 0 0,1 -16,-16  v 0 a 16 16 0 0,1 16,-16 z" fill="#bfbfbf"></path><path class="blocklyOutlinePath" d=" M 200.819328936046,44  h 16 a 16 16 0 0,1 16,16  v 0 a 16 16 0 0,1 -16,16  h -16 a 16 16 0 0,1 -16,-16  v 0 a 16 16 0 0,1 16,-16 z" fill="#bfbfbf"></path><path class="blocklyOutlinePath" d=" M 200.819328936046,84  h 16 a 16 16 0 0,1 16,16  v 0 a 16 16 0 0,1 -16,16  h -16 a 16 16 0 0,1 -16,-16  v 0 a 16 16 0 0,1 16,-16 z" fill="#bfbfbf"></path></g></svg>