<svg  xmlns="http://www.w3.org/2000/svg" xmlns:xlink="http://www.w3.org/1999/xlink" width="145.06155395507812px" height="216px" style="font-family: 'IBM Plex Sans'; font-size: 13"><g data-id="R|q]X(+e=5pW4T~1dE}=" class="blocklyDraggable"><path class="blocklyPath" stroke="#bfbfbf" fill="#ffffff" d=" m 0,0  m 0,4 a 4 4 0 0,1 4,-4  h 8  c 2,0  3,1  4,2  l 4,4  c 1,1  2,2  4,2  h 12  c 2,0  3,-1  4,-2  l 4,-4  c 1,-1  2,-2  4,-2  h 93.06155395507812 a 4 4 0 0,1 4,4  v 8  V 40  V 48  V 80  V 88  V 120  V 128  V 160  V 168  V 200  V 204  V 204 a 4 4 0 0,1 -4,4  h -93.06155395507812  c -2,0  -3,1  -4,2  l -4,4  c -1,1  -2,2  -4,2  h -12  c -2,0  -3,-1  -4,-2  l -4,-4  c -1,-1  -2,-2  -4,-2  h -8 a 4 4 0 0,1 -4,-4 z
"></path><g transform="translate(11.225845336914062,15)"><text class="blocklyText" dominant-baseline="central" x="0" y="9">Draw nodes</text></g><g transform="translate(8,55)"><text class="blocklyText" dominant-baseline="central" x="0" y="9">axis x colour</text></g><g transform="translate(8.186614990234375,95)"><text class="blocklyText" dominant-baseline="central" x="0" y="9">axis y colour</text></g><g transform="translate(8.626510620117188,135)"><text class="blocklyText" dominant-baseline="central" x="0" y="9">axis z colour</text></g><g transform="translate(58.38728332519531,175)"><text class="blocklyText" dominant-baseline="central" x="0" y="9">size</text></g><path class="blocklyOutlinePath" d=" M 105.06155395507812,8  h 16 a 16 16 0 0,1 16,16  v 0 a 16 16 0 0,1 -16,16  h -16 a 16 16 0 0,1 -16,-16  v 0 a 16 16 0 0,1 16,-16 z" fill="#bfbfbf"></path><path class="blocklyOutlinePath" d=" M 105.06155395507812,48  h 16 a 16 16 0 0,1 16,16  v 0 a 16 16 0 0,1 -16,16  h -16 a 16 16 0 0,1 -16,-16  v 0 a 16 16 0 0,1 16,-16 z" fill="#bfbfbf"></path><path class="blocklyOutlinePath" d=" M 105.06155395507812,88  h 16 a 16 16 0 0,1 16,16  v 0 a 16 16 0 0,1 -16,16  h -16 a 16 16 0 0,1 -16,-16  v 0 a 16 16 0 0,1 16,-16 z" fill="#bfbfbf"></path><path class="blocklyOutlinePath" d=" M 105.06155395507812,128  h 16 a 16 16 0 0,1 16,16  v 0 a 16 16 0 0,1 -16,16  h -16 a 16 16 0 0,1 -16,-16  v 0 a 16 16 0 0,1 16,-16 z" fill="#bfbfbf"></path><path class="blocklyOutlinePath" d=" M 105.06155395507812,168  h 16 a 16 16 0 0,1 16,16  v 0 a 16 16 0 0,1 -16,16  h -16 a 16 16 0 0,1 -16,-16  v 0 a 16 16 0 0,1 16,-16 z" fill="#bfbfbf"></path></g></svg>