<svg  xmlns="http://www.w3.org/2000/svg" xmlns:xlink="http://www.w3.org/1999/xlink" width="164.00344848632812px" height="176px" style="font-family: 'IBM Plex Sans'; font-size: 13"><g data-id="i[?|V:vEUT#]W*Nv(|g]" class="blocklyDraggable"><path class="blocklyPath" stroke="#bfbfbf" fill="#ffffff" d=" m 0,0  m 0,4 a 4 4 0 0,1 4,-4  h 8  c 2,0  3,1  4,2  l 4,4  c 1,1  2,2  4,2  h 12  c 2,0  3,-1  4,-2  l 4,-4  c 1,-1  2,-2  4,-2  h 112.00344848632812 a 4 4 0 0,1 4,4  v 8  V 40  V 48  V 80  V 88  V 120  V 128  V 160  V 164  V 164 a 4 4 0 0,1 -4,4  h -112.00344848632812  c -2,0  -3,1  -4,2  l -4,4  c -1,1  -2,2  -4,2  h -12  c -2,0  -3,-1  -4,-2  l -4,-4  c -1,-1  -2,-2  -4,-2  h -8 a 4 4 0 0,1 -4,-4 z
"></path><g transform="translate(28.354888916015625,15)"><text class="blocklyText" dominant-baseline="central" x="0" y="9">Rotate node</text></g><g transform="translate(8,55)"><text class="blocklyText" dominant-baseline="central" x="0" y="9">around position</text></g><g transform="translate(19.330490112304688,95)"><text class="blocklyText" dominant-baseline="central" x="0" y="9">an axis vector</text></g><g transform="translate(24.662429809570312,135)"><text class="blocklyText" dominant-baseline="central" x="0" y="9">and an angle</text></g><path class="blocklyOutlinePath" d=" M 124.00344848632812,8  h 16 a 16 16 0 0,1 16,16  v 0 a 16 16 0 0,1 -16,16  h -16 a 16 16 0 0,1 -16,-16  v 0 a 16 16 0 0,1 16,-16 z" fill="#bfbfbf"></path><path class="blocklyOutlinePath" d=" M 124.00344848632812,48  h 16 a 16 16 0 0,1 16,16  v 0 a 16 16 0 0,1 -16,16  h -16 a 16 16 0 0,1 -16,-16  v 0 a 16 16 0 0,1 16,-16 z" fill="#bfbfbf"></path><path class="blocklyOutlinePath" d=" M 124.00344848632812,88  h 16 a 16 16 0 0,1 16,16  v 0 a 16 16 0 0,1 -16,16  h -16 a 16 16 0 0,1 -16,-16  v 0 a 16 16 0 0,1 16,-16 z" fill="#bfbfbf"></path><path class="blocklyOutlinePath" d=" M 124.00344848632812,128  h 16 a 16 16 0 0,1 16,16  v 0 a 16 16 0 0,1 -16,16  h -16 a 16 16 0 0,1 -16,-16  v 0 a 16 16 0 0,1 16,-16 z" fill="#bfbfbf"></path></g></svg>