<svg  xmlns="http://www.w3.org/2000/svg" xmlns:xlink="http://www.w3.org/1999/xlink" width="182.03887939453125px" height="136px" style="font-family: 'IBM Plex Sans'; font-size: 13"><g data-id="qY$YM%Hq$mcnj72P7V=m" class="blocklyDraggable"><path class="blocklyPath" stroke="#bfbfbf" fill="#ffffff" d=" m 0,0  m 0,4 a 4 4 0 0,1 4,-4  h 8  c 2,0  3,1  4,2  l 4,4  c 1,1  2,2  4,2  h 12  c 2,0  3,-1  4,-2  l 4,-4  c 1,-1  2,-2  4,-2  h 130.03887939453125 a 4 4 0 0,1 4,4  v 8  V 40  V 48  V 80  V 88  V 120  V 124  V 124 a 4 4 0 0,1 -4,4  h -130.03887939453125  c -2,0  -3,1  -4,2  l -4,4  c -1,1  -2,2  -4,2  h -12  c -2,0  -3,-1  -4,-2  l -4,-4  c -1,-1  -2,-2  -4,-2  h -8 a 4 4 0 0,1 -4,-4 z
"></path><g transform="translate(8,15)"><text class="blocklyText" dominant-baseline="central" x="0" y="9">Translate the node</text></g><g transform="translate(30.460983276367188,55)"><text class="blocklyText" dominant-baseline="central" x="0" y="9">along direction</text></g><g transform="translate(54.214996337890625,95)"><text class="blocklyText" dominant-baseline="central" x="0" y="9">in distance</text></g><path class="blocklyOutlinePath" d=" M 142.03887939453125,8  h 16 a 16 16 0 0,1 16,16  v 0 a 16 16 0 0,1 -16,16  h -16 a 16 16 0 0,1 -16,-16  v 0 a 16 16 0 0,1 16,-16 z" fill="#bfbfbf"></path><path class="blocklyOutlinePath" d=" M 142.03887939453125,48  h 16 a 16 16 0 0,1 16,16  v 0 a 16 16 0 0,1 -16,16  h -16 a 16 16 0 0,1 -16,-16  v 0 a 16 16 0 0,1 16,-16 z" fill="#bfbfbf"></path><path class="blocklyOutlinePath" d=" M 142.03887939453125,88  h 16 a 16 16 0 0,1 16,16  v 0 a 16 16 0 0,1 -16,16  h -16 a 16 16 0 0,1 -16,-16  v 0 a 16 16 0 0,1 16,-16 z" fill="#bfbfbf"></path></g></svg>