<svg  xmlns="http://www.w3.org/2000/svg" xmlns:xlink="http://www.w3.org/1999/xlink" width="217.6460418701172px" height="80px" style="font-family: 'IBM Plex Sans'; font-size: 13"><g data-id="Y%|LN/ea3f3LpPCD+tq)" class="blocklyDraggable"><path class="blocklyPath" stroke="#bfbfbf" fill="#ffffff" d=" m 40,0  h 137.64603562452618 a 40 40 0 0,1 40,40  v 0 a 40 40 0 0,1 -40,40  V 80  h -137.64603562452618 a 40 40 0 0,1 -40,-40  v 0 a 40 40 0 0,1 40,-40 z
"></path><g transform="translate(22.56440422583731,11)"><text class="blocklyText" dominant-baseline="central" x="0" y="9">Line with start point</text></g><g transform="translate(83.34904167700918,51)"><text class="blocklyText" dominant-baseline="central" x="0" y="9">end point</text></g><path class="blocklyOutlinePath" d=" M 163.08163139868887,4  h 16 a 16 16 0 0,1 16,16  v 0 a 16 16 0 0,1 -16,16  h -16 a 16 16 0 0,1 -16,-16  v 0 a 16 16 0 0,1 16,-16 z" fill="#bfbfbf"></path><path class="blocklyOutlinePath" d=" M 163.08163139868887,44  h 16 a 16 16 0 0,1 16,16  v 0 a 16 16 0 0,1 -16,16  h -16 a 16 16 0 0,1 -16,-16  v 0 a 16 16 0 0,1 16,-16 z" fill="#bfbfbf"></path></g></svg>