<svg  xmlns="http://www.w3.org/2000/svg" xmlns:xlink="http://www.w3.org/1999/xlink" width="245.19912719726562px" height="80px" style="font-family: 'IBM Plex Sans'; font-size: 13"><g data-id="hxA!7)_P6VgexpgVh#r`" class="blocklyDraggable"><path class="blocklyPath" stroke="#bfbfbf" fill="#ffffff" d=" m 40,0  h 165.19912095167462 a 40 40 0 0,1 40,40  v 0 a 40 40 0 0,1 -40,40  V 80  h -165.19912095167462 a 40 40 0 0,1 -40,-40  v 0 a 40 40 0 0,1 40,-40 z
"></path><g transform="translate(22.56440422583731,11)"><text class="blocklyText" dominant-baseline="central" x="0" y="9">Rotate around X in angle</text></g><g transform="translate(128.97756645728262,51)"><text class="blocklyText" dominant-baseline="central" x="0" y="9">center</text></g><path class="blocklyOutlinePath" d=" M 190.6347167258373,44  h 16 a 16 16 0 0,1 16,16  v 0 a 16 16 0 0,1 -16,16  h -16 a 16 16 0 0,1 -16,-16  v 0 a 16 16 0 0,1 16,-16 z" fill="#bfbfbf"></path><path class="blocklyOutlinePath" d=" M 190.6347167258373,4  h 16 a 16 16 0 0,1 16,16  v 0 a 16 16 0 0,1 -16,16  h -16 a 16 16 0 0,1 -16,-16  v 0 a 16 16 0 0,1 16,-16 z" fill="#bfbfbf"></path></g></svg>