<svg  xmlns="http://www.w3.org/2000/svg" xmlns:xlink="http://www.w3.org/1999/xlink" width="199.7172393798828px" height="80px" style="font-family: 'IBM Plex Sans'; font-size: 13"><g data-id="d97Z9/wEzE9-b*EU27)`" class="blocklyDraggable"><path class="blocklyPath" stroke="#bfbfbf" fill="#ffffff" d=" m 40,0  h 119.7172331342918 a 40 40 0 0,1 40,40  v 0 a 40 40 0 0,1 -40,40  V 80  h -119.7172331342918 a 40 40 0 0,1 -40,-40  v 0 a 40 40 0 0,1 40,-40 z
"></path><g transform="translate(22.56440422583731,11)"><text class="blocklyText" dominant-baseline="central" x="0" y="9">Cross first vector</text></g><g transform="translate(38.81364128638418,51)"><text class="blocklyText" dominant-baseline="central" x="0" y="9">second vector</text></g><path class="blocklyOutlinePath" d=" M 145.1528289084545,4  h 16 a 16 16 0 0,1 16,16  v 0 a 16 16 0 0,1 -16,16  h -16 a 16 16 0 0,1 -16,-16  v 0 a 16 16 0 0,1 16,-16 z" fill="#bfbfbf"></path><path class="blocklyOutlinePath" d=" M 145.1528289084545,44  h 16 a 16 16 0 0,1 16,16  v 0 a 16 16 0 0,1 -16,16  h -16 a 16 16 0 0,1 -16,-16  v 0 a 16 16 0 0,1 16,-16 z" fill="#bfbfbf"></path></g></svg>