<svg  xmlns="http://www.w3.org/2000/svg" xmlns:xlink="http://www.w3.org/1999/xlink" width="323.7392578125px" height="80px" style="font-family: 'IBM Plex Sans'; font-size: 13"><g data-id="Yra_UCG;lzu{fV`RI=Oa" class="blocklyDraggable"><path class="blocklyPath" stroke="#bfbfbf" fill="#ffffff" d=" m 40,0  h 243.739251566909 a 40 40 0 0,1 40,40  v 0 a 40 40 0 0,1 -40,40  V 80  h -243.739251566909 a 40 40 0 0,1 -40,-40  v 0 a 40 40 0 0,1 40,-40 z
"></path><g transform="translate(22.56440422583731,11)"><text class="blocklyText" dominant-baseline="central" x="0" y="9">Squared distance between first vector</text></g><g transform="translate(162.83565971900137,51)"><text class="blocklyText" dominant-baseline="central" x="0" y="9">second vector</text></g><path class="blocklyOutlinePath" d=" M 269.17484734107165,4  h 16 a 16 16 0 0,1 16,16  v 0 a 16 16 0 0,1 -16,16  h -16 a 16 16 0 0,1 -16,-16  v 0 a 16 16 0 0,1 16,-16 z" fill="#bfbfbf"></path><path class="blocklyOutlinePath" d=" M 269.17484734107165,44  h 16 a 16 16 0 0,1 16,16  v 0 a 16 16 0 0,1 -16,16  h -16 a 16 16 0 0,1 -16,-16  v 0 a 16 16 0 0,1 16,-16 z" fill="#bfbfbf"></path></g></svg>