<svg  xmlns="http://www.w3.org/2000/svg" xmlns:xlink="http://www.w3.org/1999/xlink" width="187.64028930664062px" height="80px" style="font-family: 'IBM Plex Sans'; font-size: 13"><g data-id="{]@jpC+Tk/b#mOUob/s0" class="blocklyDraggable" style="display: block;"><path class="blocklyPath" stroke="#bfbfbf" fill="#ffffff" d=" m 40,0  h 107.64028306104962 a 40 40 0 0,1 40,40  v 0 a 40 40 0 0,1 -40,40  V 80  h -107.64028306104962 a 40 40 0 0,1 -40,-40  v 0 a 40 40 0 0,1 40,-40 z
"></path><g transform="translate(22.56440422583731,11)"><text class="blocklyText" dominant-baseline="central" x="0" y="9">Divide a vector</text></g><g transform="translate(46.49165031958731,51)"><text class="blocklyText" dominant-baseline="central" x="0" y="9">by a scalar</text></g><path class="blocklyOutlinePath" d=" M 133.0758788352123,4  h 16 a 16 16 0 0,1 16,16  v 0 a 16 16 0 0,1 -16,16  h -16 a 16 16 0 0,1 -16,-16  v 0 a 16 16 0 0,1 16,-16 z" fill="#bfbfbf"></path><path class="blocklyOutlinePath" d=" M 133.0758788352123,44  h 16 a 16 16 0 0,1 16,16  v 0 a 16 16 0 0,1 -16,16  h -16 a 16 16 0 0,1 -16,-16  v 0 a 16 16 0 0,1 16,-16 z" fill="#bfbfbf"></path></g></svg>