<svg  xmlns="http://www.w3.org/2000/svg" xmlns:xlink="http://www.w3.org/1999/xlink" width="297.4402770996094px" height="120px" style="font-family: 'IBM Plex Sans'; font-size: 13"><g data-id="tF5a*I/N~,|Pm!m[:35`" class="blocklyDraggable"><path class="blocklyPath" stroke="#bfbfbf" fill="#ffffff" d=" m 48,0  h 201.44026309670136 a 48 48 0 0,1 48,48  v 24 a 48 48 0 0,1 -48,48  V 120  h -201.44026309670136 a 48 48 0 0,1 -48,-48  v -24 a 48 48 0 0,1 48,-48 z
"></path><g transform="translate(28.816673906749116,11)"><text class="blocklyText" dominant-baseline="central" x="0" y="9">Point on the fraction parameter</text></g><g transform="translate(121.55327668995224,51)"><text class="blocklyText" dominant-baseline="central" x="0" y="9">between vector</text></g><g transform="translate(150.6925741753038,91)"><text class="blocklyText" dominant-baseline="central" x="0" y="9">and vector</text></g><path class="blocklyOutlinePath" d=" M 236.62358918995224,4  h 16 a 16 16 0 0,1 16,16  v 0 a 16 16 0 0,1 -16,16  h -16 a 16 16 0 0,1 -16,-16  v 0 a 16 16 0 0,1 16,-16 z" fill="#bfbfbf"></path><path class="blocklyOutlinePath" d=" M 236.62358918995224,44  h 16 a 16 16 0 0,1 16,16  v 0 a 16 16 0 0,1 -16,16  h -16 a 16 16 0 0,1 -16,-16  v 0 a 16 16 0 0,1 16,-16 z" fill="#bfbfbf"></path><path class="blocklyOutlinePath" d=" M 236.62358918995224,84  h 16 a 16 16 0 0,1 16,16  v 0 a 16 16 0 0,1 -16,16  h -16 a 16 16 0 0,1 -16,-16  v 0 a 16 16 0 0,1 16,-16 z" fill="#bfbfbf"></path></g></svg>