<svg  xmlns="http://www.w3.org/2000/svg" xmlns:xlink="http://www.w3.org/1999/xlink" width="185.8151092529297px" height="120px" style="font-family: 'IBM Plex Sans'; font-size: 13"><g data-id="s9f]75bk*-TpLAzS;3Qe" class="blocklyDraggable"><path class="blocklyPath" stroke="#bfbfbf" fill="#ffffff" d=" m 48,0  h 89.81511050881073 a 48 48 0 0,1 48,48  v 24 a 48 48 0 0,1 -48,48  V 120  h -89.81511050881073 a 48 48 0 0,1 -48,-48  v -24 a 48 48 0 0,1 48,-48 z
"></path><g transform="translate(36.21482148975693,11)"><text class="blocklyText" dominant-baseline="central" x="0" y="9">Move point</text></g><g transform="translate(28.816673906749116,51)"><text class="blocklyText" dominant-baseline="central" x="0" y="9">along vector</text></g><g transform="translate(33.94870820850693,91)"><text class="blocklyText" dominant-baseline="central" x="0" y="9">by distance</text></g><path class="blocklyOutlinePath" d=" M 124.99843660206162,4  h 16 a 16 16 0 0,1 16,16  v 0 a 16 16 0 0,1 -16,16  h -16 a 16 16 0 0,1 -16,-16  v 0 a 16 16 0 0,1 16,-16 z" fill="#bfbfbf"></path><path class="blocklyOutlinePath" d=" M 124.99843660206162,44  h 16 a 16 16 0 0,1 16,16  v 0 a 16 16 0 0,1 -16,16  h -16 a 16 16 0 0,1 -16,-16  v 0 a 16 16 0 0,1 16,-16 z" fill="#bfbfbf"></path><path class="blocklyOutlinePath" d=" M 124.99843660206162,84  h 16 a 16 16 0 0,1 16,16  v 0 a 16 16 0 0,1 -16,16  h -16 a 16 16 0 0,1 -16,-16  v 0 a 16 16 0 0,1 16,-16 z" fill="#bfbfbf"></path></g></svg>