<svg  xmlns="http://www.w3.org/2000/svg" xmlns:xlink="http://www.w3.org/1999/xlink" width="289.3089599609375px" height="120px" style="font-family: 'IBM Plex Sans'; font-size: 13"><g data-id=",)r]I~mw;=|pd}CKF9O4" class="blocklyDraggable"><path class="blocklyPath" stroke="#bfbfbf" fill="#ffffff" d=" m 48,0  h 193.30894595802948 a 48 48 0 0,1 48,48  v 24 a 48 48 0 0,1 -48,48  V 120  h -193.30894595802948 a 48 48 0 0,1 -48,-48  v -24 a 48 48 0 0,1 48,-48 z
"></path><g transform="translate(28.816673906749116,11)"><text class="blocklyText" dominant-baseline="central" x="0" y="9">Positive angle between vector</text></g><g transform="translate(122.15308442921005,51)"><text class="blocklyText" dominant-baseline="central" x="0" y="9">second vector</text></g><g transform="translate(108.27658906788193,91)"><text class="blocklyText" dominant-baseline="central" x="0" y="9">reference vector</text></g><path class="blocklyOutlinePath" d=" M 228.49227205128037,4  h 16 a 16 16 0 0,1 16,16  v 0 a 16 16 0 0,1 -16,16  h -16 a 16 16 0 0,1 -16,-16  v 0 a 16 16 0 0,1 16,-16 z" fill="#bfbfbf"></path><path class="blocklyOutlinePath" d=" M 228.49227205128037,44  h 16 a 16 16 0 0,1 16,16  v 0 a 16 16 0 0,1 -16,16  h -16 a 16 16 0 0,1 -16,-16  v 0 a 16 16 0 0,1 16,-16 z" fill="#bfbfbf"></path><path class="blocklyOutlinePath" d=" M 228.49227205128037,84  h 16 a 16 16 0 0,1 16,16  v 0 a 16 16 0 0,1 -16,16  h -16 a 16 16 0 0,1 -16,-16  v 0 a 16 16 0 0,1 16,-16 z" fill="#bfbfbf"></path></g></svg>