<svg  xmlns="http://www.w3.org/2000/svg" xmlns:xlink="http://www.w3.org/1999/xlink" width="283.5904541015625px" height="120px" style="font-family: 'IBM Plex Sans'; font-size: 13"><g data-id="J[Zfj9a)FPeN7h6p`I)t" class="blocklyDraggable"><path class="blocklyPath" stroke="#bfbfbf" fill="#ffffff" d=" m 48,0  h 187.59044009865448 a 48 48 0 0,1 48,48  v 24 a 48 48 0 0,1 -48,48  V 120  h -187.59044009865448 a 48 48 0 0,1 -48,-48  v -24 a 48 48 0 0,1 48,-48 z
"></path><g transform="translate(28.816673906749116,11)"><text class="blocklyText" dominant-baseline="central" x="0" y="9">Signed angle between vector</text></g><g transform="translate(116.43457856983505,51)"><text class="blocklyText" dominant-baseline="central" x="0" y="9">second vector</text></g><g transform="translate(102.55808320850693,91)"><text class="blocklyText" dominant-baseline="central" x="0" y="9">reference vector</text></g><path class="blocklyOutlinePath" d=" M 222.77376619190537,4  h 16 a 16 16 0 0,1 16,16  v 0 a 16 16 0 0,1 -16,16  h -16 a 16 16 0 0,1 -16,-16  v 0 a 16 16 0 0,1 16,-16 z" fill="#bfbfbf"></path><path class="blocklyOutlinePath" d=" M 222.77376619190537,44  h 16 a 16 16 0 0,1 16,16  v 0 a 16 16 0 0,1 -16,16  h -16 a 16 16 0 0,1 -16,-16  v 0 a 16 16 0 0,1 16,-16 z" fill="#bfbfbf"></path><path class="blocklyOutlinePath" d=" M 222.77376619190537,84  h 16 a 16 16 0 0,1 16,16  v 0 a 16 16 0 0,1 -16,16  h -16 a 16 16 0 0,1 -16,-16  v 0 a 16 16 0 0,1 16,-16 z" fill="#bfbfbf"></path></g></svg>