<svg  xmlns="http://www.w3.org/2000/svg" xmlns:xlink="http://www.w3.org/1999/xlink" width="223.15415954589844px" height="40px" style="font-family: 'IBM Plex Sans'; font-size: 13"><g data-id="5XVzki9dTRMoO8P8fx0B" class="blocklyDraggable"><path class="blocklyPath" stroke="#bfbfbf" fill="#ffffff" d=" m 20,0  h 183.15415954589844 a 20 20 0 0,1 20,20  v 0 a 20 20 0 0,1 -20,20  V 40  h -183.15415954589844 a 20 20 0 0,1 -20,-20  v 0 a 20 20 0 0,1 20,-20 z
"></path><g transform="translate(12,11)"><text class="blocklyText" dominant-baseline="central" x="0" y="9">X</text></g><g transform="translate(83.89134216308594,11)"><text class="blocklyText" dominant-baseline="central" x="0" y="9">Y</text></g><g transform="translate(155.5560760498047,11)"><text class="blocklyText" dominant-baseline="central" x="0" y="9">Z</text></g><path class="blocklyOutlinePath" d=" M 43.89134216308594,4  h 16 a 16 16 0 0,1 16,16  v 0 a 16 16 0 0,1 -16,16  h -16 a 16 16 0 0,1 -16,-16  v 0 a 16 16 0 0,1 16,-16 z" fill="#bfbfbf"></path><path class="blocklyOutlinePath" d=" M 115.55607604980469,4  h 16 a 16 16 0 0,1 16,16  v 0 a 16 16 0 0,1 -16,16  h -16 a 16 16 0 0,1 -16,-16  v 0 a 16 16 0 0,1 16,-16 z" fill="#bfbfbf"></path><path class="blocklyOutlinePath" d=" M 187.15415954589844,4  h 16 a 16 16 0 0,1 16,16  v 0 a 16 16 0 0,1 -16,16  h -16 a 16 16 0 0,1 -16,-16  v 0 a 16 16 0 0,1 16,-16 z" fill="#bfbfbf"></path></g></svg>