<svg  xmlns="http://www.w3.org/2000/svg" xmlns:xlink="http://www.w3.org/1999/xlink" width="275.8846740722656px" height="80px" style="font-family: 'IBM Plex Sans'; font-size: 13"><g data-id="|N%s:c7,6Bo2Q8m,F=(r" class="blocklyDraggable"><path class="blocklyPath" stroke="#bfbfbf" fill="#ffffff" d=" m 40,0  h 195.88466782667462 a 40 40 0 0,1 40,40  v 0 a 40 40 0 0,1 -40,40  V 80  h -195.88466782667462 a 40 40 0 0,1 -40,-40  v 0 a 40 40 0 0,1 40,-40 z
"></path><g transform="translate(22.56440422583731,11)"><text class="blocklyText" dominant-baseline="central" x="0" y="9">Closest point between a point</text></g><g transform="translate(135.44254753638418,51)"><text class="blocklyText" dominant-baseline="central" x="0" y="9">and points</text></g><path class="blocklyOutlinePath" d=" M 221.3202636008373,4  h 16 a 16 16 0 0,1 16,16  v 0 a 16 16 0 0,1 -16,16  h -16 a 16 16 0 0,1 -16,-16  v 0 a 16 16 0 0,1 16,-16 z" fill="#bfbfbf"></path><path class="blocklyOutlinePath" d=" M 221.3202636008373,44  h 16 a 16 16 0 0,1 16,16  v 0 a 16 16 0 0,1 -16,16  h -16 a 16 16 0 0,1 -16,-16  v 0 a 16 16 0 0,1 16,-16 z" fill="#bfbfbf"></path></g></svg>