<svg  xmlns="http://www.w3.org/2000/svg" xmlns:xlink="http://www.w3.org/1999/xlink" width="266.04718017578125px" height="80px" style="font-family: 'IBM Plex Sans'; font-size: 13"><g data-id="^xYD3eku!${/p[]-grb7" class="blocklyDraggable"><path class="blocklyPath" stroke="#bfbfbf" fill="#ffffff" d=" m 40,0  h 186.04715867140118 a 40 40 0 0,1 40,40  v 0 a 40 40 0 0,1 -40,40  V 80  h -186.04715867140118 a 40 40 0 0,1 -40,-40  v 0 a 40 40 0 0,1 40,-40 z
"></path><g transform="translate(22.56440422583731,11)"><text class="blocklyText" dominant-baseline="central" x="0" y="9">Distance between first point</text></g><g transform="translate(111.55526421118887,51)"><text class="blocklyText" dominant-baseline="central" x="0" y="9">second point</text></g><path class="blocklyOutlinePath" d=" M 211.48275444556387,4  h 16 a 16 16 0 0,1 16,16  v 0 a 16 16 0 0,1 -16,16  h -16 a 16 16 0 0,1 -16,-16  v 0 a 16 16 0 0,1 16,-16 z" fill="#bfbfbf"></path><path class="blocklyOutlinePath" d=" M 211.48275444556387,44  h 16 a 16 16 0 0,1 16,16  v 0 a 16 16 0 0,1 -16,16  h -16 a 16 16 0 0,1 -16,-16  v 0 a 16 16 0 0,1 16,-16 z" fill="#bfbfbf"></path></g></svg>