<svg  xmlns="http://www.w3.org/2000/svg" xmlns:xlink="http://www.w3.org/1999/xlink" width="258.7095031738281px" height="160px" style="font-family: 'IBM Plex Sans'; font-size: 13"><g data-id="@gPu(`sxs/xiA*[C,#^_" class="blocklyDraggable"><path class="blocklyPath" stroke="#bfbfbf" fill="#ffffff" d=" m 48,0  h 162.7094891709201 a 48 48 0 0,1 48,48  v 64 a 48 48 0 0,1 -48,48  V 160  h -162.7094891709201 a 48 48 0 0,1 -48,-48  v -64 a 48 48 0 0,1 48,-48 z
"></path><g transform="translate(28.816673906749116,11.5)"><image height="16px" width="16px" alt="" xlink:href="assets/blocks/async.svg"></image></g><g transform="translate(52.816673906749116,11.5)"><text class="blocklyText" dominant-baseline="central" x="0" y="8.5">Revolve OCCT shape</text></g><g transform="translate(141.55429902881943,51.5)"><text class="blocklyText" dominant-baseline="central" x="0" y="8.5">angle</text></g><g transform="translate(121.89261689991318,91.5)"><text class="blocklyText" dominant-baseline="central" x="0" y="8.5">direction</text></g><g transform="translate(146.08651033253037,131.5)"><text class="blocklyText" dominant-baseline="central" x="0" y="8.5">copy</text></g><path class="blocklyOutlinePath" d=" M 197.892815264171,4  h 16 a 16 16 0 0,1 16,16  v 0 a 16 16 0 0,1 -16,16  h -16 a 16 16 0 0,1 -16,-16  v 0 a 16 16 0 0,1 16,-16 z" fill="#bfbfbf"></path><path class="blocklyOutlinePath" d=" M 197.892815264171,44  h 16 a 16 16 0 0,1 16,16  v 0 a 16 16 0 0,1 -16,16  h -16 a 16 16 0 0,1 -16,-16  v 0 a 16 16 0 0,1 16,-16 z" fill="#bfbfbf"></path><path class="blocklyOutlinePath" d=" M 197.892815264171,84  h 16 a 16 16 0 0,1 16,16  v 0 a 16 16 0 0,1 -16,16  h -16 a 16 16 0 0,1 -16,-16  v 0 a 16 16 0 0,1 16,-16 z" fill="#bfbfbf"></path><path class="blocklyOutlinePath" d=" M 197.892815264171,124  h 16  l 16,16  l -16,16  h -16  l -16,-16  l 16,-16 z" fill="#bfbfbf"></path></g></svg>