<svg  xmlns="http://www.w3.org/2000/svg" xmlns:xlink="http://www.w3.org/1999/xlink" width="307.6304626464844px" height="120px" style="font-family: 'IBM Plex Sans'; font-size: 13"><g data-id="v:(U-B%d1Q24k@zHy;)W" class="blocklyDraggable"><path class="blocklyPath" stroke="#bfbfbf" fill="#ffffff" d=" m 48,0  h 211.63046390236542 a 48 48 0 0,1 48,48  v 24 a 48 48 0 0,1 -48,48  V 120  h -211.63046390236542 a 48 48 0 0,1 -48,-48  v -24 a 48 48 0 0,1 48,-48 z
"></path><g transform="translate(28.816673906749116,11.5)"><image height="16px" width="16px" alt="" xlink:href="assets/blocks/async.svg"></image></g><g transform="translate(52.816673906749116,11.5)"><text class="blocklyText" dominant-baseline="central" x="0" y="8.5">Rotated extrude OCCT shape</text></g><g transform="translate(185.80979219288193,51.5)"><text class="blocklyText" dominant-baseline="central" x="0" y="8.5">height</text></g><g transform="translate(190.47527376026474,91.5)"><text class="blocklyText" dominant-baseline="central" x="0" y="8.5">angle</text></g><path class="blocklyOutlinePath" d=" M 246.8137899956163,4  h 16 a 16 16 0 0,1 16,16  v 0 a 16 16 0 0,1 -16,16  h -16 a 16 16 0 0,1 -16,-16  v 0 a 16 16 0 0,1 16,-16 z" fill="#bfbfbf"></path><path class="blocklyOutlinePath" d=" M 246.8137899956163,44  h 16 a 16 16 0 0,1 16,16  v 0 a 16 16 0 0,1 -16,16  h -16 a 16 16 0 0,1 -16,-16  v 0 a 16 16 0 0,1 16,-16 z" fill="#bfbfbf"></path><path class="blocklyOutlinePath" d=" M 246.8137899956163,84  h 16 a 16 16 0 0,1 16,16  v 0 a 16 16 0 0,1 -16,16  h -16 a 16 16 0 0,1 -16,-16  v 0 a 16 16 0 0,1 16,-16 z" fill="#bfbfbf"></path></g></svg>