<svg  xmlns="http://www.w3.org/2000/svg" xmlns:xlink="http://www.w3.org/1999/xlink" width="186.23780822753906px" height="40px" style="font-family: 'IBM Plex Sans'; font-size: 13"><g data-id="bcY7rWZ5T5KNwGnELK8+" class="blocklyDraggable"><path class="blocklyPath" stroke="#bfbfbf" fill="#ffffff" d=" m 20,0  h 146.23780822753906 a 20 20 0 0,1 20,20  v 0 a 20 20 0 0,1 -20,20  V 40  h -146.23780822753906 a 20 20 0 0,1 -20,-20  v 0 a 20 20 0 0,1 20,-20 z
"></path><g transform="translate(12,11)"><text class="blocklyText" dominant-baseline="central" x="0" y="9">Chain hull polygons</text></g><path class="blocklyOutlinePath" d=" M 150.23780822753906,4  h 16 a 16 16 0 0,1 16,16  v 0 a 16 16 0 0,1 -16,16  h -16 a 16 16 0 0,1 -16,-16  v 0 a 16 16 0 0,1 16,-16 z" fill="#bfbfbf"></path></g></svg>