<svg  xmlns="http://www.w3.org/2000/svg" xmlns:xlink="http://www.w3.org/1999/xlink" width="224.21774291992188px" height="80px" style="font-family: 'IBM Plex Sans'; font-size: 13"><g data-id="7S.UJ1*QiwvXywMWas:X" class="blocklyDraggable"><path class="blocklyPath" stroke="#bfbfbf" fill="#ffffff" d=" m 40,0  h 144.21773667433087 a 40 40 0 0,1 40,40  v 0 a 40 40 0 0,1 -40,40  V 80  h -144.21773667433087 a 40 40 0 0,1 -40,-40  v 0 a 40 40 0 0,1 40,-40 z
"></path><g transform="translate(22.56440422583731,11)"><text class="blocklyText" dominant-baseline="central" x="0" y="9">Curve through points</text></g><g transform="translate(89.97405693579825,51)"><text class="blocklyText" dominant-baseline="central" x="0" y="9">of degree</text></g><path class="blocklyOutlinePath" d=" M 169.65333244849356,4  h 16 a 16 16 0 0,1 16,16  v 0 a 16 16 0 0,1 -16,16  h -16 a 16 16 0 0,1 -16,-16  v 0 a 16 16 0 0,1 16,-16 z" fill="#bfbfbf"></path><path class="blocklyOutlinePath" d=" M 169.65333244849356,44  h 16 a 16 16 0 0,1 16,16  v 0 a 16 16 0 0,1 -16,16  h -16 a 16 16 0 0,1 -16,-16  v 0 a 16 16 0 0,1 16,-16 z" fill="#bfbfbf"></path></g></svg>