<svg  xmlns="http://www.w3.org/2000/svg" xmlns:xlink="http://www.w3.org/1999/xlink" width="241.7599639892578px" height="80px" style="font-family: 'IBM Plex Sans'; font-size: 13"><g data-id="04MX,-)ZMZf~KL)yV7Lw" class="blocklyDraggable"><path class="blocklyPath" stroke="#bfbfbf" fill="#ffffff" d=" m 40,0  h 161.7599577436668 a 40 40 0 0,1 40,40  v 0 a 40 40 0 0,1 -40,40  V 80  h -161.7599577436668 a 40 40 0 0,1 -40,-40  v 0 a 40 40 0 0,1 40,-40 z
"></path><g transform="translate(22.56440422583731,11)"><text class="blocklyText" dominant-baseline="central" x="0" y="9">Bezier curve with points</text></g><g transform="translate(117.35378716040762,51)"><text class="blocklyText" dominant-baseline="central" x="0" y="9">weights</text></g><path class="blocklyOutlinePath" d=" M 187.1955535178295,4  h 16 a 16 16 0 0,1 16,16  v 0 a 16 16 0 0,1 -16,16  h -16 a 16 16 0 0,1 -16,-16  v 0 a 16 16 0 0,1 16,-16 z" fill="#bfbfbf"></path><path class="blocklyOutlinePath" d=" M 187.1955535178295,44  h 16 a 16 16 0 0,1 16,16  v 0 a 16 16 0 0,1 -16,16  h -16 a 16 16 0 0,1 -16,-16  v 0 a 16 16 0 0,1 16,-16 z" fill="#bfbfbf"></path></g></svg>