<svg  xmlns="http://www.w3.org/2000/svg" xmlns:xlink="http://www.w3.org/1999/xlink" width="200.5580596923828px" height="160px" style="font-family: 'IBM Plex Sans'; font-size: 13"><g data-id="kGW#o8OULm|gmbM$R@K1" class="blocklyDraggable"><path class="blocklyPath" stroke="#bfbfbf" fill="#ffffff" d=" m 48,0  h 104.55806094826386 a 48 48 0 0,1 48,48  v 64 a 48 48 0 0,1 -48,48  V 160  h -104.55806094826386 a 48 48 0 0,1 -48,-48  v -64 a 48 48 0 0,1 48,-48 z
"></path><g transform="translate(28.816673906749116,11)"><text class="blocklyText" dominant-baseline="central" x="0" y="9">Curve by knots</text></g><g transform="translate(34.668541582530366,51)"><text class="blocklyText" dominant-baseline="central" x="0" y="9">control points</text></g><g transform="translate(69.89962068409287,91)"><text class="blocklyText" dominant-baseline="central" x="0" y="9">weights</text></g><g transform="translate(60.06211152881943,131)"><text class="blocklyText" dominant-baseline="central" x="0" y="9">of degree</text></g><path class="blocklyOutlinePath" d=" M 139.74138704151474,4  h 16 a 16 16 0 0,1 16,16  v 0 a 16 16 0 0,1 -16,16  h -16 a 16 16 0 0,1 -16,-16  v 0 a 16 16 0 0,1 16,-16 z" fill="#bfbfbf"></path><path class="blocklyOutlinePath" d=" M 139.74138704151474,44  h 16 a 16 16 0 0,1 16,16  v 0 a 16 16 0 0,1 -16,16  h -16 a 16 16 0 0,1 -16,-16  v 0 a 16 16 0 0,1 16,-16 z" fill="#bfbfbf"></path><path class="blocklyOutlinePath" d=" M 139.74138704151474,84  h 16 a 16 16 0 0,1 16,16  v 0 a 16 16 0 0,1 -16,16  h -16 a 16 16 0 0,1 -16,-16  v 0 a 16 16 0 0,1 16,-16 z" fill="#bfbfbf"></path><path class="blocklyOutlinePath" d=" M 139.74138704151474,124  h 16 a 16 16 0 0,1 16,16  v 0 a 16 16 0 0,1 -16,16  h -16 a 16 16 0 0,1 -16,-16  v 0 a 16 16 0 0,1 16,-16 z" fill="#bfbfbf"></path></g></svg>