<svg  xmlns="http://www.w3.org/2000/svg" xmlns:xlink="http://www.w3.org/1999/xlink" width="271.8590087890625px" height="80px" style="font-family: 'IBM Plex Sans'; font-size: 13"><g data-id="`b|7VDsB2f2f^]ruQTC-" class="blocklyDraggable"><path class="blocklyPath" stroke="#bfbfbf" fill="#ffffff" d=" m 40,0  h 191.8590025434715 a 40 40 0 0,1 40,40  v 0 a 40 40 0 0,1 -40,40  V 80  h -191.8590025434715 a 40 40 0 0,1 -40,-40  v 0 a 40 40 0 0,1 40,-40 z
"></path><g transform="translate(22.56440422583731,11)"><text class="blocklyText" dominant-baseline="central" x="0" y="9">Subdivide the curve to points</text></g><g transform="translate(117.39374992896231,51)"><text class="blocklyText" dominant-baseline="central" x="0" y="9">by arc length</text></g><path class="blocklyOutlinePath" d=" M 217.29459831763418,4  h 16 a 16 16 0 0,1 16,16  v 0 a 16 16 0 0,1 -16,16  h -16 a 16 16 0 0,1 -16,-16  v 0 a 16 16 0 0,1 16,-16 z" fill="#bfbfbf"></path><path class="blocklyOutlinePath" d=" M 217.29459831763418,44  h 16 a 16 16 0 0,1 16,16  v 0 a 16 16 0 0,1 -16,16  h -16 a 16 16 0 0,1 -16,-16  v 0 a 16 16 0 0,1 16,-16 z" fill="#bfbfbf"></path></g></svg>