<svg  xmlns="http://www.w3.org/2000/svg" xmlns:xlink="http://www.w3.org/1999/xlink" width="256.7161865234375px" height="80px" style="font-family: 'IBM Plex Sans'; font-size: 13"><g data-id="U}9AChIG)/-mNjSmX~un" class="blocklyDraggable"><path class="blocklyPath" stroke="#bfbfbf" fill="#ffffff" d=" m 40,0  h 176.71616501905743 a 40 40 0 0,1 40,40  v 0 a 40 40 0 0,1 -40,40  V 80  h -176.71616501905743 a 40 40 0 0,1 -40,-40  v 0 a 40 40 0 0,1 40,-40 z
"></path><g transform="translate(22.56440422583731,11)"><text class="blocklyText" dominant-baseline="central" x="0" y="9">Divide the curves to points</text></g><g transform="translate(39.12015984107168,51)"><text class="blocklyText" dominant-baseline="central" x="0" y="9">by number of segments</text></g><path class="blocklyOutlinePath" d=" M 202.15176079322012,4  h 16 a 16 16 0 0,1 16,16  v 0 a 16 16 0 0,1 -16,16  h -16 a 16 16 0 0,1 -16,-16  v 0 a 16 16 0 0,1 16,-16 z" fill="#bfbfbf"></path><path class="blocklyOutlinePath" d=" M 202.15176079322012,44  h 16 a 16 16 0 0,1 16,16  v 0 a 16 16 0 0,1 -16,16  h -16 a 16 16 0 0,1 -16,-16  v 0 a 16 16 0 0,1 16,-16 z" fill="#bfbfbf"></path></g></svg>