<svg  xmlns="http://www.w3.org/2000/svg" xmlns:xlink="http://www.w3.org/1999/xlink" width="303.4244079589844px" height="80px" style="font-family: 'IBM Plex Sans'; font-size: 13"><g data-id="BO*S8:t8R[U8PQwjB;W1" class="blocklyDraggable"><path class="blocklyPath" stroke="#bfbfbf" fill="#ffffff" d=" m 40,0  h 223.4243864546043 a 40 40 0 0,1 40,40  v 0 a 40 40 0 0,1 -40,40  V 80  h -223.4243864546043 a 40 40 0 0,1 -40,-40  v 0 a 40 40 0 0,1 40,-40 z
"></path><g transform="translate(22.56440422583731,11)"><text class="blocklyText" dominant-baseline="central" x="0" y="9">Subdivide the curve to parameters</text></g><g transform="translate(148.95913384009512,51)"><text class="blocklyText" dominant-baseline="central" x="0" y="9">by arc length</text></g><path class="blocklyOutlinePath" d=" M 248.859982228767,4  h 16 a 16 16 0 0,1 16,16  v 0 a 16 16 0 0,1 -16,16  h -16 a 16 16 0 0,1 -16,-16  v 0 a 16 16 0 0,1 16,-16 z" fill="#bfbfbf"></path><path class="blocklyOutlinePath" d=" M 248.859982228767,44  h 16 a 16 16 0 0,1 16,16  v 0 a 16 16 0 0,1 -16,16  h -16 a 16 16 0 0,1 -16,-16  v 0 a 16 16 0 0,1 16,-16 z" fill="#bfbfbf"></path></g></svg>