<svg  xmlns="http://www.w3.org/2000/svg" xmlns:xlink="http://www.w3.org/1999/xlink" width="278.2174072265625px" height="80px" style="font-family: 'IBM Plex Sans'; font-size: 13"><g data-id="V}(eQBYqi^o#S~*Al1dM" class="blocklyDraggable"><path class="blocklyPath" stroke="#bfbfbf" fill="#ffffff" d=" m 40,0  h 198.2174009809715 a 40 40 0 0,1 40,40  v 0 a 40 40 0 0,1 -40,40  V 80  h -198.2174009809715 a 40 40 0 0,1 -40,-40  v 0 a 40 40 0 0,1 40,-40 z
"></path><g transform="translate(22.56440422583731,11)"><text class="blocklyText" dominant-baseline="central" x="0" y="9">Subdivide the curves to points</text></g><g transform="translate(123.75214836646231,51)"><text class="blocklyText" dominant-baseline="central" x="0" y="9">by arc length</text></g><path class="blocklyOutlinePath" d=" M 223.65299675513418,4  h 16 a 16 16 0 0,1 16,16  v 0 a 16 16 0 0,1 -16,16  h -16 a 16 16 0 0,1 -16,-16  v 0 a 16 16 0 0,1 16,-16 z" fill="#bfbfbf"></path><path class="blocklyOutlinePath" d=" M 223.65299675513418,44  h 16 a 16 16 0 0,1 16,16  v 0 a 16 16 0 0,1 -16,16  h -16 a 16 16 0 0,1 -16,-16  v 0 a 16 16 0 0,1 16,-16 z" fill="#bfbfbf"></path></g></svg>