<svg  xmlns="http://www.w3.org/2000/svg" xmlns:xlink="http://www.w3.org/1999/xlink" width="250.35777282714844px" height="80px" style="font-family: 'IBM Plex Sans'; font-size: 13"><g data-id="C*C,[!DV)13T4Jo.MFhh" class="blocklyDraggable"><path class="blocklyPath" stroke="#bfbfbf" fill="#ffffff" d=" m 40,0  h 170.35776658155743 a 40 40 0 0,1 40,40  v 0 a 40 40 0 0,1 -40,40  V 80  h -170.35776658155743 a 40 40 0 0,1 -40,-40  v 0 a 40 40 0 0,1 40,-40 z
"></path><g transform="translate(22.56440422583731,11)"><text class="blocklyText" dominant-baseline="central" x="0" y="9">Divide the curve to points</text></g><g transform="translate(32.76176140357168,51)"><text class="blocklyText" dominant-baseline="central" x="0" y="9">by number of segments</text></g><path class="blocklyOutlinePath" d=" M 195.79336235572012,4  h 16 a 16 16 0 0,1 16,16  v 0 a 16 16 0 0,1 -16,16  h -16 a 16 16 0 0,1 -16,-16  v 0 a 16 16 0 0,1 16,-16 z" fill="#bfbfbf"></path><path class="blocklyOutlinePath" d=" M 195.79336235572012,44  h 16 a 16 16 0 0,1 16,16  v 0 a 16 16 0 0,1 -16,16  h -16 a 16 16 0 0,1 -16,-16  v 0 a 16 16 0 0,1 16,-16 z" fill="#bfbfbf"></path></g></svg>