<svg  xmlns="http://www.w3.org/2000/svg" xmlns:xlink="http://www.w3.org/1999/xlink" width="251.7051544189453px" height="120px" style="font-family: 'IBM Plex Sans'; font-size: 13"><g data-id="@D)UF2;)w)TwSC7v~71#" class="blocklyDraggable"><path class="blocklyPath" stroke="#bfbfbf" fill="#ffffff" d=" m 48,0  h 155.70515567482636 a 48 48 0 0,1 48,48  v 24 a 48 48 0 0,1 -48,48  V 120  h -155.70515567482636 a 48 48 0 0,1 -48,-48  v -24 a 48 48 0 0,1 48,-48 z
"></path><g transform="translate(28.816673906749116,11)"><text class="blocklyText" dominant-baseline="central" x="0" y="9">Parameter on the curve</text></g><g transform="translate(114.9415976128038,51)"><text class="blocklyText" dominant-baseline="central" x="0" y="9">at length</text></g><g transform="translate(83.00301423878037,91)"><text class="blocklyText" dominant-baseline="central" x="0" y="9">with tolerance</text></g><path class="blocklyOutlinePath" d=" M 190.88848176807724,4  h 16 a 16 16 0 0,1 16,16  v 0 a 16 16 0 0,1 -16,16  h -16 a 16 16 0 0,1 -16,-16  v 0 a 16 16 0 0,1 16,-16 z" fill="#bfbfbf"></path><path class="blocklyOutlinePath" d=" M 190.88848176807724,44  h 16 a 16 16 0 0,1 16,16  v 0 a 16 16 0 0,1 -16,16  h -16 a 16 16 0 0,1 -16,-16  v 0 a 16 16 0 0,1 16,-16 z" fill="#bfbfbf"></path><path class="blocklyOutlinePath" d=" M 190.88848176807724,84  h 16 a 16 16 0 0,1 16,16  v 0 a 16 16 0 0,1 -16,16  h -16 a 16 16 0 0,1 -16,-16  v 0 a 16 16 0 0,1 16,-16 z" fill="#bfbfbf"></path></g></svg>