<svg  xmlns="http://www.w3.org/2000/svg" xmlns:xlink="http://www.w3.org/1999/xlink" width="198.71749877929688px" height="80px" style="font-family: 'IBM Plex Sans'; font-size: 13"><g data-id="~84l,2+Gm7^w:xOe2v[0" class="blocklyDraggable"><path class="blocklyPath" stroke="#bfbfbf" fill="#ffffff" d=" m 40,0  h 118.71749253370587 a 40 40 0 0,1 40,40  v 0 a 40 40 0 0,1 -40,40  V 80  h -118.71749253370587 a 40 40 0 0,1 -40,-40  v 0 a 40 40 0 0,1 40,-40 z
"></path><g transform="translate(22.56440422583731,11)"><text class="blocklyText" dominant-baseline="central" x="0" y="9">Tangent of curve</text></g><g transform="translate(43.73237297583731,51)"><text class="blocklyText" dominant-baseline="central" x="0" y="9">at parameter</text></g><path class="blocklyOutlinePath" d=" M 144.15308830786856,4  h 16 a 16 16 0 0,1 16,16  v 0 a 16 16 0 0,1 -16,16  h -16 a 16 16 0 0,1 -16,-16  v 0 a 16 16 0 0,1 16,-16 z" fill="#bfbfbf"></path><path class="blocklyOutlinePath" d=" M 144.15308830786856,44  h 16 a 16 16 0 0,1 16,16  v 0 a 16 16 0 0,1 -16,16  h -16 a 16 16 0 0,1 -16,-16  v 0 a 16 16 0 0,1 16,-16 z" fill="#bfbfbf"></path></g></svg>