<svg  xmlns="http://www.w3.org/2000/svg" xmlns:xlink="http://www.w3.org/1999/xlink" width="283.6355285644531px" height="80px" style="font-family: 'IBM Plex Sans'; font-size: 13"><g data-id="vT4_j:=~hsGSNf]%6HCz" class="blocklyDraggable"><path class="blocklyPath" stroke="#bfbfbf" fill="#ffffff" d=" m 40,0  h 203.63552231886212 a 40 40 0 0,1 40,40  v 0 a 40 40 0 0,1 -40,40  V 80  h -203.63552231886212 a 40 40 0 0,1 -40,-40  v 0 a 40 40 0 0,1 40,-40 z
"></path><g transform="translate(22.56440422583731,11.5)"><image height="16px" width="16px" alt="" xlink:href="assets/blocks/async.svg"></image></g><g transform="translate(46.56440422583731,11.5)"><text class="blocklyText" dominant-baseline="central" x="0" y="8.5">Add OCCT wires and edges</text></g><g transform="translate(154.79046318579825,51.5)"><text class="blocklyText" dominant-baseline="central" x="0" y="8.5">to a wire</text></g><path class="blocklyOutlinePath" d=" M 229.0711180930248,4  h 16 a 16 16 0 0,1 16,16  v 0 a 16 16 0 0,1 -16,16  h -16 a 16 16 0 0,1 -16,-16  v 0 a 16 16 0 0,1 16,-16 z" fill="#bfbfbf"></path><path class="blocklyOutlinePath" d=" M 229.0711180930248,44  h 16 a 16 16 0 0,1 16,16  v 0 a 16 16 0 0,1 -16,16  h -16 a 16 16 0 0,1 -16,-16  v 0 a 16 16 0 0,1 16,-16 z" fill="#bfbfbf"></path></g></svg>