<svg  xmlns="http://www.w3.org/2000/svg" xmlns:xlink="http://www.w3.org/1999/xlink" width="379.07916259765625px" height="120px" style="font-family: 'IBM Plex Sans'; font-size: 13"><g data-id="k+vN:@;WFU`i@5([+LLR" class="blocklyDraggable"><path class="blocklyPath" stroke="#bfbfbf" fill="#ffffff" d=" m 48,0  h 283.07914859474823 a 48 48 0 0,1 48,48  v 24 a 48 48 0 0,1 -48,48  V 120  h -283.07914859474823 a 48 48 0 0,1 -48,-48  v -24 a 48 48 0 0,1 48,-48 z
"></path><g transform="translate(28.816673906749116,11.5)"><image height="16px" width="16px" alt="" xlink:href="assets/blocks/async.svg"></image></g><g transform="translate(52.816673906749116,11.5)"><text class="blocklyText" dominant-baseline="central" x="0" y="8.5">Get points at equal params on OCCT wire</text></g><g transform="translate(206.41794648975693,51.5)"><text class="blocklyText" dominant-baseline="central" x="0" y="8.5">nr of segments</text></g><g transform="translate(182.98392549366318,91.5)"><text class="blocklyText" dominant-baseline="central" x="0" y="8.5">exclude end points</text></g><path class="blocklyOutlinePath" d=" M 318.2624746879991,4  h 16 a 16 16 0 0,1 16,16  v 0 a 16 16 0 0,1 -16,16  h -16 a 16 16 0 0,1 -16,-16  v 0 a 16 16 0 0,1 16,-16 z" fill="#bfbfbf"></path><path class="blocklyOutlinePath" d=" M 318.2624746879991,44  h 16 a 16 16 0 0,1 16,16  v 0 a 16 16 0 0,1 -16,16  h -16 a 16 16 0 0,1 -16,-16  v 0 a 16 16 0 0,1 16,-16 z" fill="#bfbfbf"></path><path class="blocklyOutlinePath" d=" M 318.2624746879991,84  h 16  l 16,16  l -16,16  h -16  l -16,-16  l 16,-16 z" fill="#bfbfbf"></path></g></svg>