<svg  xmlns="http://www.w3.org/2000/svg" xmlns:xlink="http://www.w3.org/1999/xlink" width="281.12640380859375px" height="160px" style="font-family: 'IBM Plex Sans'; font-size: 13"><g data-id="V(]np2^#c_Opd:|=e7s9" class="blocklyDraggable"><path class="blocklyPath" stroke="#bfbfbf" fill="#ffffff" d=" m 48,0  h 185.1264050644748 a 48 48 0 0,1 48,48  v 64 a 48 48 0 0,1 -48,48  V 160  h -185.1264050644748 a 48 48 0 0,1 -48,-48  v -64 a 48 48 0 0,1 48,-48 z
"></path><g transform="translate(28.816673906749116,12.5)"><text class="blocklyText" dominant-baseline="central" x="0" y="7.5">Node options /</text></g><g transform="translate(123.24817720264755,12.5)"><text class="blocklyText" dominant-baseline="central" x="0" y="7.5">axis x colour</text></g><g transform="translate(123.43479219288193,52.5)"><text class="blocklyText" dominant-baseline="central" x="0" y="7.5">axis y colour</text></g><g transform="translate(123.87468782276474,92.5)"><text class="blocklyText" dominant-baseline="central" x="0" y="7.5">axis z colour</text></g><g transform="translate(173.63546052784287,132.5)"><text class="blocklyText" dominant-baseline="central" x="0" y="7.5">size</text></g><path class="blocklyOutlinePath" d=" M 220.30973115772568,4  h 16 a 16 16 0 0,1 16,16  v 0 a 16 16 0 0,1 -16,16  h -16 a 16 16 0 0,1 -16,-16  v 0 a 16 16 0 0,1 16,-16 z" fill="#bfbfbf"></path><path class="blocklyOutlinePath" d=" M 220.30973115772568,44  h 16 a 16 16 0 0,1 16,16  v 0 a 16 16 0 0,1 -16,16  h -16 a 16 16 0 0,1 -16,-16  v 0 a 16 16 0 0,1 16,-16 z" fill="#bfbfbf"></path><path class="blocklyOutlinePath" d=" M 220.30973115772568,84  h 16 a 16 16 0 0,1 16,16  v 0 a 16 16 0 0,1 -16,16  h -16 a 16 16 0 0,1 -16,-16  v 0 a 16 16 0 0,1 16,-16 z" fill="#bfbfbf"></path><path class="blocklyOutlinePath" d=" M 220.30973115772568,124  h 16 a 16 16 0 0,1 16,16  v 0 a 16 16 0 0,1 -16,16  h -16 a 16 16 0 0,1 -16,-16  v 0 a 16 16 0 0,1 16,-16 z" fill="#bfbfbf"></path></g></svg>