<svg  xmlns="http://www.w3.org/2000/svg" xmlns:xlink="http://www.w3.org/1999/xlink" width="260.4516296386719px" height="160px" style="font-family: 'IBM Plex Sans'; font-size: 13"><g data-id="aA};N/wgI%NAgz:|$6Sl" class="blocklyDraggable"><path class="blocklyPath" stroke="#bfbfbf" fill="#ffffff" d=" m 48,0  h 164.45163089455292 a 48 48 0 0,1 48,48  v 64 a 48 48 0 0,1 -48,48  V 160  h -164.45163089455292 a 48 48 0 0,1 -48,-48  v -64 a 48 48 0 0,1 48,-48 z
"></path><g transform="translate(28.816673906749116,12.5)"><text class="blocklyText" dominant-baseline="central" x="0" y="7.5">Basic options /</text></g><g transform="translate(123.42147127003037,12.5)"><text class="blocklyText" dominant-baseline="central" x="0" y="7.5">colour(s)</text></g><g transform="translate(132.8724295219835,52.5)"><text class="blocklyText" dominant-baseline="central" x="0" y="7.5">opacity</text></g><g transform="translate(152.960686357921,92.5)"><text class="blocklyText" dominant-baseline="central" x="0" y="7.5">size</text></g><g transform="translate(115.87671724171005,132.5)"><text class="blocklyText" dominant-baseline="central" x="0" y="7.5">updatable</text></g><path class="blocklyOutlinePath" d=" M 199.6349569878038,4  h 16 a 16 16 0 0,1 16,16  v 0 a 16 16 0 0,1 -16,16  h -16 a 16 16 0 0,1 -16,-16  v 0 a 16 16 0 0,1 16,-16 z" fill="#bfbfbf"></path><path class="blocklyOutlinePath" d=" M 199.6349569878038,44  h 16 a 16 16 0 0,1 16,16  v 0 a 16 16 0 0,1 -16,16  h -16 a 16 16 0 0,1 -16,-16  v 0 a 16 16 0 0,1 16,-16 z" fill="#bfbfbf"></path><path class="blocklyOutlinePath" d=" M 199.6349569878038,84  h 16 a 16 16 0 0,1 16,16  v 0 a 16 16 0 0,1 -16,16  h -16 a 16 16 0 0,1 -16,-16  v 0 a 16 16 0 0,1 16,-16 z" fill="#bfbfbf"></path><path class="blocklyOutlinePath" d=" M 199.6349569878038,124  h 16  l 16,16  l -16,16  h -16  l -16,-16  l 16,-16 z" fill="#bfbfbf"></path></g></svg>