<svg  xmlns="http://www.w3.org/2000/svg" xmlns:xlink="http://www.w3.org/1999/xlink" width="225.711669921875px" height="200px" style="font-family: 'IBM Plex Sans'; font-size: 13"><g data-id="Jal!7zZ1hdd@^$gje@b+" class="blocklyDraggable"><path class="blocklyPath" stroke="#bfbfbf" fill="#ffffff" d=" m 48,0  h 129.71167117775605 a 48 48 0 0,1 48,48  v 104 a 48 48 0 0,1 -48,48  V 200  h -129.71167117775605 a 48 48 0 0,1 -48,-48  v -104 a 48 48 0 0,1 48,-48 z
"></path><g transform="translate(94.37342134327255,11)"><text class="blocklyText" dominant-baseline="central" x="0" y="9">Text tag</text></g><g transform="translate(92.72049775928818,51)"><text class="blocklyText" dominant-baseline="central" x="0" y="9">on point</text></g><g transform="translate(111.44910493702255,91)"><text class="blocklyText" dominant-baseline="central" x="0" y="9">color</text></g><g transform="translate(118.22072664112412,131)"><text class="blocklyText" dominant-baseline="central" x="0" y="9">size</text></g><g transform="translate(28.816673906749116,171)"><text class="blocklyText" dominant-baseline="central" x="0" y="9">adapt size to depth</text></g><path class="blocklyOutlinePath" d=" M 164.89499727100693,4  h 16 a 16 16 0 0,1 16,16  v 0 a 16 16 0 0,1 -16,16  h -16 a 16 16 0 0,1 -16,-16  v 0 a 16 16 0 0,1 16,-16 z" fill="#bfbfbf"></path><path class="blocklyOutlinePath" d=" M 164.89499727100693,44  h 16 a 16 16 0 0,1 16,16  v 0 a 16 16 0 0,1 -16,16  h -16 a 16 16 0 0,1 -16,-16  v 0 a 16 16 0 0,1 16,-16 z" fill="#bfbfbf"></path><path class="blocklyOutlinePath" d=" M 164.89499727100693,84  h 16 a 16 16 0 0,1 16,16  v 0 a 16 16 0 0,1 -16,16  h -16 a 16 16 0 0,1 -16,-16  v 0 a 16 16 0 0,1 16,-16 z" fill="#bfbfbf"></path><path class="blocklyOutlinePath" d=" M 164.89499727100693,124  h 16 a 16 16 0 0,1 16,16  v 0 a 16 16 0 0,1 -16,16  h -16 a 16 16 0 0,1 -16,-16  v 0 a 16 16 0 0,1 16,-16 z" fill="#bfbfbf"></path><path class="blocklyOutlinePath" d=" M 164.89499727100693,164  h 16  l 16,16  l -16,16  h -16  l -16,-16  l 16,-16 z" fill="#bfbfbf"></path></g></svg>