<svg  xmlns="http://www.w3.org/2000/svg" xmlns:xlink="http://www.w3.org/1999/xlink" width="216.36740112304688px" height="160px" style="font-family: 'IBM Plex Sans'; font-size: 13"><g data-id="bUt|**kI4,|fu$nYG.TD" class="blocklyDraggable"><path class="blocklyPath" stroke="#bfbfbf" fill="#ffffff" d=" m 48,0  h 120.36740237892792 a 48 48 0 0,1 48,48  v 64 a 48 48 0 0,1 -48,48  V 160  h -120.36740237892792 a 48 48 0 0,1 -48,-48  v -64 a 48 48 0 0,1 48,-48 z
"></path><g transform="translate(28.816673906749116,11)"><text class="blocklyText" dominant-baseline="central" x="0" y="9">Circle with center</text></g><g transform="translate(98.58571687549912,51)"><text class="blocklyText" dominant-baseline="central" x="0" y="9">x axis</text></g><g transform="translate(98.77233186573349,91)"><text class="blocklyText" dominant-baseline="central" x="0" y="9">y axis</text></g><g transform="translate(95.03994050831162,131)"><text class="blocklyText" dominant-baseline="central" x="0" y="9">radius</text></g><path class="blocklyOutlinePath" d=" M 155.5507284721788,4  h 16 a 16 16 0 0,1 16,16  v 0 a 16 16 0 0,1 -16,16  h -16 a 16 16 0 0,1 -16,-16  v 0 a 16 16 0 0,1 16,-16 z" fill="#bfbfbf"></path><path class="blocklyOutlinePath" d=" M 155.5507284721788,44  h 16 a 16 16 0 0,1 16,16  v 0 a 16 16 0 0,1 -16,16  h -16 a 16 16 0 0,1 -16,-16  v 0 a 16 16 0 0,1 16,-16 z" fill="#bfbfbf"></path><path class="blocklyOutlinePath" d=" M 155.5507284721788,84  h 16 a 16 16 0 0,1 16,16  v 0 a 16 16 0 0,1 -16,16  h -16 a 16 16 0 0,1 -16,-16  v 0 a 16 16 0 0,1 16,-16 z" fill="#bfbfbf"></path><path class="blocklyOutlinePath" d=" M 155.5507284721788,124  h 16 a 16 16 0 0,1 16,16  v 0 a 16 16 0 0,1 -16,16  h -16 a 16 16 0 0,1 -16,-16  v 0 a 16 16 0 0,1 16,-16 z" fill="#bfbfbf"></path></g></svg>