<svg  xmlns="http://www.w3.org/2000/svg" xmlns:xlink="http://www.w3.org/1999/xlink" width="208.5427703857422px" height="240px" style="font-family: 'IBM Plex Sans'; font-size: 13"><g data-id="ukHFE?-v=|EVKa-p+%~x" class="blocklyDraggable"><path class="blocklyPath" stroke="#bfbfbf" fill="#ffffff" d=" m 48,0  h 112.54277164162323 a 48 48 0 0,1 48,48  v 144 a 48 48 0 0,1 -48,48  V 240  h -112.54277164162323 a 48 48 0 0,1 -48,-48  v -144 a 48 48 0 0,1 48,-48 z
"></path><g transform="translate(34.881859453624116,11)"><text class="blocklyText" dominant-baseline="central" x="0" y="9">Arc with center</text></g><g transform="translate(90.76108613819443,51)"><text class="blocklyText" dominant-baseline="central" x="0" y="9">x axis</text></g><g transform="translate(90.9477011284288,91)"><text class="blocklyText" dominant-baseline="central" x="0" y="9">y axis</text></g><g transform="translate(87.21530977100693,131)"><text class="blocklyText" dominant-baseline="central" x="0" y="9">radius</text></g><g transform="translate(31.722603472178804,171)"><text class="blocklyText" dominant-baseline="central" x="0" y="9">minimum angle</text></g><g transform="translate(28.816673906749116,211)"><text class="blocklyText" dominant-baseline="central" x="0" y="9">maximum angle</text></g><path class="blocklyOutlinePath" d=" M 147.72609773487412,4  h 16 a 16 16 0 0,1 16,16  v 0 a 16 16 0 0,1 -16,16  h -16 a 16 16 0 0,1 -16,-16  v 0 a 16 16 0 0,1 16,-16 z" fill="#bfbfbf"></path><path class="blocklyOutlinePath" d=" M 147.72609773487412,44  h 16 a 16 16 0 0,1 16,16  v 0 a 16 16 0 0,1 -16,16  h -16 a 16 16 0 0,1 -16,-16  v 0 a 16 16 0 0,1 16,-16 z" fill="#bfbfbf"></path><path class="blocklyOutlinePath" d=" M 147.72609773487412,84  h 16 a 16 16 0 0,1 16,16  v 0 a 16 16 0 0,1 -16,16  h -16 a 16 16 0 0,1 -16,-16  v 0 a 16 16 0 0,1 16,-16 z" fill="#bfbfbf"></path><path class="blocklyOutlinePath" d=" M 147.72609773487412,124  h 16 a 16 16 0 0,1 16,16  v 0 a 16 16 0 0,1 -16,16  h -16 a 16 16 0 0,1 -16,-16  v 0 a 16 16 0 0,1 16,-16 z" fill="#bfbfbf"></path><path class="blocklyOutlinePath" d=" M 147.72609773487412,164  h 16 a 16 16 0 0,1 16,16  v 0 a 16 16 0 0,1 -16,16  h -16 a 16 16 0 0,1 -16,-16  v 0 a 16 16 0 0,1 16,-16 z" fill="#bfbfbf"></path><path class="blocklyOutlinePath" d=" M 147.72609773487412,204  h 16 a 16 16 0 0,1 16,16  v 0 a 16 16 0 0,1 -16,16  h -16 a 16 16 0 0,1 -16,-16  v 0 a 16 16 0 0,1 16,-16 z" fill="#bfbfbf"></path></g></svg>