<svg  xmlns="http://www.w3.org/2000/svg" xmlns:xlink="http://www.w3.org/1999/xlink" width="301.8852844238281px" height="240px" style="font-family: 'IBM Plex Sans'; font-size: 13"><g data-id="ja3*GyKGUj$LQ-Q4crS]" class="blocklyDraggable"><path class="blocklyPath" stroke="#bfbfbf" fill="#ffffff" d=" m 48,0  h 205.88528567970917 a 48 48 0 0,1 48,48  v 144 a 48 48 0 0,1 -48,48  V 240  h -205.88528567970917 a 48 48 0 0,1 -48,-48  v -144 a 48 48 0 0,1 48,-48 z
"></path><g transform="translate(28.816673906749116,11.5)"><image height="16px" width="16px" alt="" xlink:href="assets/blocks/async.svg"></image></g><g transform="translate(52.816673906749116,11.5)"><text class="blocklyText" dominant-baseline="central" x="0" y="8.5">OCCT cone with base radius</text></g><g transform="translate(158.016838701671,51.5)"><text class="blocklyText" dominant-baseline="central" x="0" y="8.5">top radius</text></g><g transform="translate(180.06461397022568,91.5)"><text class="blocklyText" dominant-baseline="central" x="0" y="8.5">height</text></g><g transform="translate(184.7300955376085,131.5)"><text class="blocklyText" dominant-baseline="central" x="0" y="8.5">angle</text></g><g transform="translate(179.4114462456163,171.5)"><text class="blocklyText" dominant-baseline="central" x="0" y="8.5">center</text></g><g transform="translate(165.06841340870224,211.5)"><text class="blocklyText" dominant-baseline="central" x="0" y="8.5">direction</text></g><path class="blocklyOutlinePath" d=" M 241.06861177296005,4  h 16 a 16 16 0 0,1 16,16  v 0 a 16 16 0 0,1 -16,16  h -16 a 16 16 0 0,1 -16,-16  v 0 a 16 16 0 0,1 16,-16 z" fill="#bfbfbf"></path><path class="blocklyOutlinePath" d=" M 241.06861177296005,44  h 16 a 16 16 0 0,1 16,16  v 0 a 16 16 0 0,1 -16,16  h -16 a 16 16 0 0,1 -16,-16  v 0 a 16 16 0 0,1 16,-16 z" fill="#bfbfbf"></path><path class="blocklyOutlinePath" d=" M 241.06861177296005,84  h 16 a 16 16 0 0,1 16,16  v 0 a 16 16 0 0,1 -16,16  h -16 a 16 16 0 0,1 -16,-16  v 0 a 16 16 0 0,1 16,-16 z" fill="#bfbfbf"></path><path class="blocklyOutlinePath" d=" M 241.06861177296005,124  h 16 a 16 16 0 0,1 16,16  v 0 a 16 16 0 0,1 -16,16  h -16 a 16 16 0 0,1 -16,-16  v 0 a 16 16 0 0,1 16,-16 z" fill="#bfbfbf"></path><path class="blocklyOutlinePath" d=" M 241.06861177296005,164  h 16 a 16 16 0 0,1 16,16  v 0 a 16 16 0 0,1 -16,16  h -16 a 16 16 0 0,1 -16,-16  v 0 a 16 16 0 0,1 16,-16 z" fill="#bfbfbf"></path><path class="blocklyOutlinePath" d=" M 241.06861177296005,204  h 16 a 16 16 0 0,1 16,16  v 0 a 16 16 0 0,1 -16,16  h -16 a 16 16 0 0,1 -16,-16  v 0 a 16 16 0 0,1 16,-16 z" fill="#bfbfbf"></path></g></svg>