<svg  xmlns="http://www.w3.org/2000/svg" xmlns:xlink="http://www.w3.org/1999/xlink" width="245.8327178955078px" height="160px" style="font-family: 'IBM Plex Sans'; font-size: 13"><g data-id="oIUiuo_`VsLwwd9qkNPj" class="blocklyDraggable"><path class="blocklyPath" stroke="#bfbfbf" fill="#ffffff" d=" m 48,0  h 149.83271915138886 a 48 48 0 0,1 48,48  v 64 a 48 48 0 0,1 -48,48  V 160  h -149.83271915138886 a 48 48 0 0,1 -48,-48  v -64 a 48 48 0 0,1 48,-48 z
"></path><g transform="translate(28.816673906749116,11.5)"><image height="16px" width="16px" alt="" xlink:href="assets/blocks/async.svg"></image></g><g transform="translate(52.816673906749116,11.5)"><text class="blocklyText" dominant-baseline="central" x="0" y="8.5">OCCT box of width</text></g><g transform="translate(123.7321249565538,51.5)"><text class="blocklyText" dominant-baseline="central" x="0" y="8.5">length</text></g><g transform="translate(124.01204744190537,91.5)"><text class="blocklyText" dominant-baseline="central" x="0" y="8.5">height</text></g><g transform="translate(122.91898408741318,131.5)"><text class="blocklyText" dominant-baseline="central" x="0" y="8.5">corner</text></g><path class="blocklyOutlinePath" d=" M 185.01604524463974,4  h 16 a 16 16 0 0,1 16,16  v 0 a 16 16 0 0,1 -16,16  h -16 a 16 16 0 0,1 -16,-16  v 0 a 16 16 0 0,1 16,-16 z" fill="#bfbfbf"></path><path class="blocklyOutlinePath" d=" M 185.01604524463974,44  h 16 a 16 16 0 0,1 16,16  v 0 a 16 16 0 0,1 -16,16  h -16 a 16 16 0 0,1 -16,-16  v 0 a 16 16 0 0,1 16,-16 z" fill="#bfbfbf"></path><path class="blocklyOutlinePath" d=" M 185.01604524463974,84  h 16 a 16 16 0 0,1 16,16  v 0 a 16 16 0 0,1 -16,16  h -16 a 16 16 0 0,1 -16,-16  v 0 a 16 16 0 0,1 16,-16 z" fill="#bfbfbf"></path><path class="blocklyOutlinePath" d=" M 185.01604524463974,124  h 16 a 16 16 0 0,1 16,16  v 0 a 16 16 0 0,1 -16,16  h -16 a 16 16 0 0,1 -16,-16  v 0 a 16 16 0 0,1 16,-16 z" fill="#bfbfbf"></path></g></svg>