<svg  xmlns="http://www.w3.org/2000/svg" xmlns:xlink="http://www.w3.org/1999/xlink" width="263.6005859375px" height="80px" style="font-family: 'IBM Plex Sans'; font-size: 13"><g data-id="b]^C2Vsf#$gv?]j5YTJ{" class="blocklyDraggable"><path class="blocklyPath" stroke="#bfbfbf" fill="#ffffff" d=" m 40,0  h 183.60056443311993 a 40 40 0 0,1 40,40  v 0 a 40 40 0 0,1 -40,40  V 80  h -183.60056443311993 a 40 40 0 0,1 -40,-40  v 0 a 40 40 0 0,1 40,-40 z
"></path><g transform="translate(22.56440422583731,11.5)"><image height="16px" width="16px" alt="" xlink:href="assets/blocks/async.svg"></image></g><g transform="translate(46.56440422583731,11.5)"><text class="blocklyText" dominant-baseline="central" x="0" y="8.5">OCCT cylinders on lines</text></g><g transform="translate(148.52535698462637,51.5)"><text class="blocklyText" dominant-baseline="central" x="0" y="8.5">radius</text></g><path class="blocklyOutlinePath" d=" M 209.03616020728262,4  h 16 a 16 16 0 0,1 16,16  v 0 a 16 16 0 0,1 -16,16  h -16 a 16 16 0 0,1 -16,-16  v 0 a 16 16 0 0,1 16,-16 z" fill="#bfbfbf"></path><path class="blocklyOutlinePath" d=" M 209.03616020728262,44  h 16 a 16 16 0 0,1 16,16  v 0 a 16 16 0 0,1 -16,16  h -16 a 16 16 0 0,1 -16,-16  v 0 a 16 16 0 0,1 16,-16 z" fill="#bfbfbf"></path></g></svg>