<svg  xmlns="http://www.w3.org/2000/svg" xmlns:xlink="http://www.w3.org/1999/xlink" width="323.30670166015625px" height="120px" style="font-family: 'IBM Plex Sans'; font-size: 13"><g data-id="/ijS@9a#(H)MCRUaYu;?" class="blocklyDraggable"><path class="blocklyPath" stroke="#bfbfbf" fill="#ffffff" d=" m 48,0  h 227.30668765724823 a 48 48 0 0,1 48,48  v 24 a 48 48 0 0,1 -48,48  V 120  h -227.30668765724823 a 48 48 0 0,1 -48,-48  v -24 a 48 48 0 0,1 48,-48 z
"></path><g transform="translate(28.816673906749116,11.5)"><image height="16px" width="16px" alt="" xlink:href="assets/blocks/async.svg"></image></g><g transform="translate(52.816673906749116,11)"><text class="blocklyText" dominant-baseline="central" x="0" y="9">Create OCC cylinder with radius</text></g><g transform="translate(201.48598543018662,51)"><text class="blocklyText" dominant-baseline="central" x="0" y="9">height</text></g><g transform="translate(200.83280244678818,91)"><text class="blocklyText" dominant-baseline="central" x="0" y="9">center</text></g><path class="blocklyOutlinePath" d=" M 262.4900137504991,4  h 16 a 16 16 0 0,1 16,16  v 0 a 16 16 0 0,1 -16,16  h -16 a 16 16 0 0,1 -16,-16  v 0 a 16 16 0 0,1 16,-16 z" fill="#bfbfbf"></path><path class="blocklyOutlinePath" d=" M 262.4900137504991,44  h 16 a 16 16 0 0,1 16,16  v 0 a 16 16 0 0,1 -16,16  h -16 a 16 16 0 0,1 -16,-16  v 0 a 16 16 0 0,1 16,-16 z" fill="#bfbfbf"></path><path class="blocklyOutlinePath" d=" M 262.4900137504991,84  h 16 a 16 16 0 0,1 16,16  v 0 a 16 16 0 0,1 -16,16  h -16 a 16 16 0 0,1 -16,-16  v 0 a 16 16 0 0,1 16,-16 z" fill="#bfbfbf"></path></g></svg>