<svg  xmlns="http://www.w3.org/2000/svg" xmlns:xlink="http://www.w3.org/1999/xlink" width="307.00396728515625px" height="160px" style="font-family: 'IBM Plex Sans'; font-size: 13"><g data-id="q|y.d:H1V.{,#}/B3g,2" class="blocklyDraggable"><path class="blocklyPath" stroke="#bfbfbf" fill="#ffffff" d=" m 48,0  h 211.0039685410373 a 48 48 0 0,1 48,48  v 64 a 48 48 0 0,1 -48,48  V 160  h -211.0039685410373 a 48 48 0 0,1 -48,-48  v -64 a 48 48 0 0,1 48,-48 z
"></path><g transform="translate(28.816673906749116,11.5)"><image height="16px" width="16px" alt="" xlink:href="assets/blocks/async.svg"></image></g><g transform="translate(52.816673906749116,11.5)"><text class="blocklyText" dominant-baseline="central" x="0" y="8.5">OCCT ellipse curve on center</text></g><g transform="translate(148.01931062549912,51.5)"><text class="blocklyText" dominant-baseline="central" x="0" y="8.5">radius minor</text></g><g transform="translate(148.49918428272568,91.5)"><text class="blocklyText" dominant-baseline="central" x="0" y="8.5">radius major</text></g><g transform="translate(170.18709627003037,131.5)"><text class="blocklyText" dominant-baseline="central" x="0" y="8.5">direction</text></g><path class="blocklyOutlinePath" d=" M 246.18729463428818,4  h 16 a 16 16 0 0,1 16,16  v 0 a 16 16 0 0,1 -16,16  h -16 a 16 16 0 0,1 -16,-16  v 0 a 16 16 0 0,1 16,-16 z" fill="#bfbfbf"></path><path class="blocklyOutlinePath" d=" M 246.18729463428818,44  h 16 a 16 16 0 0,1 16,16  v 0 a 16 16 0 0,1 -16,16  h -16 a 16 16 0 0,1 -16,-16  v 0 a 16 16 0 0,1 16,-16 z" fill="#bfbfbf"></path><path class="blocklyOutlinePath" d=" M 246.18729463428818,84  h 16 a 16 16 0 0,1 16,16  v 0 a 16 16 0 0,1 -16,16  h -16 a 16 16 0 0,1 -16,-16  v 0 a 16 16 0 0,1 16,-16 z" fill="#bfbfbf"></path><path class="blocklyOutlinePath" d=" M 246.18729463428818,124  h 16 a 16 16 0 0,1 16,16  v 0 a 16 16 0 0,1 -16,16  h -16 a 16 16 0 0,1 -16,-16  v 0 a 16 16 0 0,1 16,-16 z" fill="#bfbfbf"></path></g></svg>