<svg  xmlns="http://www.w3.org/2000/svg" xmlns:xlink="http://www.w3.org/1999/xlink" width="259.3627014160156px" height="200px" style="font-family: 'IBM Plex Sans'; font-size: 13"><g data-id="N_/J~w6Bo%),D#tm[ZZ," class="blocklyDraggable"><path class="blocklyPath" stroke="#bfbfbf" fill="#ffffff" d=" m 48,0  h 163.3626874131076 a 48 48 0 0,1 48,48  v 104 a 48 48 0 0,1 -48,48  V 200  h -163.3626874131076 a 48 48 0 0,1 -48,-48  v -104 a 48 48 0 0,1 48,-48 z
"></path><g transform="translate(28.816673906749116,11.5)"><image height="16px" width="16px" alt="" xlink:href="assets/blocks/async.svg"></image></g><g transform="translate(52.816673906749116,11.5)"><text class="blocklyText" dominant-baseline="central" x="0" y="8.5">Trim 2D  OCCT curve</text></g><g transform="translate(117.78696504444443,51.5)"><text class="blocklyText" dominant-baseline="central" x="0" y="8.5">param u1</text></g><g transform="translate(117.78696504444443,91.5)"><text class="blocklyText" dominant-baseline="central" x="0" y="8.5">param u2</text></g><g transform="translate(139.8480917534288,131.5)"><text class="blocklyText" dominant-baseline="central" x="0" y="8.5">sense</text></g><g transform="translate(87.4879843315538,171.5)"><text class="blocklyText" dominant-baseline="central" x="0" y="8.5">adjust periodic</text></g><path class="blocklyOutlinePath" d=" M 198.5460135063585,4  h 16 a 16 16 0 0,1 16,16  v 0 a 16 16 0 0,1 -16,16  h -16 a 16 16 0 0,1 -16,-16  v 0 a 16 16 0 0,1 16,-16 z" fill="#bfbfbf"></path><path class="blocklyOutlinePath" d=" M 198.5460135063585,44  h 16 a 16 16 0 0,1 16,16  v 0 a 16 16 0 0,1 -16,16  h -16 a 16 16 0 0,1 -16,-16  v 0 a 16 16 0 0,1 16,-16 z" fill="#bfbfbf"></path><path class="blocklyOutlinePath" d=" M 198.5460135063585,84  h 16 a 16 16 0 0,1 16,16  v 0 a 16 16 0 0,1 -16,16  h -16 a 16 16 0 0,1 -16,-16  v 0 a 16 16 0 0,1 16,-16 z" fill="#bfbfbf"></path><path class="blocklyOutlinePath" d=" M 198.5460135063585,124  h 16  l 16,16  l -16,16  h -16  l -16,-16  l 16,-16 z" fill="#bfbfbf"></path><path class="blocklyOutlinePath" d=" M 198.5460135063585,164  h 16  l 16,16  l -16,16  h -16  l -16,-16  l 16,-16 z" fill="#bfbfbf"></path></g></svg>