<svg  xmlns="http://www.w3.org/2000/svg" xmlns:xlink="http://www.w3.org/1999/xlink" width="328.8385314941406px" height="120px" style="font-family: 'IBM Plex Sans'; font-size: 13"><g data-id="qK~6=FL|dt;YoQh/j:cI" class="blocklyDraggable"><path class="blocklyPath" stroke="#bfbfbf" fill="#ffffff" d=" m 48,0  h 232.8385174912326 a 48 48 0 0,1 48,48  v 24 a 48 48 0 0,1 -48,48  V 120  h -232.8385174912326 a 48 48 0 0,1 -48,-48  v -24 a 48 48 0 0,1 48,-48 z
"></path><g transform="translate(28.816673906749116,11.5)"><image height="16px" width="16px" alt="" xlink:href="assets/blocks/async.svg"></image></g><g transform="translate(52.816673906749116,11.5)"><text class="blocklyText" dominant-baseline="central" x="0" y="8.5">Mirror along normal OCCT shape</text></g><g transform="translate(210.89685884327255,51.5)"><text class="blocklyText" dominant-baseline="central" x="0" y="8.5">origin</text></g><g transform="translate(202.20571199268662,91.5)"><text class="blocklyText" dominant-baseline="central" x="0" y="8.5">normal</text></g><path class="blocklyOutlinePath" d=" M 268.02184358448346,4  h 16 a 16 16 0 0,1 16,16  v 0 a 16 16 0 0,1 -16,16  h -16 a 16 16 0 0,1 -16,-16  v 0 a 16 16 0 0,1 16,-16 z" fill="#bfbfbf"></path><path class="blocklyOutlinePath" d=" M 268.02184358448346,44  h 16 a 16 16 0 0,1 16,16  v 0 a 16 16 0 0,1 -16,16  h -16 a 16 16 0 0,1 -16,-16  v 0 a 16 16 0 0,1 16,-16 z" fill="#bfbfbf"></path><path class="blocklyOutlinePath" d=" M 268.02184358448346,84  h 16 a 16 16 0 0,1 16,16  v 0 a 16 16 0 0,1 -16,16  h -16 a 16 16 0 0,1 -16,-16  v 0 a 16 16 0 0,1 16,-16 z" fill="#bfbfbf"></path></g></svg>