<svg  xmlns="http://www.w3.org/2000/svg" xmlns:xlink="http://www.w3.org/1999/xlink" width="267.0841369628906px" height="216px" style="font-family: 'IBM Plex Sans'; font-size: 13"><g data-id="^silnpdB#sfx;Xao$)Y1" class="blocklyDraggable"><path class="blocklyPath" stroke="#bfbfbf" fill="#ffffff" d=" m 0,0  m 0,4 a 4 4 0 0,1 4,-4  h 8  c 2,0  3,1  4,2  l 4,4  c 1,1  2,2  4,2  h 12  c 2,0  3,-1  4,-2  l 4,-4  c 1,-1  2,-2  4,-2  h 215.08413696289062 a 4 4 0 0,1 4,4  v 8  V 40  V 48  V 80  V 88  V 120  V 128  V 160  V 168  V 200  V 204  V 204 a 4 4 0 0,1 -4,4  h -215.08413696289062  c -2,0  -3,1  -4,2  l -4,4  c -1,1  -2,2  -4,2  h -12  c -2,0  -3,-1  -4,-2  l -4,-4  c -1,-1  -2,-2  -4,-2  h -8 a 4 4 0 0,1 -4,-4 z
"></path><g transform="translate(8,15.5)"><text class="blocklyText" dominant-baseline="central" x="0" y="8.5">Adjust arc rotate camera position</text></g><g transform="translate(163.4008331298828,55.5)"><text class="blocklyText" dominant-baseline="central" x="0" y="8.5">look at</text></g><g transform="translate(168.66615295410156,95.5)"><text class="blocklyText" dominant-baseline="central" x="0" y="8.5">max z</text></g><g transform="translate(93.2052001953125,135.5)"><text class="blocklyText" dominant-baseline="central" x="0" y="8.5">panning sensibility</text></g><g transform="translate(110.52082824707031,175.5)"><text class="blocklyText" dominant-baseline="central" x="0" y="8.5">wheel precision</text></g><path class="blocklyOutlinePath" d=" M 227.08413696289062,8  h 16 a 16 16 0 0,1 16,16  v 0 a 16 16 0 0,1 -16,16  h -16 a 16 16 0 0,1 -16,-16  v 0 a 16 16 0 0,1 16,-16 z" fill="#bfbfbf"></path><path class="blocklyOutlinePath" d=" M 227.08413696289062,48  h 16 a 16 16 0 0,1 16,16  v 0 a 16 16 0 0,1 -16,16  h -16 a 16 16 0 0,1 -16,-16  v 0 a 16 16 0 0,1 16,-16 z" fill="#bfbfbf"></path><path class="blocklyOutlinePath" d=" M 227.08413696289062,88  h 16 a 16 16 0 0,1 16,16  v 0 a 16 16 0 0,1 -16,16  h -16 a 16 16 0 0,1 -16,-16  v 0 a 16 16 0 0,1 16,-16 z" fill="#bfbfbf"></path><path class="blocklyOutlinePath" d=" M 227.08413696289062,128  h 16 a 16 16 0 0,1 16,16  v 0 a 16 16 0 0,1 -16,16  h -16 a 16 16 0 0,1 -16,-16  v 0 a 16 16 0 0,1 16,-16 z" fill="#bfbfbf"></path><path class="blocklyOutlinePath" d=" M 227.08413696289062,168  h 16 a 16 16 0 0,1 16,16  v 0 a 16 16 0 0,1 -16,16  h -16 a 16 16 0 0,1 -16,-16  v 0 a 16 16 0 0,1 16,-16 z" fill="#bfbfbf"></path></g></svg>