<svg  xmlns="http://www.w3.org/2000/svg" xmlns:xlink="http://www.w3.org/1999/xlink" width="331.2513732910156px" height="120px" style="font-family: 'IBM Plex Sans'; font-size: 13"><g data-id="wwo]/e;[zsAn/zTR@X=i" class="blocklyDraggable"><path class="blocklyPath" stroke="#bfbfbf" fill="#ffffff" d=" m 48,0  h 235.25137454689667 a 48 48 0 0,1 48,48  v 24 a 48 48 0 0,1 -48,48  V 120  h -235.25137454689667 a 48 48 0 0,1 -48,-48  v -24 a 48 48 0 0,1 48,-48 z
"></path><g transform="translate(28.816673906749116,11.5)"><image height="16px" width="16px" alt="" xlink:href="assets/blocks/async.svg"></image></g><g transform="translate(52.816673906749116,11)"><text class="blocklyText" dominant-baseline="central" x="0" y="9">Chamfer edges of the OCC shape</text></g><g transform="translate(168.680901201671,51)"><text class="blocklyText" dominant-baseline="central" x="0" y="9">edge indexes</text></g><g transform="translate(196.50058809131943,91)"><text class="blocklyText" dominant-baseline="central" x="0" y="9">distance</text></g><path class="blocklyOutlinePath" d=" M 270.4347006401475,4  h 16 a 16 16 0 0,1 16,16  v 0 a 16 16 0 0,1 -16,16  h -16 a 16 16 0 0,1 -16,-16  v 0 a 16 16 0 0,1 16,-16 z" fill="#bfbfbf"></path><path class="blocklyOutlinePath" d=" M 270.4347006401475,44  h 16 a 16 16 0 0,1 16,16  v 0 a 16 16 0 0,1 -16,16  h -16 a 16 16 0 0,1 -16,-16  v 0 a 16 16 0 0,1 16,-16 z" fill="#bfbfbf"></path><path class="blocklyOutlinePath" d=" M 270.4347006401475,84  h 16 a 16 16 0 0,1 16,16  v 0 a 16 16 0 0,1 -16,16  h -16 a 16 16 0 0,1 -16,-16  v 0 a 16 16 0 0,1 16,-16 z" fill="#bfbfbf"></path></g></svg>