<svg  xmlns="http://www.w3.org/2000/svg" xmlns:xlink="http://www.w3.org/1999/xlink" width="317.4946594238281px" height="120px" style="font-family: 'IBM Plex Sans'; font-size: 13"><g data-id="#5Sy($B~1,=HZE=a4J*o" class="blocklyDraggable"><path class="blocklyPath" stroke="#bfbfbf" fill="#ffffff" d=" m 48,0  h 221.4946454209201 a 48 48 0 0,1 48,48  v 24 a 48 48 0 0,1 -48,48  V 120  h -221.4946454209201 a 48 48 0 0,1 -48,-48  v -24 a 48 48 0 0,1 48,-48 z
"></path><g transform="translate(28.816673906749116,11.5)"><image height="16px" width="16px" alt="" xlink:href="assets/blocks/async.svg"></image></g><g transform="translate(52.816673906749116,11.5)"><text class="blocklyText" dominant-baseline="central" x="0" y="8.5">Fillet edges of the OCCT shape</text></g><g transform="translate(154.92427888721787,51.5)"><text class="blocklyText" dominant-baseline="central" x="0" y="8.5">edge indexes</text></g><g transform="translate(196.16716829151474,91.5)"><text class="blocklyText" dominant-baseline="central" x="0" y="8.5">radius</text></g><path class="blocklyOutlinePath" d=" M 256.67797151417096,4  h 16 a 16 16 0 0,1 16,16  v 0 a 16 16 0 0,1 -16,16  h -16 a 16 16 0 0,1 -16,-16  v 0 a 16 16 0 0,1 16,-16 z" fill="#bfbfbf"></path><path class="blocklyOutlinePath" d=" M 256.67797151417096,44  h 16 a 16 16 0 0,1 16,16  v 0 a 16 16 0 0,1 -16,16  h -16 a 16 16 0 0,1 -16,-16  v 0 a 16 16 0 0,1 16,-16 z" fill="#bfbfbf"></path><path class="blocklyOutlinePath" d=" M 256.67797151417096,84  h 16 a 16 16 0 0,1 16,16  v 0 a 16 16 0 0,1 -16,16  h -16 a 16 16 0 0,1 -16,-16  v 0 a 16 16 0 0,1 16,-16 z" fill="#bfbfbf"></path></g></svg>