<svg  xmlns="http://www.w3.org/2000/svg" xmlns:xlink="http://www.w3.org/1999/xlink" width="345.15435791015625px" height="240px" style="font-family: 'IBM Plex Sans'; font-size: 13"><g data-id="mpq)5utEE8,iFQ@p?AMb" class="blocklyDraggable"><path class="blocklyPath" stroke="#bfbfbf" fill="#ffffff" d=" m 48,0  h 249.15434390724823 a 48 48 0 0,1 48,48  v 144 a 48 48 0 0,1 -48,48  V 240  h -249.15434390724823 a 48 48 0 0,1 -48,-48  v -144 a 48 48 0 0,1 48,-48 z
"></path><g transform="translate(28.816673906749116,11.5)"><image height="16px" width="16px" alt="" xlink:href="assets/blocks/async.svg"></image></g><g transform="translate(52.816673906749116,11.5)"><text class="blocklyText" dominant-baseline="central" x="0" y="8.5">Fillet to OCCT wire first planar edge</text></g><g transform="translate(185.50322786182724,51.5)"><text class="blocklyText" dominant-baseline="central" x="0" y="8.5">second edge</text></g><g transform="translate(223.82686677784287,91.5)"><text class="blocklyText" dominant-baseline="central" x="0" y="8.5">radius</text></g><g transform="translate(191.12845674366318,131.5)"><text class="blocklyText" dominant-baseline="central" x="0" y="8.5">plane origin</text></g><g transform="translate(172.2532431206163,171.5)"><text class="blocklyText" dominant-baseline="central" x="0" y="8.5">plane direction</text></g><g transform="translate(213.08293977588974,211.5)"><text class="blocklyText" dominant-baseline="central" x="0" y="8.5">solution</text></g><path class="blocklyOutlinePath" d=" M 284.3376700004991,4  h 16 a 16 16 0 0,1 16,16  v 0 a 16 16 0 0,1 -16,16  h -16 a 16 16 0 0,1 -16,-16  v 0 a 16 16 0 0,1 16,-16 z" fill="#bfbfbf"></path><path class="blocklyOutlinePath" d=" M 284.3376700004991,44  h 16 a 16 16 0 0,1 16,16  v 0 a 16 16 0 0,1 -16,16  h -16 a 16 16 0 0,1 -16,-16  v 0 a 16 16 0 0,1 16,-16 z" fill="#bfbfbf"></path><path class="blocklyOutlinePath" d=" M 284.3376700004991,84  h 16 a 16 16 0 0,1 16,16  v 0 a 16 16 0 0,1 -16,16  h -16 a 16 16 0 0,1 -16,-16  v 0 a 16 16 0 0,1 16,-16 z" fill="#bfbfbf"></path><path class="blocklyOutlinePath" d=" M 284.3376700004991,124  h 16 a 16 16 0 0,1 16,16  v 0 a 16 16 0 0,1 -16,16  h -16 a 16 16 0 0,1 -16,-16  v 0 a 16 16 0 0,1 16,-16 z" fill="#bfbfbf"></path><path class="blocklyOutlinePath" d=" M 284.3376700004991,164  h 16 a 16 16 0 0,1 16,16  v 0 a 16 16 0 0,1 -16,16  h -16 a 16 16 0 0,1 -16,-16  v 0 a 16 16 0 0,1 16,-16 z" fill="#bfbfbf"></path><path class="blocklyOutlinePath" d=" M 284.3376700004991,204  h 16 a 16 16 0 0,1 16,16  v 0 a 16 16 0 0,1 -16,16  h -16 a 16 16 0 0,1 -16,-16  v 0 a 16 16 0 0,1 16,-16 z" fill="#bfbfbf"></path></g></svg>