<svg  xmlns="http://www.w3.org/2000/svg" xmlns:xlink="http://www.w3.org/1999/xlink" width="274.090087890625px" height="88px" style="font-family: 'IBM Plex Sans'; font-size: 13"><g data-id="!%[e:c]vbD9?3H6?j{+8" class="blocklyDraggable"><path class="blocklyPath" stroke="#bfbfbf" fill="#ffffff" d=" m 44,0  h 186.0900810858611 a 44 44 0 0,1 44,44  v 0 a 44 44 0 0,1 -44,44  V 88  h -186.0900810858611 a 44 44 0 0,1 -44,-44  v 0 a 44 44 0 0,1 44,-44 z
"></path><g data-id="2Q2WM!7I/4XC[mJC9RyI" transform="translate(200.42038386568444,44)" class="blocklyDraggable" style="display: block;"><path class="blocklyPath" stroke="#bfbfbf" fill="#fff" d=" m 20,0  h 8 a 20 20 0 0,1 20,20  v 0 a 20 20 0 0,1 -20,20  V 40  h -8 a 20 20 0 0,1 -20,-20  v 0 a 20 20 0 0,1 20,-20 z
"></path><g class="blocklyEditableText" transform="translate(20,11.5)" style="cursor: text;"><text class="blocklyText" dominant-baseline="central" x="0" y="8.5">0</text></g></g><g transform="translate(25.66969722017664,11.5)"><image height="16px" width="16px" alt="" xlink:href="assets/blocks/async.svg"></image></g><g transform="translate(49.669697220176644,11.5)"><text class="blocklyText" dominant-baseline="central" x="0" y="8.5">Get edge of OCCT shape</text></g><g transform="translate(160.36182063326257,55.5)"><text class="blocklyText" dominant-baseline="central" x="0" y="8.5">index</text></g><path class="blocklyOutlinePath" d=" M 216.42038386568447,4  h 16 a 16 16 0 0,1 16,16  v 0 a 16 16 0 0,1 -16,16  h -16 a 16 16 0 0,1 -16,-16  v 0 a 16 16 0 0,1 16,-16 z" fill="#bfbfbf"></path></g></svg>