<svg  xmlns="http://www.w3.org/2000/svg" xmlns:xlink="http://www.w3.org/1999/xlink" width="166.85888671875px" height="80px" style="font-family: 'IBM Plex Sans'; font-size: 13"><g data-id="}0Ru`0*#s5d7SQV-t@c5" class="blocklyDraggable"><path class="blocklyPath" stroke="#bfbfbf" fill="#ffffff" d=" m 40,0  h 86.85888047315899 a 40 40 0 0,1 40,40  v 0 a 40 40 0 0,1 -40,40  V 80  h -86.85888047315899 a 40 40 0 0,1 -40,-40  v 0 a 40 40 0 0,1 40,-40 z
"></path><g transform="translate(22.56440422583731,11)"><text class="blocklyText" dominant-baseline="central" x="0" y="9">Union solid</text></g><g transform="translate(31.815411305915436,51)"><text class="blocklyText" dominant-baseline="central" x="0" y="9">with solid</text></g><path class="blocklyOutlinePath" d=" M 112.29447624732168,4  h 16 a 16 16 0 0,1 16,16  v 0 a 16 16 0 0,1 -16,16  h -16 a 16 16 0 0,1 -16,-16  v 0 a 16 16 0 0,1 16,-16 z" fill="#bfbfbf"></path><path class="blocklyOutlinePath" d=" M 112.29447624732168,44  h 16 a 16 16 0 0,1 16,16  v 0 a 16 16 0 0,1 -16,16  h -16 a 16 16 0 0,1 -16,-16  v 0 a 16 16 0 0,1 16,-16 z" fill="#bfbfbf"></path></g></svg>