<svg  xmlns="http://www.w3.org/2000/svg" xmlns:xlink="http://www.w3.org/1999/xlink" width="225.87167358398438px" height="320px" style="font-family: 'IBM Plex Sans'; font-size: 13"><g data-id="Irwg,8Tz8R9fWyI6Nyv/" class="blocklyDraggable"><path class="blocklyPath" stroke="#bfbfbf" fill="#ffffff" d=" m 48,0  h 129.87167483986542 a 48 48 0 0,1 48,48  v 224 a 48 48 0 0,1 -48,48  V 320  h -129.87167483986542 a 48 48 0 0,1 -48,-48  v -224 a 48 48 0 0,1 48,-48 z
"></path><g transform="translate(28.816673906749116,11)"><text class="blocklyText" dominant-baseline="central" x="0" y="9">Append arc to path</text></g><g transform="translate(40.84030977100693,51)"><text class="blocklyText" dominant-baseline="central" x="0" y="9">with xy end point</text></g><g transform="translate(94.82666841358505,91)"><text class="blocklyText" dominant-baseline="central" x="0" y="9">x radius</text></g><g transform="translate(95.01328340381943,131)"><text class="blocklyText" dominant-baseline="central" x="0" y="9">y radius</text></g><g transform="translate(58.835762651866304,171)"><text class="blocklyText" dominant-baseline="central" x="0" y="9">x axis rotation</text></g><g transform="translate(83.3362509331163,211)"><text class="blocklyText" dominant-baseline="central" x="0" y="9">clockwise</text></g><g transform="translate(111.8623739799913,251)"><text class="blocklyText" dominant-baseline="central" x="0" y="9">large</text></g><g transform="translate(53.063866289561616,291)"><text class="blocklyText" dominant-baseline="central" x="0" y="9">segment count</text></g><path class="blocklyOutlinePath" d=" M 165.0550009331163,4  h 16 a 16 16 0 0,1 16,16  v 0 a 16 16 0 0,1 -16,16  h -16 a 16 16 0 0,1 -16,-16  v 0 a 16 16 0 0,1 16,-16 z" fill="#bfbfbf"></path><path class="blocklyOutlinePath" d=" M 165.0550009331163,124  h 16 a 16 16 0 0,1 16,16  v 0 a 16 16 0 0,1 -16,16  h -16 a 16 16 0 0,1 -16,-16  v 0 a 16 16 0 0,1 16,-16 z" fill="#bfbfbf"></path><path class="blocklyOutlinePath" d=" M 165.0550009331163,44  h 16 a 16 16 0 0,1 16,16  v 0 a 16 16 0 0,1 -16,16  h -16 a 16 16 0 0,1 -16,-16  v 0 a 16 16 0 0,1 16,-16 z" fill="#bfbfbf"></path><path class="blocklyOutlinePath" d=" M 165.0550009331163,84  h 16 a 16 16 0 0,1 16,16  v 0 a 16 16 0 0,1 -16,16  h -16 a 16 16 0 0,1 -16,-16  v 0 a 16 16 0 0,1 16,-16 z" fill="#bfbfbf"></path><path class="blocklyOutlinePath" d=" M 165.0550009331163,164  h 16 a 16 16 0 0,1 16,16  v 0 a 16 16 0 0,1 -16,16  h -16 a 16 16 0 0,1 -16,-16  v 0 a 16 16 0 0,1 16,-16 z" fill="#bfbfbf"></path><path class="blocklyOutlinePath" d=" M 165.0550009331163,204  h 16  l 16,16  l -16,16  h -16  l -16,-16  l 16,-16 z" fill="#bfbfbf"></path><path class="blocklyOutlinePath" d=" M 165.0550009331163,244  h 16  l 16,16  l -16,16  h -16  l -16,-16  l 16,-16 z" fill="#bfbfbf"></path><path class="blocklyOutlinePath" d=" M 165.0550009331163,284  h 16 a 16 16 0 0,1 16,16  v 0 a 16 16 0 0,1 -16,16  h -16 a 16 16 0 0,1 -16,-16  v 0 a 16 16 0 0,1 16,-16 z" fill="#bfbfbf"></path></g></svg>