<svg  xmlns="http://www.w3.org/2000/svg" xmlns:xlink="http://www.w3.org/1999/xlink" width="227.2036590576172px" height="80px" style="font-family: 'IBM Plex Sans'; font-size: 13"><g data-id="us|L=%+lcJ$/4[6+`!l," class="blocklyDraggable"><path class="blocklyPath" stroke="#bfbfbf" fill="#ffffff" d=" m 40,0  h 147.20363755323712 a 40 40 0 0,1 40,40  v 0 a 40 40 0 0,1 -40,40  V 80  h -147.20363755323712 a 40 40 0 0,1 -40,-40  v 0 a 40 40 0 0,1 40,-40 z
"></path><g transform="translate(22.56440422583731,11)"><text class="blocklyText" dominant-baseline="central" x="0" y="9">Path from XY polyline</text></g><g transform="translate(109.92901299048575,51)"><text class="blocklyText" dominant-baseline="central" x="0" y="9">closed</text></g><path class="blocklyOutlinePath" d=" M 172.6392333273998,4  h 16 a 16 16 0 0,1 16,16  v 0 a 16 16 0 0,1 -16,16  h -16 a 16 16 0 0,1 -16,-16  v 0 a 16 16 0 0,1 16,-16 z" fill="#bfbfbf"></path><path class="blocklyOutlinePath" d=" M 172.6392333273998,44  h 16  l 16,16  l -16,16  h -16  l -16,-16  l 16,-16 z" fill="#bfbfbf"></path></g></svg>