<svg  xmlns="http://www.w3.org/2000/svg" xmlns:xlink="http://www.w3.org/1999/xlink" width="206.20272827148438px" height="200px" style="font-family: 'IBM Plex Sans'; font-size: 13"><g data-id="q^_/R|pWrx8^rh]ZZ@eQ" class="blocklyDraggable"><path class="blocklyPath" stroke="#bfbfbf" fill="#ffffff" d=" m 48,0  h 110.20272952736542 a 48 48 0 0,1 48,48  v 104 a 48 48 0 0,1 -48,48  V 200  h -110.20272952736542 a 48 48 0 0,1 -48,-48  v -104 a 48 48 0 0,1 48,-48 z
"></path><g transform="translate(28.816673906749116,11.5)"><image height="16px" width="16px" alt="" xlink:href="assets/blocks/async.svg"></image></g><g transform="translate(52.816673906749116,11.5)"><text class="blocklyText" dominant-baseline="central" x="0" y="8.5">Align shape</text></g><g transform="translate(57.268883379405366,51.5)"><text class="blocklyText" dominant-baseline="central" x="0" y="8.5">from origin</text></g><g transform="translate(38.39366975635849,91.5)"><text class="blocklyText" dominant-baseline="central" x="0" y="8.5">from direction</text></g><g transform="translate(73.37149873585068,131.5)"><text class="blocklyText" dominant-baseline="central" x="0" y="8.5">to origin</text></g><g transform="translate(54.496285112803804,171.5)"><text class="blocklyText" dominant-baseline="central" x="0" y="8.5">to direction</text></g><path class="blocklyOutlinePath" d=" M 145.3860556206163,4  h 16 a 16 16 0 0,1 16,16  v 0 a 16 16 0 0,1 -16,16  h -16 a 16 16 0 0,1 -16,-16  v 0 a 16 16 0 0,1 16,-16 z" fill="#bfbfbf"></path><path class="blocklyOutlinePath" d=" M 145.3860556206163,44  h 16 a 16 16 0 0,1 16,16  v 0 a 16 16 0 0,1 -16,16  h -16 a 16 16 0 0,1 -16,-16  v 0 a 16 16 0 0,1 16,-16 z" fill="#bfbfbf"></path><path class="blocklyOutlinePath" d=" M 145.3860556206163,84  h 16 a 16 16 0 0,1 16,16  v 0 a 16 16 0 0,1 -16,16  h -16 a 16 16 0 0,1 -16,-16  v 0 a 16 16 0 0,1 16,-16 z" fill="#bfbfbf"></path><path class="blocklyOutlinePath" d=" M 145.3860556206163,124  h 16 a 16 16 0 0,1 16,16  v 0 a 16 16 0 0,1 -16,16  h -16 a 16 16 0 0,1 -16,-16  v 0 a 16 16 0 0,1 16,-16 z" fill="#bfbfbf"></path><path class="blocklyOutlinePath" d=" M 145.3860556206163,164  h 16 a 16 16 0 0,1 16,16  v 0 a 16 16 0 0,1 -16,16  h -16 a 16 16 0 0,1 -16,-16  v 0 a 16 16 0 0,1 16,-16 z" fill="#bfbfbf"></path></g></svg>