<svg  xmlns="http://www.w3.org/2000/svg" xmlns:xlink="http://www.w3.org/1999/xlink" width="273.1858825683594px" height="200px" style="font-family: 'IBM Plex Sans'; font-size: 13"><g data-id="j@~6Qh|Hte9cEXMLX#Vs" class="blocklyDraggable"><path class="blocklyPath" stroke="#bfbfbf" fill="#ffffff" d=" m 48,0  h 177.18588382424042 a 48 48 0 0,1 48,48  v 104 a 48 48 0 0,1 -48,48  V 200  h -177.18588382424042 a 48 48 0 0,1 -48,-48  v -104 a 48 48 0 0,1 48,-48 z
"></path><g transform="translate(28.816673906749116,11.5)"><image height="16px" width="16px" alt="" xlink:href="assets/blocks/async.svg"></image></g><g transform="translate(52.816673906749116,11.5)"><text class="blocklyText" dominant-baseline="central" x="0" y="8.5">Transform OCCT shape</text></g><g transform="translate(85.42185273975693,51.5)"><text class="blocklyText" dominant-baseline="central" x="0" y="8.5">translation vector</text></g><g transform="translate(115.86751619190537,91.5)"><text class="blocklyText" dominant-baseline="central" x="0" y="8.5">rotation axis</text></g><g transform="translate(106.77646699756943,131.5)"><text class="blocklyText" dominant-baseline="central" x="0" y="8.5">rotation angle</text></g><g transform="translate(120.21306672901474,171.5)"><text class="blocklyText" dominant-baseline="central" x="0" y="8.5">scale factor</text></g><path class="blocklyOutlinePath" d=" M 212.3692099174913,4  h 16 a 16 16 0 0,1 16,16  v 0 a 16 16 0 0,1 -16,16  h -16 a 16 16 0 0,1 -16,-16  v 0 a 16 16 0 0,1 16,-16 z" fill="#bfbfbf"></path><path class="blocklyOutlinePath" d=" M 212.3692099174913,44  h 16 a 16 16 0 0,1 16,16  v 0 a 16 16 0 0,1 -16,16  h -16 a 16 16 0 0,1 -16,-16  v 0 a 16 16 0 0,1 16,-16 z" fill="#bfbfbf"></path><path class="blocklyOutlinePath" d=" M 212.3692099174913,84  h 16 a 16 16 0 0,1 16,16  v 0 a 16 16 0 0,1 -16,16  h -16 a 16 16 0 0,1 -16,-16  v 0 a 16 16 0 0,1 16,-16 z" fill="#bfbfbf"></path><path class="blocklyOutlinePath" d=" M 212.3692099174913,124  h 16 a 16 16 0 0,1 16,16  v 0 a 16 16 0 0,1 -16,16  h -16 a 16 16 0 0,1 -16,-16  v 0 a 16 16 0 0,1 16,-16 z" fill="#bfbfbf"></path><path class="blocklyOutlinePath" d=" M 212.3692099174913,164  h 16 a 16 16 0 0,1 16,16  v 0 a 16 16 0 0,1 -16,16  h -16 a 16 16 0 0,1 -16,-16  v 0 a 16 16 0 0,1 16,-16 z" fill="#bfbfbf"></path></g></svg>