<svg  xmlns="http://www.w3.org/2000/svg" xmlns:xlink="http://www.w3.org/1999/xlink" width="265.6678161621094px" height="200px" style="font-family: 'IBM Plex Sans'; font-size: 13"><g data-id="Wrd)jbSyMbME|S-#Ca1Z" class="blocklyDraggable"><path class="blocklyPath" stroke="#bfbfbf" fill="#ffffff" d=" m 48,0  h 169.66781741799042 a 48 48 0 0,1 48,48  v 104 a 48 48 0 0,1 -48,48  V 200  h -169.66781741799042 a 48 48 0 0,1 -48,-48  v -104 a 48 48 0 0,1 48,-48 z
"></path><g transform="translate(28.816673906749116,11.5)"><image height="16px" width="16px" alt="" xlink:href="assets/blocks/async.svg"></image></g><g transform="translate(52.816673906749116,11)"><text class="blocklyText" dominant-baseline="central" x="0" y="9">Transform OCC shape</text></g><g transform="translate(77.90369478077255,51)"><text class="blocklyText" dominant-baseline="central" x="0" y="9">translation vector</text></g><g transform="translate(108.34937349171005,91)"><text class="blocklyText" dominant-baseline="central" x="0" y="9">rotation axis</text></g><g transform="translate(99.25830903858505,131)"><text class="blocklyText" dominant-baseline="central" x="0" y="9">rotation angle</text></g><g transform="translate(112.69492402881943,171)"><text class="blocklyText" dominant-baseline="central" x="0" y="9">scale factor</text></g><path class="blocklyOutlinePath" d=" M 204.8511435112413,4  h 16 a 16 16 0 0,1 16,16  v 0 a 16 16 0 0,1 -16,16  h -16 a 16 16 0 0,1 -16,-16  v 0 a 16 16 0 0,1 16,-16 z" fill="#bfbfbf"></path><path class="blocklyOutlinePath" d=" M 204.8511435112413,44  h 16 a 16 16 0 0,1 16,16  v 0 a 16 16 0 0,1 -16,16  h -16 a 16 16 0 0,1 -16,-16  v 0 a 16 16 0 0,1 16,-16 z" fill="#bfbfbf"></path><path class="blocklyOutlinePath" d=" M 204.8511435112413,84  h 16 a 16 16 0 0,1 16,16  v 0 a 16 16 0 0,1 -16,16  h -16 a 16 16 0 0,1 -16,-16  v 0 a 16 16 0 0,1 16,-16 z" fill="#bfbfbf"></path><path class="blocklyOutlinePath" d=" M 204.8511435112413,124  h 16 a 16 16 0 0,1 16,16  v 0 a 16 16 0 0,1 -16,16  h -16 a 16 16 0 0,1 -16,-16  v 0 a 16 16 0 0,1 16,-16 z" fill="#bfbfbf"></path><path class="blocklyOutlinePath" d=" M 204.8511435112413,164  h 16 a 16 16 0 0,1 16,16  v 0 a 16 16 0 0,1 -16,16  h -16 a 16 16 0 0,1 -16,-16  v 0 a 16 16 0 0,1 16,-16 z" fill="#bfbfbf"></path></g></svg>