<svg  xmlns="http://www.w3.org/2000/svg" xmlns:xlink="http://www.w3.org/1999/xlink" width="221.43795776367188px" height="80px" style="font-family: 'IBM Plex Sans'; font-size: 13"><g data-id="p5!T_+QQpUI-=7^H,KV~" class="blocklyDraggable"><path class="blocklyPath" stroke="#bfbfbf" fill="#ffffff" d=" m 40,0  h 141.4379362592918 a 40 40 0 0,1 40,40  v 0 a 40 40 0 0,1 -40,40  V 80  h -141.4379362592918 a 40 40 0 0,1 -40,-40  v 0 a 40 40 0 0,1 40,-40 z
"></path><g transform="translate(22.56440422583731,11.5)"><image height="16px" width="16px" alt="" xlink:href="assets/blocks/async.svg"></image></g><g transform="translate(46.56440422583731,11)"><text class="blocklyText" dominant-baseline="central" x="0" y="9">Loft OCC shapes</text></g><g transform="translate(79.03622124243887,51)"><text class="blocklyText" dominant-baseline="central" x="0" y="9">make solid</text></g><path class="blocklyOutlinePath" d=" M 166.8735320334545,4  h 16 a 16 16 0 0,1 16,16  v 0 a 16 16 0 0,1 -16,16  h -16 a 16 16 0 0,1 -16,-16  v 0 a 16 16 0 0,1 16,-16 z" fill="#bfbfbf"></path><path class="blocklyOutlinePath" d=" M 166.8735320334545,44  h 16  l 16,16  l -16,16  h -16  l -16,-16  l 16,-16 z" fill="#bfbfbf"></path></g></svg>