<svg  xmlns="http://www.w3.org/2000/svg" xmlns:xlink="http://www.w3.org/1999/xlink" width="306.7773742675781px" height="320px" style="font-family: 'IBM Plex Sans'; font-size: 13"><g data-id="QWVEf?C.n@,4LB6](3Z=" class="blocklyDraggable"><path class="blocklyPath" stroke="#bfbfbf" fill="#ffffff" d=" m 48,0  h 210.77737552345917 a 48 48 0 0,1 48,48  v 224 a 48 48 0 0,1 -48,48  V 320  h -210.77737552345917 a 48 48 0 0,1 -48,-48  v -224 a 48 48 0 0,1 48,-48 z
"></path><g transform="translate(28.816673906749116,11.5)"><image height="16px" width="16px" alt="" xlink:href="assets/blocks/async.svg"></image></g><g transform="translate(52.816673906749116,11.5)"><text class="blocklyText" dominant-baseline="central" x="0" y="8.5">Thick OCCT solid from shape</text></g><g transform="translate(145.95320955128037,51.5)"><text class="blocklyText" dominant-baseline="central" x="0" y="8.5">closing faces</text></g><g transform="translate(188.3825155815538,91.5)"><text class="blocklyText" dominant-baseline="central" x="0" y="8.5">offset</text></g><g transform="translate(166.4547049126085,131.5)"><text class="blocklyText" dominant-baseline="central" x="0" y="8.5">tolerance</text></g><g transform="translate(152.058342607921,171.5)"><text class="blocklyText" dominant-baseline="central" x="0" y="8.5">intersection</text></g><g transform="translate(127.67783418506943,211.5)"><text class="blocklyText" dominant-baseline="central" x="0" y="8.5">self intersection</text></g><g transform="translate(171.7067343315538,251.5)"><text class="blocklyText" dominant-baseline="central" x="0" y="8.5">join type</text></g><g transform="translate(66.22664705128037,291.5)"><text class="blocklyText" dominant-baseline="central" x="0" y="8.5">remove intersecting edges</text></g><path class="blocklyOutlinePath" d=" M 245.96070161671005,4  h 16 a 16 16 0 0,1 16,16  v 0 a 16 16 0 0,1 -16,16  h -16 a 16 16 0 0,1 -16,-16  v 0 a 16 16 0 0,1 16,-16 z" fill="#bfbfbf"></path><path class="blocklyOutlinePath" d=" M 245.96070161671005,44  h 16 a 16 16 0 0,1 16,16  v 0 a 16 16 0 0,1 -16,16  h -16 a 16 16 0 0,1 -16,-16  v 0 a 16 16 0 0,1 16,-16 z" fill="#bfbfbf"></path><path class="blocklyOutlinePath" d=" M 245.96070161671005,84  h 16 a 16 16 0 0,1 16,16  v 0 a 16 16 0 0,1 -16,16  h -16 a 16 16 0 0,1 -16,-16  v 0 a 16 16 0 0,1 16,-16 z" fill="#bfbfbf"></path><path class="blocklyOutlinePath" d=" M 245.96070161671005,124  h 16 a 16 16 0 0,1 16,16  v 0 a 16 16 0 0,1 -16,16  h -16 a 16 16 0 0,1 -16,-16  v 0 a 16 16 0 0,1 16,-16 z" fill="#bfbfbf"></path><path class="blocklyOutlinePath" d=" M 245.96070161671005,164  h 16  l 16,16  l -16,16  h -16  l -16,-16  l 16,-16 z" fill="#bfbfbf"></path><path class="blocklyOutlinePath" d=" M 245.96070161671005,204  h 16  l 16,16  l -16,16  h -16  l -16,-16  l 16,-16 z" fill="#bfbfbf"></path><path class="blocklyOutlinePath" d=" M 245.96070161671005,244  h 16 a 16 16 0 0,1 16,16  v 0 a 16 16 0 0,1 -16,16  h -16 a 16 16 0 0,1 -16,-16  v 0 a 16 16 0 0,1 16,-16 z" fill="#bfbfbf"></path><path class="blocklyOutlinePath" d=" M 245.96070161671005,284  h 16  l 16,16  l -16,16  h -16  l -16,-16  l 16,-16 z" fill="#bfbfbf"></path></g></svg>