<svg  xmlns="http://www.w3.org/2000/svg" xmlns:xlink="http://www.w3.org/1999/xlink" width="248.36544799804688px" height="120px" style="font-family: 'IBM Plex Sans'; font-size: 13"><g data-id="I^ogCOT/9OdhZYGxCyG4" class="blocklyDraggable"><path class="blocklyPath" stroke="#bfbfbf" fill="#ffffff" d=" m 48,0  h 152.36544925392792 a 48 48 0 0,1 48,48  v 24 a 48 48 0 0,1 -48,48  V 120  h -152.36544925392792 a 48 48 0 0,1 -48,-48  v -24 a 48 48 0 0,1 48,-48 z
"></path><g transform="translate(28.816673906749116,11.5)"><image height="16px" width="16px" alt="" xlink:href="assets/blocks/async.svg"></image></g><g transform="translate(52.816673906749116,11.5)"><text class="blocklyText" dominant-baseline="central" x="0" y="8.5">Offset OCCT shape</text></g><g transform="translate(113.61470857471787,51.5)"><text class="blocklyText" dominant-baseline="central" x="0" y="8.5">distance</text></g><g transform="translate(108.04277864307724,91.5)"><text class="blocklyText" dominant-baseline="central" x="0" y="8.5">tolerance</text></g><path class="blocklyOutlinePath" d=" M 187.5487753471788,4  h 16 a 16 16 0 0,1 16,16  v 0 a 16 16 0 0,1 -16,16  h -16 a 16 16 0 0,1 -16,-16  v 0 a 16 16 0 0,1 16,-16 z" fill="#bfbfbf"></path><path class="blocklyOutlinePath" d=" M 187.5487753471788,44  h 16 a 16 16 0 0,1 16,16  v 0 a 16 16 0 0,1 -16,16  h -16 a 16 16 0 0,1 -16,-16  v 0 a 16 16 0 0,1 16,-16 z" fill="#bfbfbf"></path><path class="blocklyOutlinePath" d=" M 187.5487753471788,84  h 16 a 16 16 0 0,1 16,16  v 0 a 16 16 0 0,1 -16,16  h -16 a 16 16 0 0,1 -16,-16  v 0 a 16 16 0 0,1 16,-16 z" fill="#bfbfbf"></path></g></svg>