<svg  xmlns="http://www.w3.org/2000/svg" xmlns:xlink="http://www.w3.org/1999/xlink" width="251.19149780273438px" height="160px" style="font-family: 'IBM Plex Sans'; font-size: 13"><g data-id="GOYk~);NFH?iNRtQekZn" class="blocklyDraggable"><path class="blocklyPath" stroke="#bfbfbf" fill="#ffffff" d=" m 48,0  h 155.19149905861542 a 48 48 0 0,1 48,48  v 64 a 48 48 0 0,1 -48,48  V 160  h -155.19149905861542 a 48 48 0 0,1 -48,-48  v -64 a 48 48 0 0,1 48,-48 z
"></path><g transform="translate(28.816673906749116,11.5)"><image height="16px" width="16px" alt="" xlink:href="assets/blocks/async.svg"></image></g><g transform="translate(52.816673906749116,11)"><text class="blocklyText" dominant-baseline="central" x="0" y="9">Revolve OCC shape</text></g><g transform="translate(134.03627839893662,51)"><text class="blocklyText" dominant-baseline="central" x="0" y="9">angle</text></g><g transform="translate(114.37455049366318,91)"><text class="blocklyText" dominant-baseline="central" x="0" y="9">direction</text></g><g transform="translate(138.5684744438585,131)"><text class="blocklyText" dominant-baseline="central" x="0" y="9">copy</text></g><path class="blocklyOutlinePath" d=" M 190.3748251518663,4  h 16 a 16 16 0 0,1 16,16  v 0 a 16 16 0 0,1 -16,16  h -16 a 16 16 0 0,1 -16,-16  v 0 a 16 16 0 0,1 16,-16 z" fill="#bfbfbf"></path><path class="blocklyOutlinePath" d=" M 190.3748251518663,44  h 16 a 16 16 0 0,1 16,16  v 0 a 16 16 0 0,1 -16,16  h -16 a 16 16 0 0,1 -16,-16  v 0 a 16 16 0 0,1 16,-16 z" fill="#bfbfbf"></path><path class="blocklyOutlinePath" d=" M 190.3748251518663,84  h 16 a 16 16 0 0,1 16,16  v 0 a 16 16 0 0,1 -16,16  h -16 a 16 16 0 0,1 -16,-16  v 0 a 16 16 0 0,1 16,-16 z" fill="#bfbfbf"></path><path class="blocklyOutlinePath" d=" M 190.3748251518663,124  h 16  l 16,16  l -16,16  h -16  l -16,-16  l 16,-16 z" fill="#bfbfbf"></path></g></svg>