<svg  xmlns="http://www.w3.org/2000/svg" xmlns:xlink="http://www.w3.org/1999/xlink" width="311.7833557128906px" height="120px" style="font-family: 'IBM Plex Sans'; font-size: 13"><g data-id="Tb`Knl+I51vI`)+5yxi2" class="blocklyDraggable"><path class="blocklyPath" stroke="#bfbfbf" fill="#ffffff" d=" m 48,0  h 215.78335696877167 a 48 48 0 0,1 48,48  v 24 a 48 48 0 0,1 -48,48  V 120  h -215.78335696877167 a 48 48 0 0,1 -48,-48  v -24 a 48 48 0 0,1 48,-48 z
"></path><g transform="translate(30.24297395557724,12)"><text class="blocklyText" dominant-baseline="central" x="0" y="8">Create a babylon node with origin</text></g><g transform="translate(180.85833040088974,52)"><text class="blocklyText" dominant-baseline="central" x="0" y="8">rotation</text></g><g transform="translate(28.816673906749116,92)"><text class="blocklyText" dominant-baseline="central" x="0" y="8">in a space of parent babylon node</text></g><path class="blocklyOutlinePath" d=" M 250.96668306202255,4  h 16 a 16 16 0 0,1 16,16  v 0 a 16 16 0 0,1 -16,16  h -16 a 16 16 0 0,1 -16,-16  v 0 a 16 16 0 0,1 16,-16 z" fill="#bfbfbf"></path><path class="blocklyOutlinePath" d=" M 250.96668306202255,44  h 16 a 16 16 0 0,1 16,16  v 0 a 16 16 0 0,1 -16,16  h -16 a 16 16 0 0,1 -16,-16  v 0 a 16 16 0 0,1 16,-16 z" fill="#bfbfbf"></path><path class="blocklyOutlinePath" d=" M 250.96668306202255,84  h 16 a 16 16 0 0,1 16,16  v 0 a 16 16 0 0,1 -16,16  h -16 a 16 16 0 0,1 -16,-16  v 0 a 16 16 0 0,1 16,-16 z" fill="#bfbfbf"></path></g></svg>