<svg  xmlns="http://www.w3.org/2000/svg" xmlns:xlink="http://www.w3.org/1999/xlink" width="232.18624877929688px" height="136px" style="font-family: 'IBM Plex Sans'; font-size: 13"><g data-id="vi204fogUQ1h^0)rIU=-" class="blocklyDraggable"><path class="blocklyPath" stroke="#bfbfbf" fill="#ffffff" d=" m 0,0  m 0,4 a 4 4 0 0,1 4,-4  h 8  c 2,0  3,1  4,2  l 4,4  c 1,1  2,2  4,2  h 12  c 2,0  3,-1  4,-2  l 4,-4  c 1,-1  2,-2  4,-2  h 180.18624877929688 a 4 4 0 0,1 4,4  v 8  V 40  V 48  V 80  V 88  V 120  V 124  V 124 a 4 4 0 0,1 -4,4  h -180.18624877929688  c -2,0  -3,1  -4,2  l -4,4  c -1,1  -2,2  -4,2  h -12  c -2,0  -3,-1  -4,-2  l -4,-4  c -1,-1  -2,-2  -4,-2  h -8 a 4 4 0 0,1 -4,-4 z
"></path><g transform="translate(8,16)"><text class="blocklyText" dominant-baseline="central" x="0" y="8">Translate the babylon node</text></g><g transform="translate(80.60835266113281,56)"><text class="blocklyText" dominant-baseline="central" x="0" y="8">along direction</text></g><g transform="translate(104.36235046386719,96)"><text class="blocklyText" dominant-baseline="central" x="0" y="8">in distance</text></g><path class="blocklyOutlinePath" d=" M 192.18624877929688,8  h 16 a 16 16 0 0,1 16,16  v 0 a 16 16 0 0,1 -16,16  h -16 a 16 16 0 0,1 -16,-16  v 0 a 16 16 0 0,1 16,-16 z" fill="#bfbfbf"></path><path class="blocklyOutlinePath" d=" M 192.18624877929688,48  h 16 a 16 16 0 0,1 16,16  v 0 a 16 16 0 0,1 -16,16  h -16 a 16 16 0 0,1 -16,-16  v 0 a 16 16 0 0,1 16,-16 z" fill="#bfbfbf"></path><path class="blocklyOutlinePath" d=" M 192.18624877929688,88  h 16 a 16 16 0 0,1 16,16  v 0 a 16 16 0 0,1 -16,16  h -16 a 16 16 0 0,1 -16,-16  v 0 a 16 16 0 0,1 16,-16 z" fill="#bfbfbf"></path></g></svg>