<svg  xmlns="http://www.w3.org/2000/svg" xmlns:xlink="http://www.w3.org/1999/xlink" width="345.29486083984375px" height="120px" style="font-family: 'IBM Plex Sans'; font-size: 13"><g data-id="HK]FPJ{|kF%],XumX`py" class="blocklyDraggable"><path class="blocklyPath" stroke="#bfbfbf" fill="#ffffff" d=" m 48,0  h 249.2948620957248 a 48 48 0 0,1 48,48  v 24 a 48 48 0 0,1 -48,48  V 120  h -249.2948620957248 a 48 48 0 0,1 -48,-48  v -24 a 48 48 0 0,1 48,-48 z
"></path><g transform="translate(28.816673906749116,11)"><text class="blocklyText" dominant-baseline="central" x="0" y="9">Rectangular extrusion path of XY points</text></g><g transform="translate(237.80391755909287,51)"><text class="blocklyText" dominant-baseline="central" x="0" y="9">size</text></g><g transform="translate(223.4741903862413,91)"><text class="blocklyText" dominant-baseline="central" x="0" y="9">height</text></g><path class="blocklyOutlinePath" d=" M 284.47818818897565,4  h 16 a 16 16 0 0,1 16,16  v 0 a 16 16 0 0,1 -16,16  h -16 a 16 16 0 0,1 -16,-16  v 0 a 16 16 0 0,1 16,-16 z" fill="#bfbfbf"></path><path class="blocklyOutlinePath" d=" M 284.47818818897565,44  h 16 a 16 16 0 0,1 16,16  v 0 a 16 16 0 0,1 -16,16  h -16 a 16 16 0 0,1 -16,-16  v 0 a 16 16 0 0,1 16,-16 z" fill="#bfbfbf"></path><path class="blocklyOutlinePath" d=" M 284.47818818897565,84  h 16 a 16 16 0 0,1 16,16  v 0 a 16 16 0 0,1 -16,16  h -16 a 16 16 0 0,1 -16,-16  v 0 a 16 16 0 0,1 16,-16 z" fill="#bfbfbf"></path></g></svg>