<svg  xmlns="http://www.w3.org/2000/svg" xmlns:xlink="http://www.w3.org/1999/xlink" width="305.5982360839844px" height="120px" style="font-family: 'IBM Plex Sans'; font-size: 13"><g data-id="%OX~Bk_zkh|;O_BT1=+m" class="blocklyDraggable"><path class="blocklyPath" stroke="#bfbfbf" fill="#ffffff" d=" m 48,0  h 209.59822208107636 a 48 48 0 0,1 48,48  v 24 a 48 48 0 0,1 -48,48  V 120  h -209.59822208107636 a 48 48 0 0,1 -48,-48  v -24 a 48 48 0 0,1 48,-48 z
"></path><g transform="translate(28.816673906749116,11)"><text class="blocklyText" dominant-baseline="central" x="0" y="9">Rectangular extrusion of XY path</text></g><g transform="translate(198.10727754444443,51)"><text class="blocklyText" dominant-baseline="central" x="0" y="9">size</text></g><g transform="translate(183.77755037159287,91)"><text class="blocklyText" dominant-baseline="central" x="0" y="9">height</text></g><path class="blocklyOutlinePath" d=" M 244.78154817432724,4  h 16 a 16 16 0 0,1 16,16  v 0 a 16 16 0 0,1 -16,16  h -16 a 16 16 0 0,1 -16,-16  v 0 a 16 16 0 0,1 16,-16 z" fill="#bfbfbf"></path><path class="blocklyOutlinePath" d=" M 244.78154817432724,44  h 16 a 16 16 0 0,1 16,16  v 0 a 16 16 0 0,1 -16,16  h -16 a 16 16 0 0,1 -16,-16  v 0 a 16 16 0 0,1 16,-16 z" fill="#bfbfbf"></path><path class="blocklyOutlinePath" d=" M 244.78154817432724,84  h 16 a 16 16 0 0,1 16,16  v 0 a 16 16 0 0,1 -16,16  h -16 a 16 16 0 0,1 -16,-16  v 0 a 16 16 0 0,1 16,-16 z" fill="#bfbfbf"></path></g></svg>