<svg  xmlns="http://www.w3.org/2000/svg" xmlns:xlink="http://www.w3.org/1999/xlink" width="280.88067626953125px" height="40px" style="font-family: 'IBM Plex Sans'; font-size: 13"><g data-id="JoqUk]9Llpd%21(p;Lo~" class="blocklyDraggable"><path class="blocklyPath" stroke="#bfbfbf" fill="#ffffff" d=" m 20,0  h 240.8806610107422 a 20 20 0 0,1 20,20  v 0 a 20 20 0 0,1 -20,20  V 40  h -240.8806610107422 a 20 20 0 0,1 -20,-20  v 0 a 20 20 0 0,1 20,-20 z
"></path><g transform="translate(12,12)"><text class="blocklyText" dominant-baseline="central" x="0" y="8">Create instance from babylon mesh</text></g><path class="blocklyOutlinePath" d=" M 244.8806610107422,4  h 16 a 16 16 0 0,1 16,16  v 0 a 16 16 0 0,1 -16,16  h -16 a 16 16 0 0,1 -16,-16  v 0 a 16 16 0 0,1 16,-16 z" fill="#bfbfbf"></path></g></svg>