<svg  xmlns="http://www.w3.org/2000/svg" xmlns:xlink="http://www.w3.org/1999/xlink" width="180.62591552734375px" height="96px" style="font-family: 'IBM Plex Sans'; font-size: 13"><g data-id="0^Ej0S6-PX-NY9!)5HCu" class="blocklyDraggable blocklySelected"><path class="blocklyPath" stroke="#bfbfbf" fill="#ffffff" d=" m 0,0  m 0,4 a 4 4 0 0,1 4,-4  h 8  c 2,0  3,1  4,2  l 4,4  c 1,1  2,2  4,2  h 12  c 2,0  3,-1  4,-2  l 4,-4  c 1,-1  2,-2  4,-2  h 128.62591552734375 a 4 4 0 0,1 4,4  v 8  V 40  V 48  V 80  V 84  V 84 a 4 4 0 0,1 -4,4  h -128.62591552734375  c -2,0  -3,1  -4,2  l -4,4  c -1,1  -2,2  -4,2  h -12  c -2,0  -3,-1  -4,-2  l -4,-4  c -1,-1  -2,-2  -4,-2  h -8 a 4 4 0 0,1 -4,-4 z
"></path><g transform="translate(8,15.5)"><text class="blocklyText" dominant-baseline="central" x="0" y="8.5">Roll babylon mesh</text></g><g transform="translate(70.51756286621094,55.5)"><text class="blocklyText" dominant-baseline="central" x="0" y="8.5">rotation</text></g><path class="blocklyOutlinePath" d=" M 140.62591552734375,8  h 16 a 16 16 0 0,1 16,16  v 0 a 16 16 0 0,1 -16,16  h -16 a 16 16 0 0,1 -16,-16  v 0 a 16 16 0 0,1 16,-16 z" fill="#bfbfbf"></path><path class="blocklyOutlinePath" d=" M 140.62591552734375,48  h 16 a 16 16 0 0,1 16,16  v 0 a 16 16 0 0,1 -16,16  h -16 a 16 16 0 0,1 -16,-16  v 0 a 16 16 0 0,1 16,-16 z" fill="#bfbfbf"></path><path class="blocklyPath" stroke="#bfbfbf" fill="none" d=" m 0,0  m 0,4 a 4 4 0 0,1 4,-4  h 8  c 2,0  3,1  4,2  l 4,4  c 1,1  2,2  4,2  h 12  c 2,0  3,-1  4,-2  l 4,-4  c 1,-1  2,-2  4,-2  h 128.62591552734375 a 4 4 0 0,1 4,4  v 8  V 40  V 48  V 80  V 84  V 84 a 4 4 0 0,1 -4,4  h -128.62591552734375  c -2,0  -3,1  -4,2  l -4,4  c -1,1  -2,2  -4,2  h -12  c -2,0  -3,-1  -4,-2  l -4,-4  c -1,-1  -2,-2  -4,-2  h -8 a 4 4 0 0,1 -4,-4 z
" filter="url(#blocklySelectedGlowFilter017848612898613503)"></path></g></svg>