<svg  xmlns="http://www.w3.org/2000/svg" xmlns:xlink="http://www.w3.org/1999/xlink" width="200.9807891845703px" height="216px" style="font-family: 'IBM Plex Sans'; font-size: 13"><g data-id="|Nsb,AxitM*P:e:PlUD6" class="blocklyDraggable"><path class="blocklyPath" stroke="#bfbfbf" fill="#ffffff" d=" m 0,0  m 0,4 a 4 4 0 0,1 4,-4  h 8  c 2,0  3,1  4,2  l 4,4  c 1,1  2,2  4,2  h 12  c 2,0  3,-1  4,-2  l 4,-4  c 1,-1  2,-2  4,-2  h 148.9807891845703 a 4 4 0 0,1 4,4  v 8  V 40  V 48  V 80  V 88  V 120  V 128  V 160  V 168  V 200  V 204  V 204 a 4 4 0 0,1 -4,4  h -148.9807891845703  c -2,0  -3,1  -4,2  l -4,4  c -1,1  -2,2  -4,2  h -12  c -2,0  -3,-1  -4,-2  l -4,-4  c -1,-1  -2,-2  -4,-2  h -8 a 4 4 0 0,1 -4,-4 z
"></path><g transform="translate(8,16)"><text class="blocklyText" dominant-baseline="central" x="0" y="8">Update babylon mesh</text></g><g transform="translate(89.85935974121094,56)"><text class="blocklyText" dominant-baseline="central" x="0" y="8">position</text></g><g transform="translate(90.8724365234375,96)"><text class="blocklyText" dominant-baseline="central" x="0" y="8">rotation</text></g><g transform="translate(106.22854614257812,136)"><text class="blocklyText" dominant-baseline="central" x="0" y="8">scale</text></g><g transform="translate(84.76730346679688,176)"><text class="blocklyText" dominant-baseline="central" x="0" y="8">colour(s)</text></g><path class="blocklyOutlinePath" d=" M 160.9807891845703,8  h 16 a 16 16 0 0,1 16,16  v 0 a 16 16 0 0,1 -16,16  h -16 a 16 16 0 0,1 -16,-16  v 0 a 16 16 0 0,1 16,-16 z" fill="#bfbfbf"></path><path class="blocklyOutlinePath" d=" M 160.9807891845703,48  h 16 a 16 16 0 0,1 16,16  v 0 a 16 16 0 0,1 -16,16  h -16 a 16 16 0 0,1 -16,-16  v 0 a 16 16 0 0,1 16,-16 z" fill="#bfbfbf"></path><path class="blocklyOutlinePath" d=" M 160.9807891845703,88  h 16 a 16 16 0 0,1 16,16  v 0 a 16 16 0 0,1 -16,16  h -16 a 16 16 0 0,1 -16,-16  v 0 a 16 16 0 0,1 16,-16 z" fill="#bfbfbf"></path><path class="blocklyOutlinePath" d=" M 160.9807891845703,128  h 16 a 16 16 0 0,1 16,16  v 0 a 16 16 0 0,1 -16,16  h -16 a 16 16 0 0,1 -16,-16  v 0 a 16 16 0 0,1 16,-16 z" fill="#bfbfbf"></path><path class="blocklyOutlinePath" d=" M 160.9807891845703,168  h 16 a 16 16 0 0,1 16,16  v 0 a 16 16 0 0,1 -16,16  h -16 a 16 16 0 0,1 -16,-16  v 0 a 16 16 0 0,1 16,-16 z" fill="#bfbfbf"></path></g></svg>