<svg  xmlns="http://www.w3.org/2000/svg" xmlns:xlink="http://www.w3.org/1999/xlink" width="360.24725341796875px" height="40px" style="font-family: 'IBM Plex Sans'; font-size: 13"><g data-id="I!.1}U;4Z,tUOaNX=(G+" class="blocklyDraggable"><path class="blocklyPath" stroke="#bfbfbf" fill="#ffffff" d=" m 20,0  h 320.24725341796875 a 20 20 0 0,1 20,20  v 0 a 20 20 0 0,1 -20,20  V 40  h -320.24725341796875 a 20 20 0 0,1 -20,-20  v 0 a 20 20 0 0,1 20,-20 z
"></path><g transform="translate(12,12)"><text class="blocklyText" dominant-baseline="central" x="0" y="8">Position point expressed in local space for baby…</text></g><path class="blocklyOutlinePath" d=" M 324.24725341796875,4  h 16 a 16 16 0 0,1 16,16  v 0 a 16 16 0 0,1 -16,16  h -16 a 16 16 0 0,1 -16,-16  v 0 a 16 16 0 0,1 16,-16 z" fill="#bfbfbf"></path></g></svg>