<svg  xmlns="http://www.w3.org/2000/svg" xmlns:xlink="http://www.w3.org/1999/xlink" width="197.5550079345703px" height="136px" style="font-family: 'IBM Plex Sans'; font-size: 13"><g data-id="TkeH-#|$7)K8G/T]Sf7y" class="blocklyDraggable"><path class="blocklyPath" stroke="#bfbfbf" fill="#ffffff" d=" m 0,0  m 0,4 a 4 4 0 0,1 4,-4  h 8  c 2,0  3,1  4,2  l 4,4  c 1,1  2,2  4,2  h 12  c 2,0  3,-1  4,-2  l 4,-4  c 1,-1  2,-2  4,-2  h 145.5550079345703 a 4 4 0 0,1 4,4  v 8  V 40  V 48  V 80  V 88  V 120  V 124  V 124 a 4 4 0 0,1 -4,4  h -145.5550079345703  c -2,0  -3,1  -4,2  l -4,4  c -1,1  -2,2  -4,2  h -12  c -2,0  -3,-1  -4,-2  l -4,-4  c -1,-1  -2,-2  -4,-2  h -8 a 4 4 0 0,1 -4,-4 z
"></path><g transform="translate(11.75909423828125,16)"><text class="blocklyText" dominant-baseline="central" x="0" y="8">Rotate babylon node</text></g><g transform="translate(8,56)"><text class="blocklyText" dominant-baseline="central" x="0" y="8">around an axis vector</text></g><g transform="translate(58.2139892578125,96)"><text class="blocklyText" dominant-baseline="central" x="0" y="8">and an angle</text></g><path class="blocklyOutlinePath" d=" M 157.5550079345703,8  h 16 a 16 16 0 0,1 16,16  v 0 a 16 16 0 0,1 -16,16  h -16 a 16 16 0 0,1 -16,-16  v 0 a 16 16 0 0,1 16,-16 z" fill="#bfbfbf"></path><path class="blocklyOutlinePath" d=" M 157.5550079345703,48  h 16 a 16 16 0 0,1 16,16  v 0 a 16 16 0 0,1 -16,16  h -16 a 16 16 0 0,1 -16,-16  v 0 a 16 16 0 0,1 16,-16 z" fill="#bfbfbf"></path><path class="blocklyOutlinePath" d=" M 157.5550079345703,88  h 16 a 16 16 0 0,1 16,16  v 0 a 16 16 0 0,1 -16,16  h -16 a 16 16 0 0,1 -16,-16  v 0 a 16 16 0 0,1 16,-16 z" fill="#bfbfbf"></path></g></svg>