<svg  xmlns="http://www.w3.org/2000/svg" xmlns:xlink="http://www.w3.org/1999/xlink" width="214.8306121826172px" height="96px" style="font-family: 'IBM Plex Sans'; font-size: 13"><g data-id="*@D0NsoK15=UrWfxRU3t" class="blocklyDraggable"><path class="blocklyPath" stroke="#bfbfbf" fill="#ffffff" d=" m 0,0  m 0,4 a 4 4 0 0,1 4,-4  h 8  c 2,0  3,1  4,2  l 4,4  c 1,1  2,2  4,2  h 12  c 2,0  3,-1  4,-2  l 4,-4  c 1,-1  2,-2  4,-2  h 162.8306121826172 a 4 4 0 0,1 4,4  v 8  V 40  V 48  V 80  V 84  V 84 a 4 4 0 0,1 -4,4  h -162.8306121826172  c -2,0  -3,1  -4,2  l -4,4  c -1,1  -2,2  -4,2  h -12  c -2,0  -3,-1  -4,-2  l -4,-4  c -1,-1  -2,-2  -4,-2  h -8 a 4 4 0 0,1 -4,-4 z
"></path><g transform="translate(48.69639587402344,16)"><text class="blocklyText" dominant-baseline="central" x="0" y="8">For babylon node</text></g><g transform="translate(8,56)"><text class="blocklyText" dominant-baseline="central" x="0" y="8">set parent babylon node</text></g><path class="blocklyOutlinePath" d=" M 174.8306121826172,8  h 16 a 16 16 0 0,1 16,16  v 0 a 16 16 0 0,1 -16,16  h -16 a 16 16 0 0,1 -16,-16  v 0 a 16 16 0 0,1 16,-16 z" fill="#bfbfbf"></path><path class="blocklyOutlinePath" d=" M 174.8306121826172,48  h 16 a 16 16 0 0,1 16,16  v 0 a 16 16 0 0,1 -16,16  h -16 a 16 16 0 0,1 -16,-16  v 0 a 16 16 0 0,1 16,-16 z" fill="#bfbfbf"></path></g></svg>