<svg  xmlns="http://www.w3.org/2000/svg" xmlns:xlink="http://www.w3.org/1999/xlink" width="246.2255096435547px" height="80px" style="font-family: 'IBM Plex Sans'; font-size: 13"><g data-id="Gg6XyRr|yA%,5_L?YZt)" class="blocklyDraggable"><path class="blocklyPath" stroke="#bfbfbf" fill="#ffffff" d=" m 40,0  h 166.22550339796368 a 40 40 0 0,1 40,40  v 0 a 40 40 0 0,1 -40,40  V 80  h -166.22550339796368 a 40 40 0 0,1 -40,-40  v 0 a 40 40 0 0,1 40,-40 z
"></path><g transform="translate(22.56440422583731,11)"><text class="blocklyText" dominant-baseline="central" x="0" y="9">Cube on the center point</text></g><g transform="translate(144.98682854224356,51)"><text class="blocklyText" dominant-baseline="central" x="0" y="9">size</text></g><path class="blocklyOutlinePath" d=" M 191.66109917212637,4  h 16 a 16 16 0 0,1 16,16  v 0 a 16 16 0 0,1 -16,16  h -16 a 16 16 0 0,1 -16,-16  v 0 a 16 16 0 0,1 16,-16 z" fill="#bfbfbf"></path><path class="blocklyOutlinePath" d=" M 191.66109917212637,44  h 16 a 16 16 0 0,1 16,16  v 0 a 16 16 0 0,1 -16,16  h -16 a 16 16 0 0,1 -16,-16  v 0 a 16 16 0 0,1 16,-16 z" fill="#bfbfbf"></path></g></svg>