<svg  xmlns="http://www.w3.org/2000/svg" xmlns:xlink="http://www.w3.org/1999/xlink" width="331.3250427246094px" height="200px" style="font-family: 'IBM Plex Sans'; font-size: 13"><g data-id="eRc;vHkU]m=+3.qjP%#K" class="blocklyDraggable"><path class="blocklyPath" stroke="#bfbfbf" fill="#ffffff" d=" m 48,0  h 235.32504398049042 a 48 48 0 0,1 48,48  v 104 a 48 48 0 0,1 -48,48  V 200  h -235.32504398049042 a 48 48 0 0,1 -48,-48  v -104 a 48 48 0 0,1 48,-48 z
"></path><g transform="translate(28.816673906749116,11)"><text class="blocklyText" dominant-baseline="central" x="0" y="9">Rounded cylinder on the center point</text></g><g transform="translate(209.50437227100693,51)"><text class="blocklyText" dominant-baseline="central" x="0" y="9">height</text></g><g transform="translate(209.99758210987412,91)"><text class="blocklyText" dominant-baseline="central" x="0" y="9">radius</text></g><g transform="translate(172.14046541065537,131)"><text class="blocklyText" dominant-baseline="central" x="0" y="9">round radius</text></g><g transform="translate(188.61629548878037,171)"><text class="blocklyText" dominant-baseline="central" x="0" y="9">segments</text></g><path class="blocklyOutlinePath" d=" M 270.5083700737413,4  h 16 a 16 16 0 0,1 16,16  v 0 a 16 16 0 0,1 -16,16  h -16 a 16 16 0 0,1 -16,-16  v 0 a 16 16 0 0,1 16,-16 z" fill="#bfbfbf"></path><path class="blocklyOutlinePath" d=" M 270.5083700737413,44  h 16 a 16 16 0 0,1 16,16  v 0 a 16 16 0 0,1 -16,16  h -16 a 16 16 0 0,1 -16,-16  v 0 a 16 16 0 0,1 16,-16 z" fill="#bfbfbf"></path><path class="blocklyOutlinePath" d=" M 270.5083700737413,84  h 16 a 16 16 0 0,1 16,16  v 0 a 16 16 0 0,1 -16,16  h -16 a 16 16 0 0,1 -16,-16  v 0 a 16 16 0 0,1 16,-16 z" fill="#bfbfbf"></path><path class="blocklyOutlinePath" d=" M 270.5083700737413,124  h 16 a 16 16 0 0,1 16,16  v 0 a 16 16 0 0,1 -16,16  h -16 a 16 16 0 0,1 -16,-16  v 0 a 16 16 0 0,1 16,-16 z" fill="#bfbfbf"></path><path class="blocklyOutlinePath" d=" M 270.5083700737413,164  h 16 a 16 16 0 0,1 16,16  v 0 a 16 16 0 0,1 -16,16  h -16 a 16 16 0 0,1 -16,-16  v 0 a 16 16 0 0,1 16,-16 z" fill="#bfbfbf"></path></g></svg>