<svg  xmlns="http://www.w3.org/2000/svg" xmlns:xlink="http://www.w3.org/1999/xlink" width="282.75067138671875px" height="120px" style="font-family: 'IBM Plex Sans'; font-size: 13"><g data-id="UKJ^FOv9hCE=i;B2`C^I" class="blocklyDraggable"><path class="blocklyPath" stroke="#bfbfbf" fill="#ffffff" d=" m 48,0  h 186.75065738381073 a 48 48 0 0,1 48,48  v 24 a 48 48 0 0,1 -48,48  V 120  h -186.75065738381073 a 48 48 0 0,1 -48,-48  v -24 a 48 48 0 0,1 48,-48 z
"></path><g transform="translate(28.816673906749116,11)"><text class="blocklyText" dominant-baseline="central" x="0" y="9">Spheres on the center points</text></g><g transform="translate(161.42319551319443,51)"><text class="blocklyText" dominant-baseline="central" x="0" y="9">radius</text></g><g transform="translate(109.94284883350693,91)"><text class="blocklyText" dominant-baseline="central" x="0" y="9">segment count</text></g><path class="blocklyOutlinePath" d=" M 221.93398347706162,4  h 16 a 16 16 0 0,1 16,16  v 0 a 16 16 0 0,1 -16,16  h -16 a 16 16 0 0,1 -16,-16  v 0 a 16 16 0 0,1 16,-16 z" fill="#bfbfbf"></path><path class="blocklyOutlinePath" d=" M 221.93398347706162,44  h 16 a 16 16 0 0,1 16,16  v 0 a 16 16 0 0,1 -16,16  h -16 a 16 16 0 0,1 -16,-16  v 0 a 16 16 0 0,1 16,-16 z" fill="#bfbfbf"></path><path class="blocklyOutlinePath" d=" M 221.93398347706162,84  h 16 a 16 16 0 0,1 16,16  v 0 a 16 16 0 0,1 -16,16  h -16 a 16 16 0 0,1 -16,-16  v 0 a 16 16 0 0,1 16,-16 z" fill="#bfbfbf"></path></g></svg>