<svg  xmlns="http://www.w3.org/2000/svg" xmlns:xlink="http://www.w3.org/1999/xlink" width="260.76953125px" height="320px" style="font-family: 'IBM Plex Sans'; font-size: 13"><g data-id="W6Rg0/il+WQn:a,zf91J" class="blocklyDraggable"><path class="blocklyPath" stroke="#bfbfbf" fill="#ffffff" d=" m 48,0  h 164.76953250588105 a 48 48 0 0,1 48,48  v 224 a 48 48 0 0,1 -48,48  V 320  h -164.76953250588105 a 48 48 0 0,1 -48,-48  v -224 a 48 48 0 0,1 48,-48 z
"></path><g transform="translate(28.816673906749116,11)"><text class="blocklyText" dominant-baseline="central" x="0" y="9">Torus on the center point</text></g><g transform="translate(106.0504843315538,51)"><text class="blocklyText" dominant-baseline="central" x="0" y="9">inner radius</text></g><g transform="translate(105.05075898975693,91)"><text class="blocklyText" dominant-baseline="central" x="0" y="9">outer radius</text></g><g transform="translate(54.570137651866304,131)"><text class="blocklyText" dominant-baseline="central" x="0" y="9">inner segment count</text></g><g transform="translate(53.57041231006943,171)"><text class="blocklyText" dominant-baseline="central" x="0" y="9">outer segment count</text></g><g transform="translate(96.45291963428818,211)"><text class="blocklyText" dominant-baseline="central" x="0" y="9">inner rotation</text></g><g transform="translate(95.4531942924913,251)"><text class="blocklyText" dominant-baseline="central" x="0" y="9">outer rotation</text></g><g transform="translate(113.34200349659287,291)"><text class="blocklyText" dominant-baseline="central" x="0" y="9">start angle</text></g><path class="blocklyOutlinePath" d=" M 199.95285859913193,4  h 16 a 16 16 0 0,1 16,16  v 0 a 16 16 0 0,1 -16,16  h -16 a 16 16 0 0,1 -16,-16  v 0 a 16 16 0 0,1 16,-16 z" fill="#bfbfbf"></path><path class="blocklyOutlinePath" d=" M 199.95285859913193,44  h 16 a 16 16 0 0,1 16,16  v 0 a 16 16 0 0,1 -16,16  h -16 a 16 16 0 0,1 -16,-16  v 0 a 16 16 0 0,1 16,-16 z" fill="#bfbfbf"></path><path class="blocklyOutlinePath" d=" M 199.95285859913193,84  h 16 a 16 16 0 0,1 16,16  v 0 a 16 16 0 0,1 -16,16  h -16 a 16 16 0 0,1 -16,-16  v 0 a 16 16 0 0,1 16,-16 z" fill="#bfbfbf"></path><path class="blocklyOutlinePath" d=" M 199.95285859913193,124  h 16 a 16 16 0 0,1 16,16  v 0 a 16 16 0 0,1 -16,16  h -16 a 16 16 0 0,1 -16,-16  v 0 a 16 16 0 0,1 16,-16 z" fill="#bfbfbf"></path><path class="blocklyOutlinePath" d=" M 199.95285859913193,164  h 16 a 16 16 0 0,1 16,16  v 0 a 16 16 0 0,1 -16,16  h -16 a 16 16 0 0,1 -16,-16  v 0 a 16 16 0 0,1 16,-16 z" fill="#bfbfbf"></path><path class="blocklyOutlinePath" d=" M 199.95285859913193,204  h 16 a 16 16 0 0,1 16,16  v 0 a 16 16 0 0,1 -16,16  h -16 a 16 16 0 0,1 -16,-16  v 0 a 16 16 0 0,1 16,-16 z" fill="#bfbfbf"></path><path class="blocklyOutlinePath" d=" M 199.95285859913193,244  h 16 a 16 16 0 0,1 16,16  v 0 a 16 16 0 0,1 -16,16  h -16 a 16 16 0 0,1 -16,-16  v 0 a 16 16 0 0,1 16,-16 z" fill="#bfbfbf"></path><path class="blocklyOutlinePath" d=" M 199.95285859913193,284  h 16 a 16 16 0 0,1 16,16  v 0 a 16 16 0 0,1 -16,16  h -16 a 16 16 0 0,1 -16,-16  v 0 a 16 16 0 0,1 16,-16 z" fill="#bfbfbf"></path></g></svg>