<svg  xmlns="http://www.w3.org/2000/svg" xmlns:xlink="http://www.w3.org/1999/xlink" width="303.9514465332031px" height="120px" style="font-family: 'IBM Plex Sans'; font-size: 13"><g data-id="T$.c.~:p/:o|8,)94F89" class="blocklyDraggable"><path class="blocklyPath" stroke="#bfbfbf" fill="#ffffff" d=" m 48,0  h 207.9514325302951 a 48 48 0 0,1 48,48  v 24 a 48 48 0 0,1 -48,48  V 120  h -207.9514325302951 a 48 48 0 0,1 -48,-48  v -24 a 48 48 0 0,1 48,-48 z
"></path><g transform="translate(28.816673906749116,11.5)"><image height="16px" width="16px" alt="" xlink:href="assets/blocks/async.svg"></image></g><g transform="translate(52.816673906749116,11.5)"><text class="blocklyText" dominant-baseline="central" x="0" y="8.5">OCCT arc edge through start</text></g><g transform="translate(178.158440264171,51.5)"><text class="blocklyText" dominant-baseline="central" x="0" y="8.5">middle</text></g><g transform="translate(196.74041047901474,91.5)"><text class="blocklyText" dominant-baseline="central" x="0" y="8.5">end</text></g><path class="blocklyOutlinePath" d=" M 243.134758623546,4  h 16 a 16 16 0 0,1 16,16  v 0 a 16 16 0 0,1 -16,16  h -16 a 16 16 0 0,1 -16,-16  v 0 a 16 16 0 0,1 16,-16 z" fill="#bfbfbf"></path><path class="blocklyOutlinePath" d=" M 243.134758623546,44  h 16 a 16 16 0 0,1 16,16  v 0 a 16 16 0 0,1 -16,16  h -16 a 16 16 0 0,1 -16,-16  v 0 a 16 16 0 0,1 16,-16 z" fill="#bfbfbf"></path><path class="blocklyOutlinePath" d=" M 243.134758623546,84  h 16 a 16 16 0 0,1 16,16  v 0 a 16 16 0 0,1 -16,16  h -16 a 16 16 0 0,1 -16,-16  v 0 a 16 16 0 0,1 16,-16 z" fill="#bfbfbf"></path></g></svg>