<svg  xmlns="http://www.w3.org/2000/svg" xmlns:xlink="http://www.w3.org/1999/xlink" width="186.16065979003906px" height="80px" style="font-family: 'IBM Plex Sans'; font-size: 13"><g data-id="h7~E#DmAd2w5~~9I%))%" class="blocklyDraggable"><path class="blocklyPath" stroke="#bfbfbf" fill="#ffffff" d=" m 40,0  h 106.16065354444805 a 40 40 0 0,1 40,40  v 0 a 40 40 0 0,1 -40,40  V 80  h -106.16065354444805 a 40 40 0 0,1 -40,-40  v 0 a 40 40 0 0,1 40,-40 z
"></path><g transform="translate(22.56440422583731,11)"><text class="blocklyText" dominant-baseline="central" x="0" y="9">Intersect solid</text></g><g transform="translate(51.117184377204495,51)"><text class="blocklyText" dominant-baseline="central" x="0" y="9">with solid</text></g><path class="blocklyOutlinePath" d=" M 131.59624931861075,4  h 16 a 16 16 0 0,1 16,16  v 0 a 16 16 0 0,1 -16,16  h -16 a 16 16 0 0,1 -16,-16  v 0 a 16 16 0 0,1 16,-16 z" fill="#bfbfbf"></path><path class="blocklyOutlinePath" d=" M 131.59624931861075,44  h 16 a 16 16 0 0,1 16,16  v 0 a 16 16 0 0,1 -16,16  h -16 a 16 16 0 0,1 -16,-16  v 0 a 16 16 0 0,1 16,-16 z" fill="#bfbfbf"></path></g></svg>