<svg  xmlns="http://www.w3.org/2000/svg" xmlns:xlink="http://www.w3.org/1999/xlink" width="188.70668029785156px" height="80px" style="font-family: 'IBM Plex Sans'; font-size: 13"><g data-id="i#gg%[8)yc_{rvi6]g80" class="blocklyDraggable"><path class="blocklyPath" stroke="#bfbfbf" fill="#ffffff" d=" m 40,0  h 108.70667405226055 a 40 40 0 0,1 40,40  v 0 a 40 40 0 0,1 -40,40  V 80  h -108.70667405226055 a 40 40 0 0,1 -40,-40  v 0 a 40 40 0 0,1 40,-40 z
"></path><g transform="translate(22.56440422583731,11)"><text class="blocklyText" dominant-baseline="central" x="0" y="9">Subtract solids</text></g><g transform="translate(51.05051872779043,51)"><text class="blocklyText" dominant-baseline="central" x="0" y="9">from solid</text></g><path class="blocklyOutlinePath" d=" M 134.14226982642325,4  h 16 a 16 16 0 0,1 16,16  v 0 a 16 16 0 0,1 -16,16  h -16 a 16 16 0 0,1 -16,-16  v 0 a 16 16 0 0,1 16,-16 z" fill="#bfbfbf"></path><path class="blocklyOutlinePath" d=" M 134.14226982642325,44  h 16 a 16 16 0 0,1 16,16  v 0 a 16 16 0 0,1 -16,16  h -16 a 16 16 0 0,1 -16,-16  v 0 a 16 16 0 0,1 16,-16 z" fill="#bfbfbf"></path></g></svg>