<svg  xmlns="http://www.w3.org/2000/svg" xmlns:xlink="http://www.w3.org/1999/xlink" width="182.34828186035156px" height="80px" style="font-family: 'IBM Plex Sans'; font-size: 13"><g data-id="q`p?hVraUp%F7m*DxJ%N" class="blocklyDraggable"><path class="blocklyPath" stroke="#bfbfbf" fill="#ffffff" d=" m 40,0  h 102.34827561476055 a 40 40 0 0,1 40,40  v 0 a 40 40 0 0,1 -40,40  V 80  h -102.34827561476055 a 40 40 0 0,1 -40,-40  v 0 a 40 40 0 0,1 40,-40 z
"></path><g transform="translate(22.56440422583731,11)"><text class="blocklyText" dominant-baseline="central" x="0" y="9">Subtract solid</text></g><g transform="translate(44.69212029029043,51)"><text class="blocklyText" dominant-baseline="central" x="0" y="9">from solid</text></g><path class="blocklyOutlinePath" d=" M 127.78387138892325,4  h 16 a 16 16 0 0,1 16,16  v 0 a 16 16 0 0,1 -16,16  h -16 a 16 16 0 0,1 -16,-16  v 0 a 16 16 0 0,1 16,-16 z" fill="#bfbfbf"></path><path class="blocklyOutlinePath" d=" M 127.78387138892325,44  h 16 a 16 16 0 0,1 16,16  v 0 a 16 16 0 0,1 -16,16  h -16 a 16 16 0 0,1 -16,-16  v 0 a 16 16 0 0,1 16,-16 z" fill="#bfbfbf"></path></g></svg>