<svg  xmlns="http://www.w3.org/2000/svg" xmlns:xlink="http://www.w3.org/1999/xlink" width="258.2657470703125px" height="40px" style="font-family: 'IBM Plex Sans'; font-size: 13"><g data-id="DOd@K`g[ncyn:B+.Oo=t" class="blocklyDraggable"><path class="blocklyPath" stroke="#bfbfbf" fill="#ffffff" d=" m 20,0  h 218.2657470703125 a 20 20 0 0,1 20,20  v 0 a 20 20 0 0,1 -20,20  V 40  h -218.2657470703125 a 20 20 0 0,1 -20,-20  v 0 a 20 20 0 0,1 20,-20 z
"></path><g transform="translate(12,11.5)"><image height="16px" width="16px" alt="" xlink:href="assets/blocks/async.svg"></image></g><g transform="translate(36,11.5)"><text class="blocklyText" dominant-baseline="central" x="0" y="8.5">Get end point on OCCT wire</text></g><path class="blocklyOutlinePath" d=" M 222.2657470703125,4  h 16 a 16 16 0 0,1 16,16  v 0 a 16 16 0 0,1 -16,16  h -16 a 16 16 0 0,1 -16,-16  v 0 a 16 16 0 0,1 16,-16 z" fill="#bfbfbf"></path></g></svg>