<svg  xmlns="http://www.w3.org/2000/svg" xmlns:xlink="http://www.w3.org/1999/xlink" width="264.00048828125px" height="80px" style="font-family: 'IBM Plex Sans'; font-size: 13"><g data-id="W(FCr3h6*!m[oow#)*{0" class="blocklyDraggable"><path class="blocklyPath" stroke="#bfbfbf" fill="#ffffff" d=" m 40,0  h 184.000482035659 a 40 40 0 0,1 40,40  v 0 a 40 40 0 0,1 -40,40  V 80  h -184.000482035659 a 40 40 0 0,1 -40,-40  v 0 a 40 40 0 0,1 40,-40 z
"></path><g transform="translate(22.56440422583731,11.5)"><image height="16px" width="16px" alt="" xlink:href="assets/blocks/async.svg"></image></g><g transform="translate(46.56440422583731,11.5)"><text class="blocklyText" dominant-baseline="central" x="0" y="8.5">Get wire of OCCT shape</text></g><g transform="translate(153.3775145773998,51.5)"><text class="blocklyText" dominant-baseline="central" x="0" y="8.5">index</text></g><path class="blocklyOutlinePath" d=" M 209.43607780982168,4  h 16 a 16 16 0 0,1 16,16  v 0 a 16 16 0 0,1 -16,16  h -16 a 16 16 0 0,1 -16,-16  v 0 a 16 16 0 0,1 16,-16 z" fill="#bfbfbf"></path><path class="blocklyOutlinePath" d=" M 209.43607780982168,44  h 16 a 16 16 0 0,1 16,16  v 0 a 16 16 0 0,1 -16,16  h -16 a 16 16 0 0,1 -16,-16  v 0 a 16 16 0 0,1 16,-16 z" fill="#bfbfbf"></path></g></svg>