<svg  xmlns="http://www.w3.org/2000/svg" xmlns:xlink="http://www.w3.org/1999/xlink" width="215.52987670898438px" height="40px" style="font-family: 'IBM Plex Sans'; font-size: 13"><g data-id="eXyUoDOtBM_AnN6z~fI0" class="blocklyDraggable" style="display: block;"><path class="blocklyPath" stroke="#bfbfbf" fill="#ffffff" d=" m 20,0  h 175.52987670898438 a 20 20 0 0,1 20,20  v 0 a 20 20 0 0,1 -20,20  V 40  h -175.52987670898438 a 20 20 0 0,1 -20,-20  v 0 a 20 20 0 0,1 20,-20 z
"></path><g transform="translate(12,11.5)"><image height="16px" width="16px" alt="" xlink:href="assets/blocks/async.svg"></image></g><g transform="translate(36,11.5)"><text class="blocklyText" dominant-baseline="central" x="0" y="8.5">Reversed OCCT wire</text></g><path class="blocklyOutlinePath" d=" M 179.52987670898438,4  h 16 a 16 16 0 0,1 16,16  v 0 a 16 16 0 0,1 -16,16  h -16 a 16 16 0 0,1 -16,-16  v 0 a 16 16 0 0,1 16,-16 z" fill="#bfbfbf"></path></g></svg>