<svg  xmlns="http://www.w3.org/2000/svg" xmlns:xlink="http://www.w3.org/1999/xlink" width="262.9978942871094px" height="40px" style="font-family: 'IBM Plex Sans'; font-size: 13"><g data-id="d*~K%4zzNK6B^U;k(FSV" class="blocklyDraggable blocklySelected" style="display: block;"><path class="blocklyPath" stroke="#bfbfbf" fill="#ffffff" d=" m 20,0  h 222.99789428710938 a 20 20 0 0,1 20,20  v 0 a 20 20 0 0,1 -20,20  V 40  h -222.99789428710938 a 20 20 0 0,1 -20,-20  v 0 a 20 20 0 0,1 20,-20 z
"></path><g transform="translate(12,11.5)"><image height="16px" width="16px" alt="" xlink:href="assets/blocks/async.svg"></image></g><g transform="translate(36,11.5)"><text class="blocklyText" dominant-baseline="central" x="0" y="8.5">Get start point on OCCT wire</text></g><path class="blocklyOutlinePath" d=" M 226.99789428710938,4  h 16 a 16 16 0 0,1 16,16  v 0 a 16 16 0 0,1 -16,16  h -16 a 16 16 0 0,1 -16,-16  v 0 a 16 16 0 0,1 16,-16 z" fill="#bfbfbf"></path><path class="blocklyPath" stroke="#bfbfbf" fill="none" d=" m 20,0  h 222.99789428710938 a 20 20 0 0,1 20,20  v 0 a 20 20 0 0,1 -20,20  V 40  h -222.99789428710938 a 20 20 0 0,1 -20,-20  v 0 a 20 20 0 0,1 20,-20 z
" filter="url(#blocklySelectedGlowFilter36509597949307127)"></path></g></svg>