<svg  xmlns="http://www.w3.org/2000/svg" xmlns:xlink="http://www.w3.org/1999/xlink" width="217.33946228027344px" height="80px" style="font-family: 'IBM Plex Sans'; font-size: 13"><g data-id="On*`FCf,FYKMBgJmcGVH" class="blocklyDraggable"><path class="blocklyPath" stroke="#bfbfbf" fill="#ffffff" d=" m 40,0  h 137.33945603468243 a 40 40 0 0,1 40,40  v 0 a 40 40 0 0,1 -40,40  V 80  h -137.33945603468243 a 40 40 0 0,1 -40,-40  v 0 a 40 40 0 0,1 40,-40 z
"></path><g transform="translate(22.56440422583731,11)"><text class="blocklyText" dominant-baseline="central" x="0" y="9">Sweep profile curve</text></g><g transform="translate(62.32767937232168,51)"><text class="blocklyText" dominant-baseline="central" x="0" y="9">along the rail</text></g><path class="blocklyOutlinePath" d=" M 162.77505180884512,4  h 16 a 16 16 0 0,1 16,16  v 0 a 16 16 0 0,1 -16,16  h -16 a 16 16 0 0,1 -16,-16  v 0 a 16 16 0 0,1 16,-16 z" fill="#bfbfbf"></path><path class="blocklyOutlinePath" d=" M 162.77505180884512,44  h 16 a 16 16 0 0,1 16,16  v 0 a 16 16 0 0,1 -16,16  h -16 a 16 16 0 0,1 -16,-16  v 0 a 16 16 0 0,1 16,-16 z" fill="#bfbfbf"></path></g></svg>