<svg  xmlns="http://www.w3.org/2000/svg" xmlns:xlink="http://www.w3.org/1999/xlink" width="201.784423828125px" height="120px" style="font-family: 'IBM Plex Sans'; font-size: 13"><g data-id=":fse_2of0e,,:hDvO:Al" class="blocklyDraggable"><path class="blocklyPath" stroke="#bfbfbf" fill="#ffffff" d=" m 48,0  h 105.78442508400605 a 48 48 0 0,1 48,48  v 24 a 48 48 0 0,1 -48,48  V 120  h -105.78442508400605 a 48 48 0 0,1 -48,-48  v -24 a 48 48 0 0,1 48,-48 z
"></path><g transform="translate(28.816673906749116,11)"><text class="blocklyText" dominant-baseline="central" x="0" y="9">Rotate in angle</text></g><g transform="translate(48.838265093272554,51)"><text class="blocklyText" dominant-baseline="central" x="0" y="9">around axis</text></g><g transform="translate(77.59102693409287,91)"><text class="blocklyText" dominant-baseline="central" x="0" y="9">Center</text></g><path class="blocklyOutlinePath" d=" M 140.96775117725693,4  h 16 a 16 16 0 0,1 16,16  v 0 a 16 16 0 0,1 -16,16  h -16 a 16 16 0 0,1 -16,-16  v 0 a 16 16 0 0,1 16,-16 z" fill="#bfbfbf"></path><path class="blocklyOutlinePath" d=" M 140.96775117725693,44  h 16 a 16 16 0 0,1 16,16  v 0 a 16 16 0 0,1 -16,16  h -16 a 16 16 0 0,1 -16,-16  v 0 a 16 16 0 0,1 16,-16 z" fill="#bfbfbf"></path><path class="blocklyOutlinePath" d=" M 140.96775117725693,84  h 16 a 16 16 0 0,1 16,16  v 0 a 16 16 0 0,1 -16,16  h -16 a 16 16 0 0,1 -16,-16  v 0 a 16 16 0 0,1 16,-16 z" fill="#bfbfbf"></path></g></svg>