<svg  xmlns="http://www.w3.org/2000/svg" xmlns:xlink="http://www.w3.org/1999/xlink" width="228.88426208496094px" height="200px" style="font-family: 'IBM Plex Sans'; font-size: 13"><g data-id="Md6%Dv]hUgNo?9#=M|pj" class="blocklyDraggable"><path class="blocklyPath" stroke="#bfbfbf" fill="#ffffff" d=" m 48,0  h 132.88426334084198 a 48 48 0 0,1 48,48  v 104 a 48 48 0 0,1 -48,48  V 200  h -132.88426334084198 a 48 48 0 0,1 -48,-48  v -104 a 48 48 0 0,1 48,-48 z
"></path><g transform="translate(28.816673906749116,11)"><text class="blocklyText" dominant-baseline="central" x="0" y="9">Cylinder on the axis</text></g><g transform="translate(111.10257783741318,51)"><text class="blocklyText" dominant-baseline="central" x="0" y="9">x axis</text></g><g transform="translate(115.79471650928818,91)"><text class="blocklyText" dominant-baseline="central" x="0" y="9">base</text></g><g transform="translate(107.06359163135849,131)"><text class="blocklyText" dominant-baseline="central" x="0" y="9">height</text></g><g transform="translate(107.55680147022568,171)"><text class="blocklyText" dominant-baseline="central" x="0" y="9">radius</text></g><path class="blocklyOutlinePath" d=" M 168.06758943409287,4  h 16 a 16 16 0 0,1 16,16  v 0 a 16 16 0 0,1 -16,16  h -16 a 16 16 0 0,1 -16,-16  v 0 a 16 16 0 0,1 16,-16 z" fill="#bfbfbf"></path><path class="blocklyOutlinePath" d=" M 168.06758943409287,44  h 16 a 16 16 0 0,1 16,16  v 0 a 16 16 0 0,1 -16,16  h -16 a 16 16 0 0,1 -16,-16  v 0 a 16 16 0 0,1 16,-16 z" fill="#bfbfbf"></path><path class="blocklyOutlinePath" d=" M 168.06758943409287,84  h 16 a 16 16 0 0,1 16,16  v 0 a 16 16 0 0,1 -16,16  h -16 a 16 16 0 0,1 -16,-16  v 0 a 16 16 0 0,1 16,-16 z" fill="#bfbfbf"></path><path class="blocklyOutlinePath" d=" M 168.06758943409287,124  h 16 a 16 16 0 0,1 16,16  v 0 a 16 16 0 0,1 -16,16  h -16 a 16 16 0 0,1 -16,-16  v 0 a 16 16 0 0,1 16,-16 z" fill="#bfbfbf"></path><path class="blocklyOutlinePath" d=" M 168.06758943409287,164  h 16 a 16 16 0 0,1 16,16  v 0 a 16 16 0 0,1 -16,16  h -16 a 16 16 0 0,1 -16,-16  v 0 a 16 16 0 0,1 16,-16 z" fill="#bfbfbf"></path></g></svg>