<svg  xmlns="http://www.w3.org/2000/svg" xmlns:xlink="http://www.w3.org/1999/xlink" width="200.39805603027344px" height="160px" style="font-family: 'IBM Plex Sans'; font-size: 13"><g data-id="*tcn0sNkk2lLB@YI^+?0" class="blocklyDraggable"><path class="blocklyPath" stroke="#bfbfbf" fill="#ffffff" d=" m 48,0  h 104.39805728615448 a 48 48 0 0,1 48,48  v 64 a 48 48 0 0,1 -48,48  V 160  h -104.39805728615448 a 48 48 0 0,1 -48,-48  v -64 a 48 48 0 0,1 48,-48 z
"></path><g transform="translate(28.816673906749116,11)"><text class="blocklyText" dominant-baseline="central" x="0" y="9">Revolve profile</text></g><g transform="translate(59.942101152842866,51)"><text class="blocklyText" dominant-baseline="central" x="0" y="9">on center</text></g><g transform="translate(47.45189729542099,91)"><text class="blocklyText" dominant-baseline="central" x="0" y="9">around axis</text></g><g transform="translate(51.67748323292099,131)"><text class="blocklyText" dominant-baseline="central" x="0" y="9">in an angle</text></g><path class="blocklyOutlinePath" d=" M 139.58138337940537,4  h 16 a 16 16 0 0,1 16,16  v 0 a 16 16 0 0,1 -16,16  h -16 a 16 16 0 0,1 -16,-16  v 0 a 16 16 0 0,1 16,-16 z" fill="#bfbfbf"></path><path class="blocklyOutlinePath" d=" M 139.58138337940537,44  h 16 a 16 16 0 0,1 16,16  v 0 a 16 16 0 0,1 -16,16  h -16 a 16 16 0 0,1 -16,-16  v 0 a 16 16 0 0,1 16,-16 z" fill="#bfbfbf"></path><path class="blocklyOutlinePath" d=" M 139.58138337940537,84  h 16 a 16 16 0 0,1 16,16  v 0 a 16 16 0 0,1 -16,16  h -16 a 16 16 0 0,1 -16,-16  v 0 a 16 16 0 0,1 16,-16 z" fill="#bfbfbf"></path><path class="blocklyOutlinePath" d=" M 139.58138337940537,124  h 16 a 16 16 0 0,1 16,16  v 0 a 16 16 0 0,1 -16,16  h -16 a 16 16 0 0,1 -16,-16  v 0 a 16 16 0 0,1 16,-16 z" fill="#bfbfbf"></path></g></svg>