<svg  xmlns="http://www.w3.org/2000/svg" xmlns:xlink="http://www.w3.org/1999/xlink" width="227.5235595703125px" height="80px" style="font-family: 'IBM Plex Sans'; font-size: 13"><g data-id="9ZLCo(6!dr28L2=ck@t:" class="blocklyDraggable"><path class="blocklyPath" stroke="#bfbfbf" fill="#ffffff" d=" m 40,0  h 147.5235533247215 a 40 40 0 0,1 40,40  v 0 a 40 40 0 0,1 -40,40  V 80  h -147.5235533247215 a 40 40 0 0,1 -40,-40  v 0 a 40 40 0 0,1 40,-40 z
"></path><g transform="translate(22.56440422583731,11)"><text class="blocklyText" dominant-baseline="central" x="0" y="9">Scale with XYZ vector</text></g><g transform="translate(111.3019988303295,51)"><text class="blocklyText" dominant-baseline="central" x="0" y="9">center</text></g><path class="blocklyOutlinePath" d=" M 172.95914909888418,4  h 16 a 16 16 0 0,1 16,16  v 0 a 16 16 0 0,1 -16,16  h -16 a 16 16 0 0,1 -16,-16  v 0 a 16 16 0 0,1 16,-16 z" fill="#bfbfbf"></path><path class="blocklyOutlinePath" d=" M 172.95914909888418,44  h 16 a 16 16 0 0,1 16,16  v 0 a 16 16 0 0,1 -16,16  h -16 a 16 16 0 0,1 -16,-16  v 0 a 16 16 0 0,1 16,-16 z" fill="#bfbfbf"></path></g></svg>