<svg  xmlns="http://www.w3.org/2000/svg" xmlns:xlink="http://www.w3.org/1999/xlink" width="327.9853515625px" height="120px" style="font-family: 'IBM Plex Sans'; font-size: 13"><g data-id="by^|sM9%wyG-qPDL)O#w" class="blocklyDraggable"><path class="blocklyPath" stroke="#bfbfbf" fill="#ffffff" d=" m 48,0  h 231.98535281838105 a 48 48 0 0,1 48,48  v 24 a 48 48 0 0,1 -48,48  V 120  h -231.98535281838105 a 48 48 0 0,1 -48,-48  v -24 a 48 48 0 0,1 48,-48 z
"></path><g transform="translate(28.816673906749116,11.5)"><image height="16px" width="16px" alt="" xlink:href="assets/blocks/async.svg"></image></g><g transform="translate(52.816673906749116,11.5)"><text class="blocklyText" dominant-baseline="central" x="0" y="8.5">Difference between OCCT shape</text></g><g transform="translate(175.7056814751085,51.5)"><text class="blocklyText" dominant-baseline="central" x="0" y="8.5">and shapes</text></g><g transform="translate(133.48970857471787,91.5)"><text class="blocklyText" dominant-baseline="central" x="0" y="8.5">keep edge indexes</text></g><path class="blocklyOutlinePath" d=" M 267.1686789116319,4  h 16 a 16 16 0 0,1 16,16  v 0 a 16 16 0 0,1 -16,16  h -16 a 16 16 0 0,1 -16,-16  v 0 a 16 16 0 0,1 16,-16 z" fill="#bfbfbf"></path><path class="blocklyOutlinePath" d=" M 267.1686789116319,44  h 16 a 16 16 0 0,1 16,16  v 0 a 16 16 0 0,1 -16,16  h -16 a 16 16 0 0,1 -16,-16  v 0 a 16 16 0 0,1 16,-16 z" fill="#bfbfbf"></path><path class="blocklyOutlinePath" d=" M 267.1686789116319,84  h 16  l 16,16  l -16,16  h -16  l -16,-16  l 16,-16 z" fill="#bfbfbf"></path></g></svg>