<svg  xmlns="http://www.w3.org/2000/svg" xmlns:xlink="http://www.w3.org/1999/xlink" width="223.49790954589844px" height="80px" style="font-family: 'IBM Plex Sans'; font-size: 13"><g data-id="vH24bGu~=TQB`T?O(r@." class="blocklyDraggable"><path class="blocklyPath" stroke="#bfbfbf" fill="#ffffff" d=" m 40,0  h 143.49788804151837 a 40 40 0 0,1 40,40  v 0 a 40 40 0 0,1 -40,40  V 80  h -143.49788804151837 a 40 40 0 0,1 -40,-40  v 0 a 40 40 0 0,1 40,-40 z
"></path><g transform="translate(22.56440422583731,11)"><text class="blocklyText" dominant-baseline="central" x="0" y="9">Extrude profile curve</text></g><g transform="translate(64.59376213599356,51)"><text class="blocklyText" dominant-baseline="central" x="0" y="9">along dirction</text></g><path class="blocklyOutlinePath" d=" M 168.93348381568106,4  h 16 a 16 16 0 0,1 16,16  v 0 a 16 16 0 0,1 -16,16  h -16 a 16 16 0 0,1 -16,-16  v 0 a 16 16 0 0,1 16,-16 z" fill="#bfbfbf"></path><path class="blocklyOutlinePath" d=" M 168.93348381568106,44  h 16 a 16 16 0 0,1 16,16  v 0 a 16 16 0 0,1 -16,16  h -16 a 16 16 0 0,1 -16,-16  v 0 a 16 16 0 0,1 16,-16 z" fill="#bfbfbf"></path></g></svg>