<svg  xmlns="http://www.w3.org/2000/svg" xmlns:xlink="http://www.w3.org/1999/xlink" width="217.45657348632812px" height="40px" style="font-family: 'IBM Plex Sans'; font-size: 13"><g data-id="SJ]m%C%V$NJ7:dPAj/Mv" class="blocklyDraggable"><path class="blocklyPath" stroke="#bfbfbf" fill="#ffffff" d=" m 20,0  h 177.45657348632812 a 20 20 0 0,1 20,20  v 0 a 20 20 0 0,1 -20,20  V 40  h -177.45657348632812 a 20 20 0 0,1 -20,-20  v 0 a 20 20 0 0,1 20,-20 z
"></path><g transform="translate(12,11)"><text class="blocklyText" dominant-baseline="central" x="0" y="9">Polygon from XY polyline</text></g><path class="blocklyOutlinePath" d=" M 181.45657348632812,4  h 16 a 16 16 0 0,1 16,16  v 0 a 16 16 0 0,1 -16,16  h -16 a 16 16 0 0,1 -16,-16  v 0 a 16 16 0 0,1 16,-16 z" fill="#bfbfbf"></path></g></svg>