<svg  xmlns="http://www.w3.org/2000/svg" xmlns:xlink="http://www.w3.org/1999/xlink" width="251.98507690429688px" height="240px" style="font-family: 'IBM Plex Sans'; font-size: 13"><g data-id="j%GeN^!AV(FiR/Z~~zXa" class="blocklyDraggable"><path class="blocklyPath" stroke="#bfbfbf" fill="#ffffff" d=" m 48,0  h 155.98507816017792 a 48 48 0 0,1 48,48  v 144 a 48 48 0 0,1 -48,48  V 240  h -155.98507816017792 a 48 48 0 0,1 -48,-48  v -144 a 48 48 0 0,1 48,-48 z
"></path><g transform="translate(28.816673906749116,11)"><text class="blocklyText" dominant-baseline="central" x="0" y="9">Star on the center point</text></g><g transform="translate(121.00675264210068,51)"><text class="blocklyText" dominant-baseline="central" x="0" y="9">vertices</text></g><g transform="translate(124.27257600635849,91)"><text class="blocklyText" dominant-baseline="central" x="0" y="9">density</text></g><g transform="translate(96.2663046440538,131)"><text class="blocklyText" dominant-baseline="central" x="0" y="9">outer radius</text></g><g transform="translate(97.26602998585068,171)"><text class="blocklyText" dominant-baseline="central" x="0" y="9">inner radius</text></g><g transform="translate(104.55754915088974,211)"><text class="blocklyText" dominant-baseline="central" x="0" y="9">start angle</text></g><path class="blocklyOutlinePath" d=" M 191.1684042534288,4  h 16 a 16 16 0 0,1 16,16  v 0 a 16 16 0 0,1 -16,16  h -16 a 16 16 0 0,1 -16,-16  v 0 a 16 16 0 0,1 16,-16 z" fill="#bfbfbf"></path><path class="blocklyOutlinePath" d=" M 191.1684042534288,44  h 16 a 16 16 0 0,1 16,16  v 0 a 16 16 0 0,1 -16,16  h -16 a 16 16 0 0,1 -16,-16  v 0 a 16 16 0 0,1 16,-16 z" fill="#bfbfbf"></path><path class="blocklyOutlinePath" d=" M 191.1684042534288,84  h 16 a 16 16 0 0,1 16,16  v 0 a 16 16 0 0,1 -16,16  h -16 a 16 16 0 0,1 -16,-16  v 0 a 16 16 0 0,1 16,-16 z" fill="#bfbfbf"></path><path class="blocklyOutlinePath" d=" M 191.1684042534288,124  h 16 a 16 16 0 0,1 16,16  v 0 a 16 16 0 0,1 -16,16  h -16 a 16 16 0 0,1 -16,-16  v 0 a 16 16 0 0,1 16,-16 z" fill="#bfbfbf"></path><path class="blocklyOutlinePath" d=" M 191.1684042534288,164  h 16 a 16 16 0 0,1 16,16  v 0 a 16 16 0 0,1 -16,16  h -16 a 16 16 0 0,1 -16,-16  v 0 a 16 16 0 0,1 16,-16 z" fill="#bfbfbf"></path><path class="blocklyOutlinePath" d=" M 191.1684042534288,204  h 16 a 16 16 0 0,1 16,16  v 0 a 16 16 0 0,1 -16,16  h -16 a 16 16 0 0,1 -16,-16  v 0 a 16 16 0 0,1 16,-16 z" fill="#bfbfbf"></path></g></svg>