<svg  xmlns="http://www.w3.org/2000/svg" xmlns:xlink="http://www.w3.org/1999/xlink" width="265.0074462890625px" height="80px" style="font-family: 'IBM Plex Sans'; font-size: 13"><g data-id="vs?(yl=X{~mF-]vw`=?+" class="blocklyDraggable"><path class="blocklyPath" stroke="#bfbfbf" fill="#ffffff" d=" m 40,0  h 185.00742478468243 a 40 40 0 0,1 40,40  v 0 a 40 40 0 0,1 -40,40  V 80  h -185.00742478468243 a 40 40 0 0,1 -40,-40  v 0 a 40 40 0 0,1 40,-40 z
"></path><g transform="translate(22.56440422583731,11)"><text class="blocklyText" dominant-baseline="central" x="0" y="9">Closest point on the surface</text></g><g transform="translate(125.25846550513418,51)"><text class="blocklyText" dominant-baseline="central" x="0" y="9">from point</text></g><path class="blocklyOutlinePath" d=" M 210.44302055884512,4  h 16 a 16 16 0 0,1 16,16  v 0 a 16 16 0 0,1 -16,16  h -16 a 16 16 0 0,1 -16,-16  v 0 a 16 16 0 0,1 16,-16 z" fill="#bfbfbf"></path><path class="blocklyOutlinePath" d=" M 210.44302055884512,44  h 16 a 16 16 0 0,1 16,16  v 0 a 16 16 0 0,1 -16,16  h -16 a 16 16 0 0,1 -16,-16  v 0 a 16 16 0 0,1 16,-16 z" fill="#bfbfbf"></path></g></svg>