<svg  xmlns="http://www.w3.org/2000/svg" xmlns:xlink="http://www.w3.org/1999/xlink" width="245.47901916503906px" height="80px" style="font-family: 'IBM Plex Sans'; font-size: 13"><g data-id="PFLc_{_o5%FDX2SaZU;Z" class="blocklyDraggable"><path class="blocklyPath" stroke="#bfbfbf" fill="#ffffff" d=" m 40,0  h 165.47901291944805 a 40 40 0 0,1 40,40  v 0 a 40 40 0 0,1 -40,40  V 80  h -165.47901291944805 a 40 40 0 0,1 -40,-40  v 0 a 40 40 0 0,1 40,-40 z
"></path><g transform="translate(22.56440422583731,11)"><text class="blocklyText" dominant-baseline="central" x="0" y="9">Surface by lofting curves</text></g><g transform="translate(101.74439690161856,51)"><text class="blocklyText" dominant-baseline="central" x="0" y="9">of degree v</text></g><path class="blocklyOutlinePath" d=" M 190.91460869361075,4  h 16 a 16 16 0 0,1 16,16  v 0 a 16 16 0 0,1 -16,16  h -16 a 16 16 0 0,1 -16,-16  v 0 a 16 16 0 0,1 16,-16 z" fill="#bfbfbf"></path><path class="blocklyOutlinePath" d=" M 190.91460869361075,44  h 16 a 16 16 0 0,1 16,16  v 0 a 16 16 0 0,1 -16,16  h -16 a 16 16 0 0,1 -16,-16  v 0 a 16 16 0 0,1 16,-16 z" fill="#bfbfbf"></path></g></svg>