<svg  xmlns="http://www.w3.org/2000/svg" xmlns:xlink="http://www.w3.org/1999/xlink" width="221.87269592285156px" height="240px" style="font-family: 'IBM Plex Sans'; font-size: 13"><g data-id="{nnr|l/~Vlfe0P~0tFUR" class="blocklyDraggable"><path class="blocklyPath" stroke="#bfbfbf" fill="#ffffff" d=" m 48,0  h 125.87269717873261 a 48 48 0 0,1 48,48  v 144 a 48 48 0 0,1 -48,48  V 240  h -125.87269717873261 a 48 48 0 0,1 -48,-48  v -144 a 48 48 0 0,1 48,-48 z
"></path><g transform="translate(28.816673906749116,11)"><text class="blocklyText" dominant-baseline="central" x="0" y="9">Surface by knots u</text></g><g transform="translate(95.06662813038193,51)"><text class="blocklyText" dominant-baseline="central" x="0" y="9">knots v</text></g><g transform="translate(100.50525728077255,91)"><text class="blocklyText" dominant-baseline="central" x="0" y="9">points</text></g><g transform="translate(91.21425691456162,131)"><text class="blocklyText" dominant-baseline="central" x="0" y="9">weights</text></g><g transform="translate(85.26908174366318,171)"><text class="blocklyText" dominant-baseline="central" x="0" y="9">degree u</text></g><g transform="translate(86.42879548878037,211)"><text class="blocklyText" dominant-baseline="central" x="0" y="9">degree v</text></g><path class="blocklyOutlinePath" d=" M 161.0560232719835,4  h 16 a 16 16 0 0,1 16,16  v 0 a 16 16 0 0,1 -16,16  h -16 a 16 16 0 0,1 -16,-16  v 0 a 16 16 0 0,1 16,-16 z" fill="#bfbfbf"></path><path class="blocklyOutlinePath" d=" M 161.0560232719835,44  h 16 a 16 16 0 0,1 16,16  v 0 a 16 16 0 0,1 -16,16  h -16 a 16 16 0 0,1 -16,-16  v 0 a 16 16 0 0,1 16,-16 z" fill="#bfbfbf"></path><path class="blocklyOutlinePath" d=" M 161.0560232719835,84  h 16 a 16 16 0 0,1 16,16  v 0 a 16 16 0 0,1 -16,16  h -16 a 16 16 0 0,1 -16,-16  v 0 a 16 16 0 0,1 16,-16 z" fill="#bfbfbf"></path><path class="blocklyOutlinePath" d=" M 161.0560232719835,124  h 16 a 16 16 0 0,1 16,16  v 0 a 16 16 0 0,1 -16,16  h -16 a 16 16 0 0,1 -16,-16  v 0 a 16 16 0 0,1 16,-16 z" fill="#bfbfbf"></path><path class="blocklyOutlinePath" d=" M 161.0560232719835,164  h 16 a 16 16 0 0,1 16,16  v 0 a 16 16 0 0,1 -16,16  h -16 a 16 16 0 0,1 -16,-16  v 0 a 16 16 0 0,1 16,-16 z" fill="#bfbfbf"></path><path class="blocklyOutlinePath" d=" M 161.0560232719835,204  h 16 a 16 16 0 0,1 16,16  v 0 a 16 16 0 0,1 -16,16  h -16 a 16 16 0 0,1 -16,-16  v 0 a 16 16 0 0,1 16,-16 z" fill="#bfbfbf"></path></g></svg>