<svg  xmlns="http://www.w3.org/2000/svg" xmlns:xlink="http://www.w3.org/1999/xlink" width="252.1717071533203px" height="120px" style="font-family: 'IBM Plex Sans'; font-size: 13"><g data-id="9aWV~F8#ff?8oG06+E.{" class="blocklyDraggable"><path class="blocklyPath" stroke="#bfbfbf" fill="#ffffff" d=" m 48,0  h 156.17170840920136 a 48 48 0 0,1 48,48  v 24 a 48 48 0 0,1 -48,48  V 120  h -156.17170840920136 a 48 48 0 0,1 -48,-48  v -24 a 48 48 0 0,1 48,-48 z
"></path><g transform="translate(28.816673906749116,11)"><text class="blocklyText" dominant-baseline="central" x="0" y="9">Isocurve on the surface</text></g><g transform="translate(90.93431917042099,51)"><text class="blocklyText" dominant-baseline="central" x="0" y="9">at parameter</text></g><g transform="translate(71.85912385792099,91)"><text class="blocklyText" dominant-baseline="central" x="0" y="9">use v parameter</text></g><path class="blocklyOutlinePath" d=" M 191.35503450245224,4  h 16 a 16 16 0 0,1 16,16  v 0 a 16 16 0 0,1 -16,16  h -16 a 16 16 0 0,1 -16,-16  v 0 a 16 16 0 0,1 16,-16 z" fill="#bfbfbf"></path><path class="blocklyOutlinePath" d=" M 191.35503450245224,44  h 16 a 16 16 0 0,1 16,16  v 0 a 16 16 0 0,1 -16,16  h -16 a 16 16 0 0,1 -16,-16  v 0 a 16 16 0 0,1 16,-16 z" fill="#bfbfbf"></path><path class="blocklyOutlinePath" d=" M 191.35503450245224,84  h 16  l 16,16  l -16,16  h -16  l -16,-16  l 16,-16 z" fill="#bfbfbf"></path></g></svg>