<svg  xmlns="http://www.w3.org/2000/svg" xmlns:xlink="http://www.w3.org/1999/xlink" width="332.6980285644531px" height="200px" style="font-family: 'IBM Plex Sans'; font-size: 13"><g data-id="!E@j4^mXo.54NomBb47k" class="blocklyDraggable"><path class="blocklyPath" stroke="#bfbfbf" fill="#ffffff" d=" m 48,0  h 236.69802982033417 a 48 48 0 0,1 48,48  v 104 a 48 48 0 0,1 -48,48  V 200  h -236.69802982033417 a 48 48 0 0,1 -48,-48  v -104 a 48 48 0 0,1 48,-48 z
"></path><g transform="translate(28.816673906749116,11)"><text class="blocklyText" dominant-baseline="central" x="0" y="9">Subdivide to isocurves on the surface</text></g><g transform="translate(159.89022127003037,51)"><text class="blocklyText" dominant-baseline="central" x="0" y="9">segment count</text></g><g transform="translate(180.1518026909288,91)"><text class="blocklyText" dominant-baseline="central" x="0" y="9">include last</text></g><g transform="translate(178.65883699268662,131)"><text class="blocklyText" dominant-baseline="central" x="0" y="9">include first</text></g><g transform="translate(152.3854452690538,171)"><text class="blocklyText" dominant-baseline="central" x="0" y="9">use v parameter</text></g><path class="blocklyOutlinePath" d=" M 271.881355913585,4  h 16 a 16 16 0 0,1 16,16  v 0 a 16 16 0 0,1 -16,16  h -16 a 16 16 0 0,1 -16,-16  v 0 a 16 16 0 0,1 16,-16 z" fill="#bfbfbf"></path><path class="blocklyOutlinePath" d=" M 271.881355913585,124  h 16  l 16,16  l -16,16  h -16  l -16,-16  l 16,-16 z" fill="#bfbfbf"></path><path class="blocklyOutlinePath" d=" M 271.881355913585,44  h 16 a 16 16 0 0,1 16,16  v 0 a 16 16 0 0,1 -16,16  h -16 a 16 16 0 0,1 -16,-16  v 0 a 16 16 0 0,1 16,-16 z" fill="#bfbfbf"></path><path class="blocklyOutlinePath" d=" M 271.881355913585,84  h 16  l 16,16  l -16,16  h -16  l -16,-16  l 16,-16 z" fill="#bfbfbf"></path><path class="blocklyOutlinePath" d=" M 271.881355913585,164  h 16  l 16,16  l -16,16  h -16  l -16,-16  l 16,-16 z" fill="#bfbfbf"></path></g></svg>