<svg  xmlns="http://www.w3.org/2000/svg" xmlns:xlink="http://www.w3.org/1999/xlink" width="258.5301208496094px" height="120px" style="font-family: 'IBM Plex Sans'; font-size: 13"><g data-id="X/JCQI.9aFu#UqIF|b8M" class="blocklyDraggable"><path class="blocklyPath" stroke="#bfbfbf" fill="#ffffff" d=" m 48,0  h 162.53010684670136 a 48 48 0 0,1 48,48  v 24 a 48 48 0 0,1 -48,48  V 120  h -162.53010684670136 a 48 48 0 0,1 -48,-48  v -24 a 48 48 0 0,1 48,-48 z
"></path><g transform="translate(28.816673906749116,11)"><text class="blocklyText" dominant-baseline="central" x="0" y="9">Isocurves on the surface</text></g><g transform="translate(90.93431917042099,51)"><text class="blocklyText" dominant-baseline="central" x="0" y="9">at parameters</text></g><g transform="translate(78.21752229542099,91)"><text class="blocklyText" dominant-baseline="central" x="0" y="9">use v parameter</text></g><path class="blocklyOutlinePath" d=" M 197.71343293995224,4  h 16 a 16 16 0 0,1 16,16  v 0 a 16 16 0 0,1 -16,16  h -16 a 16 16 0 0,1 -16,-16  v 0 a 16 16 0 0,1 16,-16 z" fill="#bfbfbf"></path><path class="blocklyOutlinePath" d=" M 197.71343293995224,44  h 16 a 16 16 0 0,1 16,16  v 0 a 16 16 0 0,1 -16,16  h -16 a 16 16 0 0,1 -16,-16  v 0 a 16 16 0 0,1 16,-16 z" fill="#bfbfbf"></path><path class="blocklyOutlinePath" d=" M 197.71343293995224,84  h 16  l 16,16  l -16,16  h -16  l -16,-16  l 16,-16 z" fill="#bfbfbf"></path></g></svg>