<svg  xmlns="http://www.w3.org/2000/svg" xmlns:xlink="http://www.w3.org/1999/xlink" width="240.94789123535156px" height="120px" style="font-family: 'IBM Plex Sans'; font-size: 13"><g data-id="YnXYI_oz=)6CH8;V%6[W" class="blocklyDraggable"><path class="blocklyPath" stroke="#bfbfbf" fill="#ffffff" d=" m 48,0  h 144.9478924912326 a 48 48 0 0,1 48,48  v 24 a 48 48 0 0,1 -48,48  V 120  h -144.9478924912326 a 48 48 0 0,1 -48,-48  v -24 a 48 48 0 0,1 48,-48 z
"></path><g transform="translate(28.816673906749116,11)"><text class="blocklyText" dominant-baseline="central" x="0" y="9">Normal of the surface</text></g><g transform="translate(67.84685579151474,51)"><text class="blocklyText" dominant-baseline="central" x="0" y="9">at u coordinate</text></g><g transform="translate(58.34258333057724,91)"><text class="blocklyText" dominant-baseline="central" x="0" y="9">and v coordinate</text></g><path class="blocklyOutlinePath" d=" M 180.1312185844835,4  h 16 a 16 16 0 0,1 16,16  v 0 a 16 16 0 0,1 -16,16  h -16 a 16 16 0 0,1 -16,-16  v 0 a 16 16 0 0,1 16,-16 z" fill="#bfbfbf"></path><path class="blocklyOutlinePath" d=" M 180.1312185844835,44  h 16 a 16 16 0 0,1 16,16  v 0 a 16 16 0 0,1 -16,16  h -16 a 16 16 0 0,1 -16,-16  v 0 a 16 16 0 0,1 16,-16 z" fill="#bfbfbf"></path><path class="blocklyOutlinePath" d=" M 180.1312185844835,84  h 16 a 16 16 0 0,1 16,16  v 0 a 16 16 0 0,1 -16,16  h -16 a 16 16 0 0,1 -16,-16  v 0 a 16 16 0 0,1 16,-16 z" fill="#bfbfbf"></path></g></svg>