<svg  xmlns="http://www.w3.org/2000/svg" xmlns:xlink="http://www.w3.org/1999/xlink" width="231.12367248535156px" height="120px" style="font-family: 'IBM Plex Sans'; font-size: 13"><g data-id="n/.+{)xC6fZ$dd9/$G_C" class="blocklyDraggable"><path class="blocklyPath" stroke="#bfbfbf" fill="#ffffff" d=" m 48,0  h 135.1236737412326 a 48 48 0 0,1 48,48  v 24 a 48 48 0 0,1 -48,48  V 120  h -135.1236737412326 a 48 48 0 0,1 -48,-48  v -24 a 48 48 0 0,1 48,-48 z
"></path><g transform="translate(28.816673906749116,11)"><text class="blocklyText" dominant-baseline="central" x="0" y="9">Point on the surface</text></g><g transform="translate(58.02263704151474,51)"><text class="blocklyText" dominant-baseline="central" x="0" y="9">at u coordinate</text></g><g transform="translate(48.51836458057724,91)"><text class="blocklyText" dominant-baseline="central" x="0" y="9">and v coordinate</text></g><path class="blocklyOutlinePath" d=" M 170.3069998344835,4  h 16 a 16 16 0 0,1 16,16  v 0 a 16 16 0 0,1 -16,16  h -16 a 16 16 0 0,1 -16,-16  v 0 a 16 16 0 0,1 16,-16 z" fill="#bfbfbf"></path><path class="blocklyOutlinePath" d=" M 170.3069998344835,44  h 16 a 16 16 0 0,1 16,16  v 0 a 16 16 0 0,1 -16,16  h -16 a 16 16 0 0,1 -16,-16  v 0 a 16 16 0 0,1 16,-16 z" fill="#bfbfbf"></path><path class="blocklyOutlinePath" d=" M 170.3069998344835,84  h 16 a 16 16 0 0,1 16,16  v 0 a 16 16 0 0,1 -16,16  h -16 a 16 16 0 0,1 -16,-16  v 0 a 16 16 0 0,1 16,-16 z" fill="#bfbfbf"></path></g></svg>