<svg  xmlns="http://www.w3.org/2000/svg" xmlns:xlink="http://www.w3.org/1999/xlink" width="209.1958770751953px" height="120px" style="font-family: 'IBM Plex Sans'; font-size: 13"><g data-id="/rNALIx$$k4i~,K5NkqE" class="blocklyDraggable"><path class="blocklyPath" stroke="#bfbfbf" fill="#ffffff" d=" m 48,0  h 113.19587833107636 a 48 48 0 0,1 48,48  v 24 a 48 48 0 0,1 -48,48  V 120  h -113.19587833107636 a 48 48 0 0,1 -48,-48  v -24 a 48 48 0 0,1 48,-48 z
"></path><g transform="translate(28.816673906749116,11)"><text class="blocklyText" dominant-baseline="central" x="0" y="9">Split the surface</text></g><g transform="translate(47.95848909229599,51)"><text class="blocklyText" dominant-baseline="central" x="0" y="9">at parameter</text></g><g transform="translate(28.88329377979599,91)"><text class="blocklyText" dominant-baseline="central" x="0" y="9">use v parameter</text></g><path class="blocklyOutlinePath" d=" M 148.37920442432724,4  h 16 a 16 16 0 0,1 16,16  v 0 a 16 16 0 0,1 -16,16  h -16 a 16 16 0 0,1 -16,-16  v 0 a 16 16 0 0,1 16,-16 z" fill="#bfbfbf"></path><path class="blocklyOutlinePath" d=" M 148.37920442432724,44  h 16 a 16 16 0 0,1 16,16  v 0 a 16 16 0 0,1 -16,16  h -16 a 16 16 0 0,1 -16,-16  v 0 a 16 16 0 0,1 16,-16 z" fill="#bfbfbf"></path><path class="blocklyOutlinePath" d=" M 148.37920442432724,84  h 16  l 16,16  l -16,16  h -16  l -16,-16  l 16,-16 z" fill="#bfbfbf"></path></g></svg>