<svg  xmlns="http://www.w3.org/2000/svg" xmlns:xlink="http://www.w3.org/1999/xlink" width="267.08428955078125px" height="176px" style="font-family: 'IBM Plex Sans'; font-size: 13"><g data-id="F2dxKmlut.%jZ6m25xE;" class="blocklyDraggable"><path class="blocklyPath" stroke="#bfbfbf" fill="#ffffff" d=" m 0,0  m 0,4 a 4 4 0 0,1 4,-4  h 8  c 2,0  3,1  4,2  l 4,4  c 1,1  2,2  4,2  h 12  c 2,0  3,-1  4,-2  l 4,-4  c 1,-1  2,-2  4,-2  h 215.0843048095703 a 4 4 0 0,1 4,4  v 8  V 40  V 48  V 80  V 88  V 120  V 128  V 160  V 164  V 164 a 4 4 0 0,1 -4,4  h -215.0843048095703  c -2,0  -3,1  -4,2  l -4,4  c -1,1  -2,2  -4,2  h -12  c -2,0  -3,-1  -4,-2  l -4,-4  c -1,-1  -2,-2  -4,-2  h -8 a 4 4 0 0,1 -4,-4 z
"></path><g transform="translate(8,16.5)"><text class="blocklyText" dominant-baseline="central" x="0" y="7.5">Adjust arc rotate camera position</text></g><g transform="translate(168.66627502441406,56.5)"><text class="blocklyText" dominant-baseline="central" x="0" y="7.5">max z</text></g><g transform="translate(93.20529174804688,96.5)"><text class="blocklyText" dominant-baseline="central" x="0" y="7.5">panning sensibility</text></g><g transform="translate(110.5208740234375,136.5)"><text class="blocklyText" dominant-baseline="central" x="0" y="7.5">wheel precision</text></g><path class="blocklyOutlinePath" d=" M 227.0843048095703,8  h 16 a 16 16 0 0,1 16,16  v 0 a 16 16 0 0,1 -16,16  h -16 a 16 16 0 0,1 -16,-16  v 0 a 16 16 0 0,1 16,-16 z" fill="#bfbfbf"></path><path class="blocklyOutlinePath" d=" M 227.0843048095703,48  h 16 a 16 16 0 0,1 16,16  v 0 a 16 16 0 0,1 -16,16  h -16 a 16 16 0 0,1 -16,-16  v 0 a 16 16 0 0,1 16,-16 z" fill="#bfbfbf"></path><path class="blocklyOutlinePath" d=" M 227.0843048095703,88  h 16 a 16 16 0 0,1 16,16  v 0 a 16 16 0 0,1 -16,16  h -16 a 16 16 0 0,1 -16,-16  v 0 a 16 16 0 0,1 16,-16 z" fill="#bfbfbf"></path><path class="blocklyOutlinePath" d=" M 227.0843048095703,128  h 16 a 16 16 0 0,1 16,16  v 0 a 16 16 0 0,1 -16,16  h -16 a 16 16 0 0,1 -16,-16  v 0 a 16 16 0 0,1 16,-16 z" fill="#bfbfbf"></path></g></svg>