<svg  xmlns="http://www.w3.org/2000/svg" xmlns:xlink="http://www.w3.org/1999/xlink" width="332.4739074707031px" height="176px" style="font-family: 'IBM Plex Sans'; font-size: 13"><g data-id="d3,@71?d%oz[|u/AE13d" class="blocklyDraggable"><path class="blocklyPath" stroke="#bfbfbf" fill="#ffffff" d=" m 0,0  m 0,4 a 4 4 0 0,1 4,-4  h 8  c 2,0  3,1  4,2  l 4,4  c 1,1  2,2  4,2  h 12  c 2,0  3,-1  4,-2  l 4,-4  c 1,-1  2,-2  4,-2  h 280.47389221191406 a 4 4 0 0,1 4,4  v 8  V 40  V 48  V 80  V 88  V 120  V 128  V 160  V 164  V 164 a 4 4 0 0,1 -4,4  h -280.47389221191406  c -2,0  -3,1  -4,2  l -4,4  c -1,1  -2,2  -4,2  h -12  c -2,0  -3,-1  -4,-2  l -4,-4  c -1,-1  -2,-2  -4,-2  h -8 a 4 4 0 0,1 -4,-4 z
"></path><g transform="translate(8,15.5)"><image height="16px" width="16px" alt="" xlink:href="assets/blocks/async.svg"></image></g><g transform="translate(32,16.5)"><text class="blocklyText" dominant-baseline="central" x="0" y="7.5">Create instance and transform the mesh</text></g><g transform="translate(221.35240173339844,56.5)"><text class="blocklyText" dominant-baseline="central" x="0" y="7.5">position</text></g><g transform="translate(222.365478515625,96.5)"><text class="blocklyText" dominant-baseline="central" x="0" y="7.5">rotation</text></g><g transform="translate(227.16427612304688,136.5)"><text class="blocklyText" dominant-baseline="central" x="0" y="7.5">scaling</text></g><path class="blocklyOutlinePath" d=" M 292.47389221191406,8  h 16 a 16 16 0 0,1 16,16  v 0 a 16 16 0 0,1 -16,16  h -16 a 16 16 0 0,1 -16,-16  v 0 a 16 16 0 0,1 16,-16 z" fill="#bfbfbf"></path><path class="blocklyOutlinePath" d=" M 292.47389221191406,48  h 16 a 16 16 0 0,1 16,16  v 0 a 16 16 0 0,1 -16,16  h -16 a 16 16 0 0,1 -16,-16  v 0 a 16 16 0 0,1 16,-16 z" fill="#bfbfbf"></path><path class="blocklyOutlinePath" d=" M 292.47389221191406,88  h 16 a 16 16 0 0,1 16,16  v 0 a 16 16 0 0,1 -16,16  h -16 a 16 16 0 0,1 -16,-16  v 0 a 16 16 0 0,1 16,-16 z" fill="#bfbfbf"></path><path class="blocklyOutlinePath" d=" M 292.47389221191406,128  h 16 a 16 16 0 0,1 16,16  v 0 a 16 16 0 0,1 -16,16  h -16 a 16 16 0 0,1 -16,-16  v 0 a 16 16 0 0,1 16,-16 z" fill="#bfbfbf"></path></g></svg>