<svg  xmlns="http://www.w3.org/2000/svg" xmlns:xlink="http://www.w3.org/1999/xlink" width="238.07826232910156px" height="216px" style="font-family: 'IBM Plex Sans'; font-size: 13"><g data-id="08JNEI*19+ez6MoixHI0" class="blocklyDraggable"><path class="blocklyPath" stroke="#bfbfbf" fill="#ffffff" d=" m 0,0  m 0,4 a 4 4 0 0,1 4,-4  h 8  c 2,0  3,1  4,2  l 4,4  c 1,1  2,2  4,2  h 12  c 2,0  3,-1  4,-2  l 4,-4  c 1,-1  2,-2  4,-2  h 186.07826232910156 a 4 4 0 0,1 4,4  v 8  V 40  V 48  V 80  V 88  V 120  V 128  V 160  V 168  V 200  V 204  V 204 a 4 4 0 0,1 -4,4  h -186.07826232910156  c -2,0  -3,1  -4,2  l -4,4  c -1,1  -2,2  -4,2  h -12  c -2,0  -3,-1  -4,-2  l -4,-4  c -1,-1  -2,-2  -4,-2  h -8 a 4 4 0 0,1 -4,-4 z
"></path><g transform="translate(8,15)"><text class="blocklyText" dominant-baseline="central" x="0" y="9">Create point light at position</text></g><g transform="translate(93.75178527832031,55)"><text class="blocklyText" dominant-baseline="central" x="0" y="9">diffuse colour</text></g><g transform="translate(83.31437683105469,95)"><text class="blocklyText" dominant-baseline="central" x="0" y="9">specular colour</text></g><g transform="translate(123.67762756347656,135)"><text class="blocklyText" dominant-baseline="central" x="0" y="9">intensity</text></g><g transform="translate(137.5674591064453,175)"><text class="blocklyText" dominant-baseline="central" x="0" y="9">radius</text></g><path class="blocklyOutlinePath" d=" M 198.07826232910156,8  h 16 a 16 16 0 0,1 16,16  v 0 a 16 16 0 0,1 -16,16  h -16 a 16 16 0 0,1 -16,-16  v 0 a 16 16 0 0,1 16,-16 z" fill="#bfbfbf"></path><path class="blocklyOutlinePath" d=" M 198.07826232910156,48  h 16 a 16 16 0 0,1 16,16  v 0 a 16 16 0 0,1 -16,16  h -16 a 16 16 0 0,1 -16,-16  v 0 a 16 16 0 0,1 16,-16 z" fill="#bfbfbf"></path><path class="blocklyOutlinePath" d=" M 198.07826232910156,88  h 16 a 16 16 0 0,1 16,16  v 0 a 16 16 0 0,1 -16,16  h -16 a 16 16 0 0,1 -16,-16  v 0 a 16 16 0 0,1 16,-16 z" fill="#bfbfbf"></path><path class="blocklyOutlinePath" d=" M 198.07826232910156,128  h 16 a 16 16 0 0,1 16,16  v 0 a 16 16 0 0,1 -16,16  h -16 a 16 16 0 0,1 -16,-16  v 0 a 16 16 0 0,1 16,-16 z" fill="#bfbfbf"></path><path class="blocklyOutlinePath" d=" M 198.07826232910156,168  h 16 a 16 16 0 0,1 16,16  v 0 a 16 16 0 0,1 -16,16  h -16 a 16 16 0 0,1 -16,-16  v 0 a 16 16 0 0,1 16,-16 z" fill="#bfbfbf"></path></g></svg>