<svg  xmlns="http://www.w3.org/2000/svg" xmlns:xlink="http://www.w3.org/1999/xlink" width="325.646728515625px" height="120px" style="font-family: 'IBM Plex Sans'; font-size: 13"><g data-id=":n0QJ~@,?iLdjMnl,9wo" class="blocklyDraggable"><path class="blocklyPath" stroke="#bfbfbf" fill="#ffffff" d=" m 48,0  h 229.64672977150605 a 48 48 0 0,1 48,48  v 24 a 48 48 0 0,1 -48,48  V 120  h -229.64672977150605 a 48 48 0 0,1 -48,-48  v -24 a 48 48 0 0,1 48,-48 z
"></path><g transform="translate(28.816673906749116,11)"><text class="blocklyText" dominant-baseline="central" x="0" y="9">Number of hexagons in the grid on x</text></g><g transform="translate(234.44500032276474,51)"><text class="blocklyText" dominant-baseline="central" x="0" y="9">y</text></g><g transform="translate(151.17261567921005,91)"><text class="blocklyText" dominant-baseline="central" x="0" y="9">hexagon radius</text></g><path class="blocklyOutlinePath" d=" M 264.8300558647569,4  h 16 a 16 16 0 0,1 16,16  v 0 a 16 16 0 0,1 -16,16  h -16 a 16 16 0 0,1 -16,-16  v 0 a 16 16 0 0,1 16,-16 z" fill="#bfbfbf"></path><path class="blocklyOutlinePath" d=" M 264.8300558647569,44  h 16 a 16 16 0 0,1 16,16  v 0 a 16 16 0 0,1 -16,16  h -16 a 16 16 0 0,1 -16,-16  v 0 a 16 16 0 0,1 16,-16 z" fill="#bfbfbf"></path><path class="blocklyOutlinePath" d=" M 264.8300558647569,84  h 16 a 16 16 0 0,1 16,16  v 0 a 16 16 0 0,1 -16,16  h -16 a 16 16 0 0,1 -16,-16  v 0 a 16 16 0 0,1 16,-16 z" fill="#bfbfbf"></path></g></svg>