<svg  xmlns="http://www.w3.org/2000/svg" xmlns:xlink="http://www.w3.org/1999/xlink" width="200.87696838378906px" height="80px" style="font-family: 'IBM Plex Sans'; font-size: 13"><g data-id="UZA)yDE-L+]zjWzE:m$7" class="blocklyDraggable"><path class="blocklyPath" stroke="#bfbfbf" fill="#ffffff" d=" m 40,0  h 120.87696213819805 a 40 40 0 0,1 40,40  v 0 a 40 40 0 0,1 -40,40  V 80  h -120.87696213819805 a 40 40 0 0,1 -40,-40  v 0 a 40 40 0 0,1 40,-40 z
"></path><g transform="translate(26.096905446540436,11)"><text class="blocklyText" dominant-baseline="central" x="0" y="9">Point to multiply</text></g><g transform="translate(22.56440422583731,51)"><text class="blocklyText" dominant-baseline="central" x="0" y="9">amount of points</text></g><path class="blocklyOutlinePath" d=" M 146.31255791236075,4  h 16 a 16 16 0 0,1 16,16  v 0 a 16 16 0 0,1 -16,16  h -16 a 16 16 0 0,1 -16,-16  v 0 a 16 16 0 0,1 16,-16 z" fill="#bfbfbf"></path><path class="blocklyOutlinePath" d=" M 146.31255791236075,44  h 16 a 16 16 0 0,1 16,16  v 0 a 16 16 0 0,1 -16,16  h -16 a 16 16 0 0,1 -16,-16  v 0 a 16 16 0 0,1 16,-16 z" fill="#bfbfbf"></path></g></svg>