<svg  xmlns="http://www.w3.org/2000/svg" xmlns:xlink="http://www.w3.org/1999/xlink" width="213.38150024414062px" height="200px" style="font-family: 'IBM Plex Sans'; font-size: 13"><g data-id="decfD|F/S_u*.CjujH/]" class="blocklyDraggable"><path class="blocklyPath" stroke="#bfbfbf" fill="#ffffff" d=" m 48,0  h 117.38150150002167 a 48 48 0 0,1 48,48  v 104 a 48 48 0 0,1 -48,48  V 200  h -117.38150150002167 a 48 48 0 0,1 -48,-48  v -104 a 48 48 0 0,1 48,-48 z
"></path><g transform="translate(29.043297441905366,11)"><text class="blocklyText" dominant-baseline="central" x="0" y="9">Spiral with factor</text></g><g transform="translate(92.05403962940537,51)"><text class="blocklyText" dominant-baseline="central" x="0" y="9">radius</text></g><g transform="translate(28.816673906749116,91)"><text class="blocklyText" dominant-baseline="central" x="0" y="9">amount of points</text></g><g transform="translate(45.26584688038193,131)"><text class="blocklyText" dominant-baseline="central" x="0" y="9">phi parameter</text></g><g transform="translate(39.90720430225693,171)"><text class="blocklyText" dominant-baseline="central" x="0" y="9">widening index</text></g><path class="blocklyOutlinePath" d=" M 152.56482759327255,4  h 16 a 16 16 0 0,1 16,16  v 0 a 16 16 0 0,1 -16,16  h -16 a 16 16 0 0,1 -16,-16  v 0 a 16 16 0 0,1 16,-16 z" fill="#bfbfbf"></path><path class="blocklyOutlinePath" d=" M 152.56482759327255,44  h 16 a 16 16 0 0,1 16,16  v 0 a 16 16 0 0,1 -16,16  h -16 a 16 16 0 0,1 -16,-16  v 0 a 16 16 0 0,1 16,-16 z" fill="#bfbfbf"></path><path class="blocklyOutlinePath" d=" M 152.56482759327255,84  h 16 a 16 16 0 0,1 16,16  v 0 a 16 16 0 0,1 -16,16  h -16 a 16 16 0 0,1 -16,-16  v 0 a 16 16 0 0,1 16,-16 z" fill="#bfbfbf"></path><path class="blocklyOutlinePath" d=" M 152.56482759327255,124  h 16 a 16 16 0 0,1 16,16  v 0 a 16 16 0 0,1 -16,16  h -16 a 16 16 0 0,1 -16,-16  v 0 a 16 16 0 0,1 16,-16 z" fill="#bfbfbf"></path><path class="blocklyOutlinePath" d=" M 152.56482759327255,164  h 16 a 16 16 0 0,1 16,16  v 0 a 16 16 0 0,1 -16,16  h -16 a 16 16 0 0,1 -16,-16  v 0 a 16 16 0 0,1 16,-16 z" fill="#bfbfbf"></path></g></svg>