<svg  xmlns="http://www.w3.org/2000/svg" xmlns:xlink="http://www.w3.org/1999/xlink" width="174.93402099609375px" height="40px" style="font-family: 'IBM Plex Sans'; font-size: 13"><g data-id="}=g{@^9[TOow{S/*?iPs" class="blocklyDraggable blocklySelected"><path class="blocklyPath" stroke="#bfbfbf" fill="#ffffff" d=" m 20,0  h 134.93402099609375 a 20 20 0 0,1 20,20  v 0 a 20 20 0 0,1 -20,20  V 40  h -134.93402099609375 a 20 20 0 0,1 -20,-20  v 0 a 20 20 0 0,1 20,-20 z
"></path><g transform="translate(12,11)"><text class="blocklyText" dominant-baseline="central" x="0" y="9">Clone the surface</text></g><path class="blocklyOutlinePath" d=" M 138.93402099609375,4  h 16 a 16 16 0 0,1 16,16  v 0 a 16 16 0 0,1 -16,16  h -16 a 16 16 0 0,1 -16,-16  v 0 a 16 16 0 0,1 16,-16 z" fill="#bfbfbf"></path><path class="blocklyPath" stroke="#bfbfbf" fill="none" d=" m 20,0  h 134.93402099609375 a 20 20 0 0,1 20,20  v 0 a 20 20 0 0,1 -20,20  V 40  h -134.93402099609375 a 20 20 0 0,1 -20,-20  v 0 a 20 20 0 0,1 20,-20 z
" filter="url(#blocklySelectedGlowFilter34882233102591464)"></path></g></svg>