<svg  xmlns="http://www.w3.org/2000/svg" xmlns:xlink="http://www.w3.org/1999/xlink" width="287.37615966796875px" height="160px" style="font-family: 'IBM Plex Sans'; font-size: 13"><g data-id="*oCdD8C-Of{SM5.qs$L{" class="blocklyDraggable"><path class="blocklyPath" stroke="#bfbfbf" fill="#ffffff" d=" m 48,0  h 191.3761609238498 a 48 48 0 0,1 48,48  v 64 a 48 48 0 0,1 -48,48  V 160  h -191.3761609238498 a 48 48 0 0,1 -48,-48  v -64 a 48 48 0 0,1 48,-48 z
"></path><g transform="translate(28.816673906749116,11)"><text class="blocklyText" dominant-baseline="central" x="0" y="9">Surface with first corner point</text></g><g transform="translate(85.38906160206162,51)"><text class="blocklyText" dominant-baseline="central" x="0" y="9">second corner point</text></g><g transform="translate(100.41194978565537,91)"><text class="blocklyText" dominant-baseline="central" x="0" y="9">third corner point</text></g><g transform="translate(92.24068513721787,131)"><text class="blocklyText" dominant-baseline="central" x="0" y="9">fourth corner point</text></g><path class="blocklyOutlinePath" d=" M 226.55948701710068,4  h 16 a 16 16 0 0,1 16,16  v 0 a 16 16 0 0,1 -16,16  h -16 a 16 16 0 0,1 -16,-16  v 0 a 16 16 0 0,1 16,-16 z" fill="#bfbfbf"></path><path class="blocklyOutlinePath" d=" M 226.55948701710068,44  h 16 a 16 16 0 0,1 16,16  v 0 a 16 16 0 0,1 -16,16  h -16 a 16 16 0 0,1 -16,-16  v 0 a 16 16 0 0,1 16,-16 z" fill="#bfbfbf"></path><path class="blocklyOutlinePath" d=" M 226.55948701710068,84  h 16 a 16 16 0 0,1 16,16  v 0 a 16 16 0 0,1 -16,16  h -16 a 16 16 0 0,1 -16,-16  v 0 a 16 16 0 0,1 16,-16 z" fill="#bfbfbf"></path><path class="blocklyOutlinePath" d=" M 226.55948701710068,124  h 16 a 16 16 0 0,1 16,16  v 0 a 16 16 0 0,1 -16,16  h -16 a 16 16 0 0,1 -16,-16  v 0 a 16 16 0 0,1 16,-16 z" fill="#bfbfbf"></path></g></svg>