<svg  xmlns="http://www.w3.org/2000/svg" xmlns:xlink="http://www.w3.org/1999/xlink" width="211.15155029296875px" height="40px" style="font-family: 'IBM Plex Sans'; font-size: 13"><g data-id="DLRAOLI$+:[O8S74hU.1" class="blocklyDraggable"><path class="blocklyPath" stroke="#bfbfbf" fill="#ffffff" d=" m 20,0  h 171.15155029296875 a 20 20 0 0,1 20,20  v 0 a 20 20 0 0,1 -20,20  V 40  h -171.15155029296875 a 20 20 0 0,1 -20,-20  v 0 a 20 20 0 0,1 20,-20 z
"></path><g transform="translate(12,11)"><text class="blocklyText" dominant-baseline="central" x="0" y="9">V domain of the surface</text></g><path class="blocklyOutlinePath" d=" M 175.15155029296875,4  h 16 a 16 16 0 0,1 16,16  v 0 a 16 16 0 0,1 -16,16  h -16 a 16 16 0 0,1 -16,-16  v 0 a 16 16 0 0,1 16,-16 z" fill="#bfbfbf"></path></g></svg>