<svg  xmlns="http://www.w3.org/2000/svg" xmlns:xlink="http://www.w3.org/1999/xlink" width="217.4727783203125px" height="80px" style="font-family: 'IBM Plex Sans'; font-size: 13"><g data-id="GQA);czv$#swH.=7Y;0v" class="blocklyDraggable"><path class="blocklyPath" stroke="#bfbfbf" fill="#ffffff" d=" m 40,0  h 137.4727720747215 a 40 40 0 0,1 40,40  v 0 a 40 40 0 0,1 -40,40  V 80  h -137.4727720747215 a 40 40 0 0,1 -40,-40  v 0 a 40 40 0 0,1 40,-40 z
"></path><g transform="translate(22.56440422583731,11)"><text class="blocklyText" dominant-baseline="central" x="0" y="9">Path from XY points</text></g><g transform="translate(100.19814751197012,51)"><text class="blocklyText" dominant-baseline="central" x="0" y="9">closed</text></g><path class="blocklyOutlinePath" d=" M 162.90836784888418,4  h 16 a 16 16 0 0,1 16,16  v 0 a 16 16 0 0,1 -16,16  h -16 a 16 16 0 0,1 -16,-16  v 0 a 16 16 0 0,1 16,-16 z" fill="#bfbfbf"></path><path class="blocklyOutlinePath" d=" M 162.90836784888418,44  h 16  l 16,16  l -16,16  h -16  l -16,-16  l 16,-16 z" fill="#bfbfbf"></path></g></svg>