<svg  xmlns="http://www.w3.org/2000/svg" xmlns:xlink="http://www.w3.org/1999/xlink" width="288.0221252441406px" height="120px" style="font-family: 'IBM Plex Sans'; font-size: 13"><g data-id="~gR1wmO85hsy7Vy8W9^:" class="blocklyDraggable" style="display: block;"><path class="blocklyPath" stroke="#bfbfbf" fill="#ffffff" d=" m 48,0  h 192.0221112412326 a 48 48 0 0,1 48,48  v 24 a 48 48 0 0,1 -48,48  V 120  h -192.0221112412326 a 48 48 0 0,1 -48,-48  v -24 a 48 48 0 0,1 48,-48 z
"></path><g transform="translate(28.816673906749116,11.5)"><image height="16px" width="16px" alt="" xlink:href="assets/blocks/async.svg"></image></g><g transform="translate(52.816673906749116,11.5)"><text class="blocklyText" dominant-baseline="central" x="0" y="8.5">OCCT circle face of radius</text></g><g transform="translate(165.54827180713974,51.5)"><text class="blocklyText" dominant-baseline="central" x="0" y="8.5">center</text></g><g transform="translate(151.20523897022568,91.5)"><text class="blocklyText" dominant-baseline="central" x="0" y="8.5">direction</text></g><path class="blocklyOutlinePath" d=" M 227.2054373344835,4  h 16 a 16 16 0 0,1 16,16  v 0 a 16 16 0 0,1 -16,16  h -16 a 16 16 0 0,1 -16,-16  v 0 a 16 16 0 0,1 16,-16 z" fill="#bfbfbf"></path><path class="blocklyOutlinePath" d=" M 227.2054373344835,44  h 16 a 16 16 0 0,1 16,16  v 0 a 16 16 0 0,1 -16,16  h -16 a 16 16 0 0,1 -16,-16  v 0 a 16 16 0 0,1 16,-16 z" fill="#bfbfbf"></path><path class="blocklyOutlinePath" d=" M 227.2054373344835,84  h 16 a 16 16 0 0,1 16,16  v 0 a 16 16 0 0,1 -16,16  h -16 a 16 16 0 0,1 -16,-16  v 0 a 16 16 0 0,1 16,-16 z" fill="#bfbfbf"></path></g></svg>