<svg  xmlns="http://www.w3.org/2000/svg" xmlns:xlink="http://www.w3.org/1999/xlink" width="312.7092590332031px" height="120px" style="font-family: 'IBM Plex Sans'; font-size: 13"><g data-id="AYF3i6`(R?LbRNyUqH9r" class="blocklyDraggable"><path class="blocklyPath" stroke="#bfbfbf" fill="#ffffff" d=" m 48,0  h 216.70926028908417 a 48 48 0 0,1 48,48  v 24 a 48 48 0 0,1 -48,48  V 120  h -216.70926028908417 a 48 48 0 0,1 -48,-48  v -24 a 48 48 0 0,1 48,-48 z
"></path><g transform="translate(28.816673906749116,11.5)"><image height="16px" width="16px" alt="" xlink:href="assets/blocks/async.svg"></image></g><g transform="translate(52.816673906749116,11.5)"><text class="blocklyText" dominant-baseline="central" x="0" y="8.5">OCCT face from OCCT surface</text></g><g transform="translate(202.67227998585068,51.5)"><text class="blocklyText" dominant-baseline="central" x="0" y="8.5">wire</text></g><g transform="translate(192.66147676319443,91.5)"><text class="blocklyText" dominant-baseline="central" x="0" y="8.5">inside</text></g><path class="blocklyOutlinePath" d=" M 251.89258638233505,4  h 16 a 16 16 0 0,1 16,16  v 0 a 16 16 0 0,1 -16,16  h -16 a 16 16 0 0,1 -16,-16  v 0 a 16 16 0 0,1 16,-16 z" fill="#bfbfbf"></path><path class="blocklyOutlinePath" d=" M 251.89258638233505,44  h 16 a 16 16 0 0,1 16,16  v 0 a 16 16 0 0,1 -16,16  h -16 a 16 16 0 0,1 -16,-16  v 0 a 16 16 0 0,1 16,-16 z" fill="#bfbfbf"></path><path class="blocklyOutlinePath" d=" M 251.89258638233505,84  h 16  l 16,16  l -16,16  h -16  l -16,-16  l 16,-16 z" fill="#bfbfbf"></path></g></svg>