<svg  xmlns="http://www.w3.org/2000/svg" xmlns:xlink="http://www.w3.org/1999/xlink" width="201.6767578125px" height="80px" style="font-family: 'IBM Plex Sans'; font-size: 13"><g data-id="8*e7nr@~l0uCT%AwaF/~" class="blocklyDraggable"><path class="blocklyPath" stroke="#bfbfbf" fill="#ffffff" d=" m 40,0  h 121.67675156690899 a 40 40 0 0,1 40,40  v 0 a 40 40 0 0,1 -40,40  V 80  h -121.67675156690899 a 40 40 0 0,1 -40,-40  v 0 a 40 40 0 0,1 40,-40 z
"></path><g transform="translate(22.56440422583731,11)"><text class="blocklyText" dominant-baseline="central" x="0" y="9">Intersect surface</text></g><g transform="translate(51.117184377204495,51)"><text class="blocklyText" dominant-baseline="central" x="0" y="9">with surface</text></g><path class="blocklyOutlinePath" d=" M 147.11234734107168,4  h 16 a 16 16 0 0,1 16,16  v 0 a 16 16 0 0,1 -16,16  h -16 a 16 16 0 0,1 -16,-16  v 0 a 16 16 0 0,1 16,-16 z" fill="#bfbfbf"></path><path class="blocklyOutlinePath" d=" M 147.11234734107168,44  h 16 a 16 16 0 0,1 16,16  v 0 a 16 16 0 0,1 -16,16  h -16 a 16 16 0 0,1 -16,-16  v 0 a 16 16 0 0,1 16,-16 z" fill="#bfbfbf"></path></g></svg>