<svg  xmlns="http://www.w3.org/2000/svg" xmlns:xlink="http://www.w3.org/1999/xlink" width="221.89930725097656px" height="120px" style="font-family: 'IBM Plex Sans'; font-size: 13"><g data-id="@~Q%{5QpG6Gi*ZS#X4Kj" class="blocklyDraggable"><path class="blocklyPath" stroke="#bfbfbf" fill="#ffffff" d=" m 48,0  h 125.89930850685761 a 48 48 0 0,1 48,48  v 24 a 48 48 0 0,1 -48,48  V 120  h -125.89930850685761 a 48 48 0 0,1 -48,-48  v -24 a 48 48 0 0,1 48,-48 z
"></path><g transform="translate(28.816673906749116,11)"><text class="blocklyText" dominant-baseline="central" x="0" y="9">Ellipse with center</text></g><g transform="translate(104.1176230034288,51)"><text class="blocklyText" dominant-baseline="central" x="0" y="9">x axis</text></g><g transform="translate(104.30423799366318,91)"><text class="blocklyText" dominant-baseline="central" x="0" y="9">y axis</text></g><path class="blocklyOutlinePath" d=" M 161.0826346001085,4  h 16 a 16 16 0 0,1 16,16  v 0 a 16 16 0 0,1 -16,16  h -16 a 16 16 0 0,1 -16,-16  v 0 a 16 16 0 0,1 16,-16 z" fill="#bfbfbf"></path><path class="blocklyOutlinePath" d=" M 161.0826346001085,44  h 16 a 16 16 0 0,1 16,16  v 0 a 16 16 0 0,1 -16,16  h -16 a 16 16 0 0,1 -16,-16  v 0 a 16 16 0 0,1 16,-16 z" fill="#bfbfbf"></path><path class="blocklyOutlinePath" d=" M 161.0826346001085,84  h 16 a 16 16 0 0,1 16,16  v 0 a 16 16 0 0,1 -16,16  h -16 a 16 16 0 0,1 -16,-16  v 0 a 16 16 0 0,1 16,-16 z" fill="#bfbfbf"></path></g></svg>