<svg  xmlns="http://www.w3.org/2000/svg" xmlns:xlink="http://www.w3.org/1999/xlink" width="243.4005584716797px" height="200px" style="font-family: 'IBM Plex Sans'; font-size: 13"><g data-id="R:OjKyz~${,U|H1V1d;@" class="blocklyDraggable"><path class="blocklyPath" stroke="#bfbfbf" fill="#ffffff" d=" m 48,0  h 147.40055972756073 a 48 48 0 0,1 48,48  v 104 a 48 48 0 0,1 -48,48  V 200  h -147.40055972756073 a 48 48 0 0,1 -48,-48  v -104 a 48 48 0 0,1 48,-48 z
"></path><g transform="translate(28.816673906749116,11)"><text class="blocklyText" dominant-baseline="central" x="0" y="9">Ellipse arc with center</text></g><g transform="translate(125.61887422413193,51)"><text class="blocklyText" dominant-baseline="central" x="0" y="9">x axis</text></g><g transform="translate(125.8054892143663,91)"><text class="blocklyText" dominant-baseline="central" x="0" y="9">y axis</text></g><g transform="translate(66.5803915581163,131)"><text class="blocklyText" dominant-baseline="central" x="0" y="9">minimum angle</text></g><g transform="translate(63.674461992686616,171)"><text class="blocklyText" dominant-baseline="central" x="0" y="9">maximum angle</text></g><path class="blocklyOutlinePath" d=" M 182.58388582081162,4  h 16 a 16 16 0 0,1 16,16  v 0 a 16 16 0 0,1 -16,16  h -16 a 16 16 0 0,1 -16,-16  v 0 a 16 16 0 0,1 16,-16 z" fill="#bfbfbf"></path><path class="blocklyOutlinePath" d=" M 182.58388582081162,44  h 16 a 16 16 0 0,1 16,16  v 0 a 16 16 0 0,1 -16,16  h -16 a 16 16 0 0,1 -16,-16  v 0 a 16 16 0 0,1 16,-16 z" fill="#bfbfbf"></path><path class="blocklyOutlinePath" d=" M 182.58388582081162,84  h 16 a 16 16 0 0,1 16,16  v 0 a 16 16 0 0,1 -16,16  h -16 a 16 16 0 0,1 -16,-16  v 0 a 16 16 0 0,1 16,-16 z" fill="#bfbfbf"></path><path class="blocklyOutlinePath" d=" M 182.58388582081162,124  h 16 a 16 16 0 0,1 16,16  v 0 a 16 16 0 0,1 -16,16  h -16 a 16 16 0 0,1 -16,-16  v 0 a 16 16 0 0,1 16,-16 z" fill="#bfbfbf"></path><path class="blocklyOutlinePath" d=" M 182.58388582081162,164  h 16 a 16 16 0 0,1 16,16  v 0 a 16 16 0 0,1 -16,16  h -16 a 16 16 0 0,1 -16,-16  v 0 a 16 16 0 0,1 16,-16 z" fill="#bfbfbf"></path></g></svg>