<svg  xmlns="http://www.w3.org/2000/svg" xmlns:xlink="http://www.w3.org/1999/xlink" width="201.62448120117188px" height="120px" style="font-family: 'IBM Plex Sans'; font-size: 13"><g data-id="zr0xaAX-=-l0cdz:/LAu" class="blocklyDraggable"><path class="blocklyPath" stroke="#bfbfbf" fill="#ffffff" d=" m 48,0  h 105.62448245705292 a 48 48 0 0,1 48,48  v 24 a 48 48 0 0,1 -48,48  V 120  h -105.62448245705292 a 48 48 0 0,1 -48,-48  v -24 a 48 48 0 0,1 48,-48 z
"></path><g transform="translate(41.50682893604599,11)"><text class="blocklyText" dominant-baseline="central" x="0" y="9">Expand solid</text></g><g transform="translate(86.97535005421005,51)"><text class="blocklyText" dominant-baseline="central" x="0" y="9">delta</text></g><g transform="translate(28.816673906749116,91)"><text class="blocklyText" dominant-baseline="central" x="0" y="9">segment count</text></g><path class="blocklyOutlinePath" d=" M 140.8078085503038,4  h 16 a 16 16 0 0,1 16,16  v 0 a 16 16 0 0,1 -16,16  h -16 a 16 16 0 0,1 -16,-16  v 0 a 16 16 0 0,1 16,-16 z" fill="#bfbfbf"></path><path class="blocklyOutlinePath" d=" M 140.8078085503038,44  h 16 a 16 16 0 0,1 16,16  v 0 a 16 16 0 0,1 -16,16  h -16 a 16 16 0 0,1 -16,-16  v 0 a 16 16 0 0,1 16,-16 z" fill="#bfbfbf"></path><path class="blocklyOutlinePath" d=" M 140.8078085503038,84  h 16 a 16 16 0 0,1 16,16  v 0 a 16 16 0 0,1 -16,16  h -16 a 16 16 0 0,1 -16,-16  v 0 a 16 16 0 0,1 16,-16 z" fill="#bfbfbf"></path></g></svg>