<svg  xmlns="http://www.w3.org/2000/svg" xmlns:xlink="http://www.w3.org/1999/xlink" width="278.28509521484375px" height="160px" style="font-family: 'IBM Plex Sans'; font-size: 13"><g data-id="i[}Z$lh}#:Jt1N?.5$gm" class="blocklyDraggable"><path class="blocklyPath" stroke="#bfbfbf" fill="#ffffff" d=" m 48,0  h 182.28508121193573 a 48 48 0 0,1 48,48  v 64 a 48 48 0 0,1 -48,48  V 160  h -182.28508121193573 a 48 48 0 0,1 -48,-48  v -64 a 48 48 0 0,1 48,-48 z
"></path><g transform="translate(28.816673906749116,11)"><text class="blocklyText" dominant-baseline="central" x="0" y="9">Offset to polygons the paths</text></g><g transform="translate(163.63594880909287,51)"><text class="blocklyText" dominant-baseline="central" x="0" y="9">delta</text></g><g transform="translate(105.47727266163193,91)"><text class="blocklyText" dominant-baseline="central" x="0" y="9">segment count</text></g><g transform="translate(126.43199983448349,131)"><text class="blocklyText" dominant-baseline="central" x="0" y="9">corner type</text></g><path class="blocklyOutlinePath" d=" M 217.46840730518662,4  h 16 a 16 16 0 0,1 16,16  v 0 a 16 16 0 0,1 -16,16  h -16 a 16 16 0 0,1 -16,-16  v 0 a 16 16 0 0,1 16,-16 z" fill="#bfbfbf"></path><path class="blocklyOutlinePath" d=" M 217.46840730518662,44  h 16 a 16 16 0 0,1 16,16  v 0 a 16 16 0 0,1 -16,16  h -16 a 16 16 0 0,1 -16,-16  v 0 a 16 16 0 0,1 16,-16 z" fill="#bfbfbf"></path><path class="blocklyOutlinePath" d=" M 217.46840730518662,84  h 16 a 16 16 0 0,1 16,16  v 0 a 16 16 0 0,1 -16,16  h -16 a 16 16 0 0,1 -16,-16  v 0 a 16 16 0 0,1 16,-16 z" fill="#bfbfbf"></path><path class="blocklyOutlinePath" d=" M 217.46840730518662,124  h 16 a 16 16 0 0,1 16,16  v 0 a 16 16 0 0,1 -16,16  h -16 a 16 16 0 0,1 -16,-16  v 0 a 16 16 0 0,1 16,-16 z" fill="#bfbfbf"></path></g></svg>