<svg  xmlns="http://www.w3.org/2000/svg" xmlns:xlink="http://www.w3.org/1999/xlink" width="210.04513549804688px" height="40px" style="font-family: 'IBM Plex Sans'; font-size: 13"><g data-id="FN,lf{*G5.P=*h]9^JQV" class="blocklyDraggable"><path class="blocklyPath" stroke="#bfbfbf" fill="#ffffff" d=" m 20,0  h 170.04513549804688 a 20 20 0 0,1 20,20  v 0 a 20 20 0 0,1 -20,20  V 40  h -170.04513549804688 a 20 20 0 0,1 -20,-20  v 0 a 20 20 0 0,1 20,-20 z
"></path><g transform="translate(12,11)"><text class="blocklyText" dominant-baseline="central" x="0" y="9">Count points in polyline</text></g><path class="blocklyOutlinePath" d=" M 174.04513549804688,4  h 16 a 16 16 0 0,1 16,16  v 0 a 16 16 0 0,1 -16,16  h -16 a 16 16 0 0,1 -16,-16  v 0 a 16 16 0 0,1 16,-16 z" fill="#bfbfbf"></path></g></svg>