<svg  xmlns="http://www.w3.org/2000/svg" xmlns:xlink="http://www.w3.org/1999/xlink" width="198.5280303955078px" height="40px" style="font-family: 'IBM Plex Sans'; font-size: 13"><g data-id="!:W}A$(kvQ=d[m.?d!9z" class="blocklyDraggable"><path class="blocklyPath" stroke="#bfbfbf" fill="#ffffff" d=" m 20,0  h 158.5280303955078 a 20 20 0 0,1 20,20  v 0 a 20 20 0 0,1 -20,20  V 40  h -158.5280303955078 a 20 20 0 0,1 -20,-20  v 0 a 20 20 0 0,1 20,-20 z
"></path><g transform="translate(12,11)"><text class="blocklyText" dominant-baseline="central" x="0" y="9">Length of the polyline</text></g><path class="blocklyOutlinePath" d=" M 162.5280303955078,4  h 16 a 16 16 0 0,1 16,16  v 0 a 16 16 0 0,1 -16,16  h -16 a 16 16 0 0,1 -16,-16  v 0 a 16 16 0 0,1 16,-16 z" fill="#bfbfbf"></path></g></svg>