<svg  xmlns="http://www.w3.org/2000/svg" xmlns:xlink="http://www.w3.org/1999/xlink" width="268.9430847167969px" height="136px" style="font-family: 'IBM Plex Sans'; font-size: 13"><g data-id="+Y#7*0B)C]j$G#1t*I6l" class="blocklyDraggable"><path class="blocklyPath" stroke="#bfbfbf" fill="#ffffff" d=" m 0,0  m 0,4 a 4 4 0 0,1 4,-4  h 8  c 2,0  3,1  4,2  l 4,4  c 1,1  2,2  4,2  h 12  c 2,0  3,-1  4,-2  l 4,-4  c 1,-1  2,-2  4,-2  h 216.94308471679688 a 4 4 0 0,1 4,4  v 8  V 40  V 48  V 80  V 88  V 120  V 124  V 124 a 4 4 0 0,1 -4,4  h -216.94308471679688  c -2,0  -3,1  -4,2  l -4,4  c -1,1  -2,2  -4,2  h -12  c -2,0  -3,-1  -4,-2  l -4,-4  c -1,-1  -2,-2  -4,-2  h -8 a 4 4 0 0,1 -4,-4 z
"></path><g transform="translate(8,15.5)"><image height="16px" width="16px" alt="" xlink:href="assets/blocks/async.svg"></image></g><g transform="translate(32,15.5)"><text class="blocklyText" dominant-baseline="central" x="0" y="8.5">Save OCCT shape to STEP file</text></g><g transform="translate(150.3168487548828,55.5)"><text class="blocklyText" dominant-baseline="central" x="0" y="8.5">file name</text></g><g transform="translate(135.2406768798828,95.5)"><text class="blocklyText" dominant-baseline="central" x="0" y="8.5">adjust y to z</text></g><path class="blocklyOutlinePath" d=" M 228.94308471679688,8  h 16 a 16 16 0 0,1 16,16  v 0 a 16 16 0 0,1 -16,16  h -16 a 16 16 0 0,1 -16,-16  v 0 a 16 16 0 0,1 16,-16 z" fill="#bfbfbf"></path><path class="blocklyOutlinePath" d=" M 228.94308471679688,48  h 16 a 16 16 0 0,1 16,16  v 0 a 16 16 0 0,1 -16,16  h -16 a 16 16 0 0,1 -16,-16  v 0 a 16 16 0 0,1 16,-16 z" fill="#bfbfbf"></path><path class="blocklyOutlinePath" d=" M 228.94308471679688,88  h 16  l 16,16  l -16,16  h -16  l -16,-16  l 16,-16 z" fill="#bfbfbf"></path></g></svg>