<svg  xmlns="http://www.w3.org/2000/svg" xmlns:xlink="http://www.w3.org/1999/xlink" width="259.82537841796875px" height="176px" style="font-family: 'IBM Plex Sans'; font-size: 13"><g data-id="-)h12(Wf2$L]bpb-JT7l" class="blocklyDraggable"><path class="blocklyPath" stroke="#bfbfbf" fill="#ffffff" d=" m 0,0  m 0,4 a 4 4 0 0,1 4,-4  h 8  c 2,0  3,1  4,2  l 4,4  c 1,1  2,2  4,2  h 12  c 2,0  3,-1  4,-2  l 4,-4  c 1,-1  2,-2  4,-2  h 207.8253936767578 a 4 4 0 0,1 4,4  v 8  V 40  V 48  V 80  V 88  V 120  V 128  V 160  V 164  V 164 a 4 4 0 0,1 -4,4  h -207.8253936767578  c -2,0  -3,1  -4,2  l -4,4  c -1,1  -2,2  -4,2  h -12  c -2,0  -3,-1  -4,-2  l -4,-4  c -1,-1  -2,-2  -4,-2  h -8 a 4 4 0 0,1 -4,-4 z
"></path><g transform="translate(8,15.5)"><image height="16px" width="16px" alt="" xlink:href="assets/blocks/async.svg"></image></g><g transform="translate(32,15.5)"><text class="blocklyText" dominant-baseline="central" x="0" y="8.5">Save OCCT shape to STL file</text></g><g transform="translate(141.19915771484375,55.5)"><text class="blocklyText" dominant-baseline="central" x="0" y="8.5">file name</text></g><g transform="translate(88.2125244140625,95.5)"><text class="blocklyText" dominant-baseline="central" x="0" y="8.5">meshing precision</text></g><g transform="translate(126.12298583984375,135.5)"><text class="blocklyText" dominant-baseline="central" x="0" y="8.5">adjust y to z</text></g><path class="blocklyOutlinePath" d=" M 219.8253936767578,8  h 16 a 16 16 0 0,1 16,16  v 0 a 16 16 0 0,1 -16,16  h -16 a 16 16 0 0,1 -16,-16  v 0 a 16 16 0 0,1 16,-16 z" fill="#bfbfbf"></path><path class="blocklyOutlinePath" d=" M 219.8253936767578,48  h 16 a 16 16 0 0,1 16,16  v 0 a 16 16 0 0,1 -16,16  h -16 a 16 16 0 0,1 -16,-16  v 0 a 16 16 0 0,1 16,-16 z" fill="#bfbfbf"></path><path class="blocklyOutlinePath" d=" M 219.8253936767578,88  h 16 a 16 16 0 0,1 16,16  v 0 a 16 16 0 0,1 -16,16  h -16 a 16 16 0 0,1 -16,-16  v 0 a 16 16 0 0,1 16,-16 z" fill="#bfbfbf"></path><path class="blocklyOutlinePath" d=" M 219.8253936767578,128  h 16  l 16,16  l -16,16  h -16  l -16,-16  l 16,-16 z" fill="#bfbfbf"></path></g></svg>