<svg  xmlns="http://www.w3.org/2000/svg" xmlns:xlink="http://www.w3.org/1999/xlink" width="243.81280517578125px" height="80px" style="font-family: 'IBM Plex Sans'; font-size: 13"><g data-id="_J2jNUS|:u^;?Q[knp=G" class="blocklyDraggable" style="display: block;"><path class="blocklyPath" stroke="#bfbfbf" fill="#ffffff" d=" m 40,0  h 163.81279893019024 a 40 40 0 0,1 40,40  v 0 a 40 40 0 0,1 -40,40  V 80  h -163.81279893019024 a 40 40 0 0,1 -40,-40  v 0 a 40 40 0 0,1 40,-40 z
"></path><g transform="translate(22.56440422583731,11)"><text class="blocklyText" dominant-baseline="central" x="0" y="9">Spherical surface center</text></g><g transform="translate(128.73760674048575,51)"><text class="blocklyText" dominant-baseline="central" x="0" y="9">radius</text></g><path class="blocklyOutlinePath" d=" M 189.24839470435293,4  h 16 a 16 16 0 0,1 16,16  v 0 a 16 16 0 0,1 -16,16  h -16 a 16 16 0 0,1 -16,-16  v 0 a 16 16 0 0,1 16,-16 z" fill="#bfbfbf"></path><path class="blocklyOutlinePath" d=" M 189.24839470435293,44  h 16 a 16 16 0 0,1 16,16  v 0 a 16 16 0 0,1 -16,16  h -16 a 16 16 0 0,1 -16,-16  v 0 a 16 16 0 0,1 16,-16 z" fill="#bfbfbf"></path></g></svg>