<svg  xmlns="http://www.w3.org/2000/svg" xmlns:xlink="http://www.w3.org/1999/xlink" width="258.94232177734375px" height="80px" style="font-family: 'IBM Plex Sans'; font-size: 13"><g data-id="*Ka_gEKZ8pMny`eR$G,v" class="blocklyDraggable"><path class="blocklyPath" stroke="#bfbfbf" fill="#ffffff" d=" m 40,0  h 178.94230027296368 a 40 40 0 0,1 40,40  v 0 a 40 40 0 0,1 -40,40  V 80  h -178.94230027296368 a 40 40 0 0,1 -40,-40  v 0 a 40 40 0 0,1 40,-40 z
"></path><g transform="translate(22.56440422583731,11)"><text class="blocklyText" dominant-baseline="central" x="0" y="9">Cubes on the center points</text></g><g transform="translate(157.70362541724356,51)"><text class="blocklyText" dominant-baseline="central" x="0" y="9">size</text></g><path class="blocklyOutlinePath" d=" M 204.37789604712637,4  h 16 a 16 16 0 0,1 16,16  v 0 a 16 16 0 0,1 -16,16  h -16 a 16 16 0 0,1 -16,-16  v 0 a 16 16 0 0,1 16,-16 z" fill="#bfbfbf"></path><path class="blocklyOutlinePath" d=" M 204.37789604712637,44  h 16 a 16 16 0 0,1 16,16  v 0 a 16 16 0 0,1 -16,16  h -16 a 16 16 0 0,1 -16,-16  v 0 a 16 16 0 0,1 16,-16 z" fill="#bfbfbf"></path></g></svg>