<svg  xmlns="http://www.w3.org/2000/svg" xmlns:xlink="http://www.w3.org/1999/xlink" width="282.43072509765625px" height="160px" style="font-family: 'IBM Plex Sans'; font-size: 13"><g data-id="Jk?n8-*@)4~zsb2*s77+" class="blocklyDraggable"><path class="blocklyPath" stroke="#bfbfbf" fill="#ffffff" d=" m 48,0  h 186.4307263535373 a 48 48 0 0,1 48,48  v 64 a 48 48 0 0,1 -48,48  V 160  h -186.4307263535373 a 48 48 0 0,1 -48,-48  v -64 a 48 48 0 0,1 48,-48 z
"></path><g transform="translate(28.816673906749116,11)"><text class="blocklyText" dominant-baseline="central" x="0" y="9">Cuboids on the center points</text></g><g transform="translate(164.72902742237412,51)"><text class="blocklyText" dominant-baseline="central" x="0" y="9">width</text></g><g transform="translate(160.33013215870224,91)"><text class="blocklyText" dominant-baseline="central" x="0" y="9">length</text></g><g transform="translate(160.6100546440538,131)"><text class="blocklyText" dominant-baseline="central" x="0" y="9">height</text></g><path class="blocklyOutlinePath" d=" M 221.61405244678818,4  h 16 a 16 16 0 0,1 16,16  v 0 a 16 16 0 0,1 -16,16  h -16 a 16 16 0 0,1 -16,-16  v 0 a 16 16 0 0,1 16,-16 z" fill="#bfbfbf"></path><path class="blocklyOutlinePath" d=" M 221.61405244678818,44  h 16 a 16 16 0 0,1 16,16  v 0 a 16 16 0 0,1 -16,16  h -16 a 16 16 0 0,1 -16,-16  v 0 a 16 16 0 0,1 16,-16 z" fill="#bfbfbf"></path><path class="blocklyOutlinePath" d=" M 221.61405244678818,84  h 16 a 16 16 0 0,1 16,16  v 0 a 16 16 0 0,1 -16,16  h -16 a 16 16 0 0,1 -16,-16  v 0 a 16 16 0 0,1 16,-16 z" fill="#bfbfbf"></path><path class="blocklyOutlinePath" d=" M 221.61405244678818,124  h 16 a 16 16 0 0,1 16,16  v 0 a 16 16 0 0,1 -16,16  h -16 a 16 16 0 0,1 -16,-16  v 0 a 16 16 0 0,1 16,-16 z" fill="#bfbfbf"></path></g></svg>