<svg  xmlns="http://www.w3.org/2000/svg" xmlns:xlink="http://www.w3.org/1999/xlink" width="269.71392822265625px" height="160px" style="font-family: 'IBM Plex Sans'; font-size: 13"><g data-id="hl%0$G3DcdHLPANSvXy7" class="blocklyDraggable"><path class="blocklyPath" stroke="#bfbfbf" fill="#ffffff" d=" m 48,0  h 173.7139294785373 a 48 48 0 0,1 48,48  v 64 a 48 48 0 0,1 -48,48  V 160  h -173.7139294785373 a 48 48 0 0,1 -48,-48  v -64 a 48 48 0 0,1 48,-48 z
"></path><g transform="translate(28.816673906749116,11)"><text class="blocklyText" dominant-baseline="central" x="0" y="9">Cuboid on the center point</text></g><g transform="translate(152.01223054737412,51)"><text class="blocklyText" dominant-baseline="central" x="0" y="9">width</text></g><g transform="translate(147.61333528370224,91)"><text class="blocklyText" dominant-baseline="central" x="0" y="9">length</text></g><g transform="translate(147.8932577690538,131)"><text class="blocklyText" dominant-baseline="central" x="0" y="9">height</text></g><path class="blocklyOutlinePath" d=" M 208.89725557178818,4  h 16 a 16 16 0 0,1 16,16  v 0 a 16 16 0 0,1 -16,16  h -16 a 16 16 0 0,1 -16,-16  v 0 a 16 16 0 0,1 16,-16 z" fill="#bfbfbf"></path><path class="blocklyOutlinePath" d=" M 208.89725557178818,44  h 16 a 16 16 0 0,1 16,16  v 0 a 16 16 0 0,1 -16,16  h -16 a 16 16 0 0,1 -16,-16  v 0 a 16 16 0 0,1 16,-16 z" fill="#bfbfbf"></path><path class="blocklyOutlinePath" d=" M 208.89725557178818,84  h 16 a 16 16 0 0,1 16,16  v 0 a 16 16 0 0,1 -16,16  h -16 a 16 16 0 0,1 -16,-16  v 0 a 16 16 0 0,1 16,-16 z" fill="#bfbfbf"></path><path class="blocklyOutlinePath" d=" M 208.89725557178818,124  h 16 a 16 16 0 0,1 16,16  v 0 a 16 16 0 0,1 -16,16  h -16 a 16 16 0 0,1 -16,-16  v 0 a 16 16 0 0,1 16,-16 z" fill="#bfbfbf"></path></g></svg>