<svg  xmlns="http://www.w3.org/2000/svg" xmlns:xlink="http://www.w3.org/1999/xlink" width="209.99790954589844px" height="96px" style="font-family: 'IBM Plex Sans'; font-size: 13"><g data-id="2iLvK?L5?Ph/G`pnS;gf" class="blocklyDraggable"><path class="blocklyPath" stroke="#bfbfbf" fill="#ffffff" d=" m 0,0  m 0,4 a 4 4 0 0,1 4,-4  h 8  c 2,0  3,1  4,2  l 4,4  c 1,1  2,2  4,2  h 12  c 2,0  3,-1  4,-2  l 4,-4  c 1,-1  2,-2  4,-2  h 157.99790954589844 a 4 4 0 0,1 4,4  v 8  V 40  V 48  V 80  V 84  V 84 a 4 4 0 0,1 -4,4  h -157.99790954589844  c -2,0  -3,1  -4,2  l -4,4  c -1,1  -2,2  -4,2  h -12  c -2,0  -3,-1  -4,-2  l -4,-4  c -1,-1  -2,-2  -4,-2  h -8 a 4 4 0 0,1 -4,-4 z
"></path><g transform="translate(8,15.5)"><image height="16px" width="16px" alt="" xlink:href="assets/blocks/async.svg"></image></g><g transform="translate(32,16)"><text class="blocklyText" dominant-baseline="central" x="0" y="8">Export mesh to STL</text></g><g transform="translate(91.37167358398438,56)"><text class="blocklyText" dominant-baseline="central" x="0" y="8">file name</text></g><path class="blocklyOutlinePath" d=" M 169.99790954589844,8  h 16 a 16 16 0 0,1 16,16  v 0 a 16 16 0 0,1 -16,16  h -16 a 16 16 0 0,1 -16,-16  v 0 a 16 16 0 0,1 16,-16 z" fill="#bfbfbf"></path><path class="blocklyOutlinePath" d=" M 169.99790954589844,48  h 16 a 16 16 0 0,1 16,16  v 0 a 16 16 0 0,1 -16,16  h -16 a 16 16 0 0,1 -16,-16  v 0 a 16 16 0 0,1 16,-16 z" fill="#bfbfbf"></path></g></svg>