<svg  xmlns="http://www.w3.org/2000/svg" xmlns:xlink="http://www.w3.org/1999/xlink" width="188.15733337402344px" height="56px" style="font-family: 'IBM Plex Sans'; font-size: 13"><g data-id="%Q6VP*.-H|Pq:w:eKju9" class="blocklyDraggable"><path class="blocklyPath" stroke="#bfbfbf" fill="#ffffff" d=" m 0,0  m 0,4 a 4 4 0 0,1 4,-4  h 8  c 2,0  3,1  4,2  l 4,4  c 1,1  2,2  4,2  h 12  c 2,0  3,-1  4,-2  l 4,-4  c 1,-1  2,-2  4,-2  h 136.15733337402344 a 4 4 0 0,1 4,4  v 8  V 40  V 44  V 44 a 4 4 0 0,1 -4,4  h -136.15733337402344  c -2,0  -3,1  -4,2  l -4,4  c -1,1  -2,2  -4,2  h -12  c -2,0  -3,-1  -4,-2  l -4,-4  c -1,-1  -2,-2  -4,-2  h -8 a 4 4 0 0,1 -4,-4 z
"></path><g transform="translate(8,16)"><text class="blocklyText" dominant-baseline="central" x="0" y="8">Export scene to .glb</text></g><path class="blocklyOutlinePath" d=" M 148.15733337402344,8  h 16 a 16 16 0 0,1 16,16  v 0 a 16 16 0 0,1 -16,16  h -16 a 16 16 0 0,1 -16,-16  v 0 a 16 16 0 0,1 16,-16 z" fill="#bfbfbf"></path></g></svg>