<svg  xmlns="http://www.w3.org/2000/svg" xmlns:xlink="http://www.w3.org/1999/xlink" width="276.6322021484375px" height="160px" style="font-family: 'IBM Plex Sans'; font-size: 13"><g data-id="e!c#0SBi-`v1D?]x$:FH" class="blocklyDraggable"><path class="blocklyPath" stroke="#bfbfbf" fill="#ffffff" d=" m 48,0  h 180.63218814552948 a 48 48 0 0,1 48,48  v 64 a 48 48 0 0,1 -48,48  V 160  h -180.63218814552948 a 48 48 0 0,1 -48,-48  v -64 a 48 48 0 0,1 48,-48 z
"></path><g transform="translate(28.816673906749116,11)"><text class="blocklyText" dominant-baseline="central" x="0" y="9">Cylinder on the center point</text></g><g transform="translate(154.811516436046,51)"><text class="blocklyText" dominant-baseline="central" x="0" y="9">height</text></g><g transform="translate(155.30472627491318,91)"><text class="blocklyText" dominant-baseline="central" x="0" y="9">radius</text></g><g transform="translate(103.82437959522568,131)"><text class="blocklyText" dominant-baseline="central" x="0" y="9">segment count</text></g><path class="blocklyOutlinePath" d=" M 215.81551423878037,4  h 16 a 16 16 0 0,1 16,16  v 0 a 16 16 0 0,1 -16,16  h -16 a 16 16 0 0,1 -16,-16  v 0 a 16 16 0 0,1 16,-16 z" fill="#bfbfbf"></path><path class="blocklyOutlinePath" d=" M 215.81551423878037,44  h 16 a 16 16 0 0,1 16,16  v 0 a 16 16 0 0,1 -16,16  h -16 a 16 16 0 0,1 -16,-16  v 0 a 16 16 0 0,1 16,-16 z" fill="#bfbfbf"></path><path class="blocklyOutlinePath" d=" M 215.81551423878037,84  h 16 a 16 16 0 0,1 16,16  v 0 a 16 16 0 0,1 -16,16  h -16 a 16 16 0 0,1 -16,-16  v 0 a 16 16 0 0,1 16,-16 z" fill="#bfbfbf"></path><path class="blocklyOutlinePath" d=" M 215.81551423878037,124  h 16 a 16 16 0 0,1 16,16  v 0 a 16 16 0 0,1 -16,16  h -16 a 16 16 0 0,1 -16,-16  v 0 a 16 16 0 0,1 16,-16 z" fill="#bfbfbf"></path></g></svg>