<svg  xmlns="http://www.w3.org/2000/svg" xmlns:xlink="http://www.w3.org/1999/xlink" width="326.7528991699219px" height="120px" style="font-family: 'IBM Plex Sans'; font-size: 13"><g data-id="#TlN?PdU7.l4?{U?FTNi" class="blocklyDraggable"><path class="blocklyPath" stroke="#bfbfbf" fill="#ffffff" d=" m 48,0  h 230.75288516701386 a 48 48 0 0,1 48,48  v 24 a 48 48 0 0,1 -48,48  V 120  h -230.75288516701386 a 48 48 0 0,1 -48,-48  v -24 a 48 48 0 0,1 48,-48 z
"></path><g transform="translate(28.816673906749116,11)"><text class="blocklyText" dominant-baseline="central" x="0" y="9">Geodesic sphere on the center point</text></g><g transform="translate(205.42542329639755,51)"><text class="blocklyText" dominant-baseline="central" x="0" y="9">radius</text></g><g transform="translate(182.9644247612413,91)"><text class="blocklyText" dominant-baseline="central" x="0" y="9">frequency</text></g><path class="blocklyOutlinePath" d=" M 265.9362112602647,4  h 16 a 16 16 0 0,1 16,16  v 0 a 16 16 0 0,1 -16,16  h -16 a 16 16 0 0,1 -16,-16  v 0 a 16 16 0 0,1 16,-16 z" fill="#bfbfbf"></path><path class="blocklyOutlinePath" d=" M 265.9362112602647,44  h 16 a 16 16 0 0,1 16,16  v 0 a 16 16 0 0,1 -16,16  h -16 a 16 16 0 0,1 -16,-16  v 0 a 16 16 0 0,1 16,-16 z" fill="#bfbfbf"></path><path class="blocklyOutlinePath" d=" M 265.9362112602647,84  h 16 a 16 16 0 0,1 16,16  v 0 a 16 16 0 0,1 -16,16  h -16 a 16 16 0 0,1 -16,-16  v 0 a 16 16 0 0,1 16,-16 z" fill="#bfbfbf"></path></g></svg>