<svg  xmlns="http://www.w3.org/2000/svg" xmlns:xlink="http://www.w3.org/1999/xlink" width="324.40679931640625px" height="240px" style="font-family: 'IBM Plex Sans'; font-size: 13"><g data-id="xdmgpb$6:W?QAko*2z0-" class="blocklyDraggable"><path class="blocklyPath" stroke="#bfbfbf" fill="#ffffff" d=" m 48,0  h 228.40678531349823 a 48 48 0 0,1 48,48  v 144 a 48 48 0 0,1 -48,48  V 240  h -228.40678531349823 a 48 48 0 0,1 -48,-48  v -144 a 48 48 0 0,1 48,-48 z
"></path><g transform="translate(28.816673906749116,11)"><text class="blocklyText" dominant-baseline="central" x="0" y="9">Rounded cuboid on the center point</text></g><g transform="translate(206.70508638233505,51)"><text class="blocklyText" dominant-baseline="central" x="0" y="9">width</text></g><g transform="translate(202.30619111866318,91)"><text class="blocklyText" dominant-baseline="central" x="0" y="9">length</text></g><g transform="translate(202.58611360401474,131)"><text class="blocklyText" dominant-baseline="central" x="0" y="9">height</text></g><g transform="translate(165.22220674366318,171)"><text class="blocklyText" dominant-baseline="central" x="0" y="9">round radius</text></g><g transform="translate(151.59897676319443,211)"><text class="blocklyText" dominant-baseline="central" x="0" y="9">segment count</text></g><path class="blocklyOutlinePath" d=" M 263.5901114067491,4  h 16 a 16 16 0 0,1 16,16  v 0 a 16 16 0 0,1 -16,16  h -16 a 16 16 0 0,1 -16,-16  v 0 a 16 16 0 0,1 16,-16 z" fill="#bfbfbf"></path><path class="blocklyOutlinePath" d=" M 263.5901114067491,44  h 16 a 16 16 0 0,1 16,16  v 0 a 16 16 0 0,1 -16,16  h -16 a 16 16 0 0,1 -16,-16  v 0 a 16 16 0 0,1 16,-16 z" fill="#bfbfbf"></path><path class="blocklyOutlinePath" d=" M 263.5901114067491,84  h 16 a 16 16 0 0,1 16,16  v 0 a 16 16 0 0,1 -16,16  h -16 a 16 16 0 0,1 -16,-16  v 0 a 16 16 0 0,1 16,-16 z" fill="#bfbfbf"></path><path class="blocklyOutlinePath" d=" M 263.5901114067491,124  h 16 a 16 16 0 0,1 16,16  v 0 a 16 16 0 0,1 -16,16  h -16 a 16 16 0 0,1 -16,-16  v 0 a 16 16 0 0,1 16,-16 z" fill="#bfbfbf"></path><path class="blocklyOutlinePath" d=" M 263.5901114067491,164  h 16 a 16 16 0 0,1 16,16  v 0 a 16 16 0 0,1 -16,16  h -16 a 16 16 0 0,1 -16,-16  v 0 a 16 16 0 0,1 16,-16 z" fill="#bfbfbf"></path><path class="blocklyOutlinePath" d=" M 263.5901114067491,204  h 16 a 16 16 0 0,1 16,16  v 0 a 16 16 0 0,1 -16,16  h -16 a 16 16 0 0,1 -16,-16  v 0 a 16 16 0 0,1 16,-16 z" fill="#bfbfbf"></path></g></svg>