<svg  xmlns="http://www.w3.org/2000/svg" xmlns:xlink="http://www.w3.org/1999/xlink" width="155.7344207763672px" height="80px" style="font-family: 'IBM Plex Sans'; font-size: 13"><g data-id="eZ,g[^,}-2=fLWYlg;YJ" class="blocklyDraggable"><path class="blocklyPath" stroke="#bfbfbf" fill="#ffffff" d=" m 40,0  h 75.73441453077618 a 40 40 0 0,1 40,40  v 0 a 40 40 0 0,1 -40,40  V 80  h -75.73441453077618 a 40 40 0 0,1 -40,-40  v 0 a 40 40 0 0,1 40,-40 z
"></path><g transform="translate(22.56440422583731,11.5)"><image height="16px" width="16px" alt="" xlink:href="assets/blocks/async.svg"></image></g><g transform="translate(46.56440422583731,11)"><text class="blocklyText" dominant-baseline="central" x="0" y="9">Draw</text></g><g transform="translate(33.34109184790762,51)"><text class="blocklyText" dominant-baseline="central" x="0" y="9">options</text></g><path class="blocklyOutlinePath" d=" M 101.17001030493887,4  h 16 a 16 16 0 0,1 16,16  v 0 a 16 16 0 0,1 -16,16  h -16 a 16 16 0 0,1 -16,-16  v 0 a 16 16 0 0,1 16,-16 z" fill="#bfbfbf"></path><path class="blocklyOutlinePath" d=" M 101.17001030493887,44  h 16 a 16 16 0 0,1 16,16  v 0 a 16 16 0 0,1 -16,16  h -16 a 16 16 0 0,1 -16,-16  v 0 a 16 16 0 0,1 16,-16 z" fill="#bfbfbf"></path></g></svg>