<svg  xmlns="http://www.w3.org/2000/svg" xmlns:xlink="http://www.w3.org/1999/xlink" width="299.38848876953125px" height="560px" style="font-family: 'IBM Plex Sans'; font-size: 13"><g data-id="}^1MBr^p]#wH{E*l{m1N" class="blocklyDraggable"><path class="blocklyPath" stroke="#bfbfbf" fill="#ffffff" d=" m 48,0  h 203.3884900254123 a 48 48 0 0,1 48,48  v 464 a 48 48 0 0,1 -48,48  V 560  h -203.3884900254123 a 48 48 0 0,1 -48,-48  v -464 a 48 48 0 0,1 48,-48 z
"></path><g transform="translate(28.816673906749116,12.5)"><text class="blocklyText" dominant-baseline="central" x="0" y="7.5">OCCT options /</text></g><g transform="translate(124.7544638237413,12.5)"><text class="blocklyText" dominant-baseline="central" x="0" y="7.5">mesh precision</text></g><g transform="translate(150.80124727100693,52.5)"><text class="blocklyText" dominant-baseline="central" x="0" y="7.5">draw faces</text></g><g transform="translate(143.776360186046,92.5)"><text class="blocklyText" dominant-baseline="central" x="0" y="7.5">face opacity</text></g><g transform="translate(149.58821931690537,132.5)"><text class="blocklyText" dominant-baseline="central" x="0" y="7.5">face colour</text></g><g transform="translate(108.50527253956162,172.5)"><text class="blocklyText" dominant-baseline="central" x="0" y="7.5">draw face indexes</text></g><g transform="translate(114.33045259327255,212.5)"><text class="blocklyText" dominant-baseline="central" x="0" y="7.5">face index height</text></g><g transform="translate(114.38378206104599,252.5)"><text class="blocklyText" dominant-baseline="central" x="0" y="7.5">face index colour</text></g><g transform="translate(146.5889822563585,292.5)"><text class="blocklyText" dominant-baseline="central" x="0" y="7.5">draw edges</text></g><g transform="translate(139.56409517139755,332.5)"><text class="blocklyText" dominant-baseline="central" x="0" y="7.5">edge opacity</text></g><g transform="translate(145.37595430225693,372.5)"><text class="blocklyText" dominant-baseline="central" x="0" y="7.5">edge colour</text></g><g transform="translate(149.4415976128038,412.5)"><text class="blocklyText" dominant-baseline="central" x="0" y="7.5">edge width</text></g><g transform="translate(104.29300752491318,452.5)"><text class="blocklyText" dominant-baseline="central" x="0" y="7.5">draw edge indexes</text></g><g transform="translate(110.11818757862412,492.5)"><text class="blocklyText" dominant-baseline="central" x="0" y="7.5">edge index height</text></g><g transform="translate(110.17151704639755,532.5)"><text class="blocklyText" dominant-baseline="central" x="0" y="7.5">edge index colour</text></g><path class="blocklyOutlinePath" d=" M 238.57181611866318,4  h 16 a 16 16 0 0,1 16,16  v 0 a 16 16 0 0,1 -16,16  h -16 a 16 16 0 0,1 -16,-16  v 0 a 16 16 0 0,1 16,-16 z" fill="#bfbfbf"></path><path class="blocklyOutlinePath" d=" M 238.57181611866318,44  h 16  l 16,16  l -16,16  h -16  l -16,-16  l 16,-16 z" fill="#bfbfbf"></path><path class="blocklyOutlinePath" d=" M 238.57181611866318,84  h 16 a 16 16 0 0,1 16,16  v 0 a 16 16 0 0,1 -16,16  h -16 a 16 16 0 0,1 -16,-16  v 0 a 16 16 0 0,1 16,-16 z" fill="#bfbfbf"></path><path class="blocklyOutlinePath" d=" M 238.57181611866318,124  h 16 a 16 16 0 0,1 16,16  v 0 a 16 16 0 0,1 -16,16  h -16 a 16 16 0 0,1 -16,-16  v 0 a 16 16 0 0,1 16,-16 z" fill="#bfbfbf"></path><path class="blocklyOutlinePath" d=" M 238.57181611866318,164  h 16  l 16,16  l -16,16  h -16  l -16,-16  l 16,-16 z" fill="#bfbfbf"></path><path class="blocklyOutlinePath" d=" M 238.57181611866318,204  h 16 a 16 16 0 0,1 16,16  v 0 a 16 16 0 0,1 -16,16  h -16 a 16 16 0 0,1 -16,-16  v 0 a 16 16 0 0,1 16,-16 z" fill="#bfbfbf"></path><path class="blocklyOutlinePath" d=" M 238.57181611866318,244  h 16 a 16 16 0 0,1 16,16  v 0 a 16 16 0 0,1 -16,16  h -16 a 16 16 0 0,1 -16,-16  v 0 a 16 16 0 0,1 16,-16 z" fill="#bfbfbf"></path><path class="blocklyOutlinePath" d=" M 238.57181611866318,284  h 16  l 16,16  l -16,16  h -16  l -16,-16  l 16,-16 z" fill="#bfbfbf"></path><path class="blocklyOutlinePath" d=" M 238.57181611866318,324  h 16 a 16 16 0 0,1 16,16  v 0 a 16 16 0 0,1 -16,16  h -16 a 16 16 0 0,1 -16,-16  v 0 a 16 16 0 0,1 16,-16 z" fill="#bfbfbf"></path><path class="blocklyOutlinePath" d=" M 238.57181611866318,364  h 16 a 16 16 0 0,1 16,16  v 0 a 16 16 0 0,1 -16,16  h -16 a 16 16 0 0,1 -16,-16  v 0 a 16 16 0 0,1 16,-16 z" fill="#bfbfbf"></path><path class="blocklyOutlinePath" d=" M 238.57181611866318,404  h 16 a 16 16 0 0,1 16,16  v 0 a 16 16 0 0,1 -16,16  h -16 a 16 16 0 0,1 -16,-16  v 0 a 16 16 0 0,1 16,-16 z" fill="#bfbfbf"></path><path class="blocklyOutlinePath" d=" M 238.57181611866318,444  h 16  l 16,16  l -16,16  h -16  l -16,-16  l 16,-16 z" fill="#bfbfbf"></path><path class="blocklyOutlinePath" d=" M 238.57181611866318,484  h 16 a 16 16 0 0,1 16,16  v 0 a 16 16 0 0,1 -16,16  h -16 a 16 16 0 0,1 -16,-16  v 0 a 16 16 0 0,1 16,-16 z" fill="#bfbfbf"></path><path class="blocklyOutlinePath" d=" M 238.57181611866318,524  h 16 a 16 16 0 0,1 16,16  v 0 a 16 16 0 0,1 -16,16  h -16 a 16 16 0 0,1 -16,-16  v 0 a 16 16 0 0,1 16,-16 z" fill="#bfbfbf"></path></g></svg>