<svg  xmlns="http://www.w3.org/2000/svg" xmlns:xlink="http://www.w3.org/1999/xlink" width="194.22865295410156px" height="616px" style="font-family: 'IBM Plex Sans'; font-size: 13"><g data-id="u}y:1wRH.O9SP_)vc3No" class="blocklyDraggable"><path class="blocklyPath" stroke="#bfbfbf" fill="#ffffff" d=" m 0,0  m 0,4 a 4 4 0 0,1 4,-4  h 8  c 2,0  3,1  4,2  l 4,4  c 1,1  2,2  4,2  h 12  c 2,0  3,-1  4,-2  l 4,-4  c 1,-1  2,-2  4,-2  h 142.22865295410156 a 4 4 0 0,1 4,4  v 8  V 40  V 48  V 80  V 88  V 120  V 128  V 160  V 168  V 200  V 208  V 240  V 248  V 280  V 288  V 320  V 328  V 360  V 368  V 400  V 408  V 440  V 448  V 480  V 488  V 520  V 528  V 560  V 568  V 600  V 604  V 604 a 4 4 0 0,1 -4,4  h -142.22865295410156  c -2,0  -3,1  -4,2  l -4,4  c -1,1  -2,2  -4,2  h -12  c -2,0  -3,-1  -4,-2  l -4,-4  c -1,-1  -2,-2  -4,-2  h -8 a 4 4 0 0,1 -4,-4 z
"></path><g transform="translate(8,15.5)"><image height="16px" width="16px" alt="" xlink:href="assets/blocks/async.svg"></image></g><g transform="translate(32,16.5)"><text class="blocklyText" dominant-baseline="central" x="0" y="7.5">Draw OCC shape</text></g><g transform="translate(40.41120910644531,56.5)"><text class="blocklyText" dominant-baseline="central" x="0" y="7.5">mesh precision</text></g><g transform="translate(66.45802307128906,96.5)"><text class="blocklyText" dominant-baseline="central" x="0" y="7.5">draw faces</text></g><g transform="translate(59.43310546875,136.5)"><text class="blocklyText" dominant-baseline="central" x="0" y="7.5">face opacity</text></g><g transform="translate(65.24496459960938,176.5)"><text class="blocklyText" dominant-baseline="central" x="0" y="7.5">face colour</text></g><g transform="translate(24.1619873046875,216.5)"><text class="blocklyText" dominant-baseline="central" x="0" y="7.5">draw face indexes</text></g><g transform="translate(29.9871826171875,256.5)"><text class="blocklyText" dominant-baseline="central" x="0" y="7.5">face index height</text></g><g transform="translate(30.040481567382812,296.5)"><text class="blocklyText" dominant-baseline="central" x="0" y="7.5">face index colour</text></g><g transform="translate(62.24574279785156,336.5)"><text class="blocklyText" dominant-baseline="central" x="0" y="7.5">draw edges</text></g><g transform="translate(55.2208251953125,376.5)"><text class="blocklyText" dominant-baseline="central" x="0" y="7.5">edge opacity</text></g><g transform="translate(61.032684326171875,416.5)"><text class="blocklyText" dominant-baseline="central" x="0" y="7.5">edge colour</text></g><g transform="translate(65.09834289550781,456.5)"><text class="blocklyText" dominant-baseline="central" x="0" y="7.5">edge width</text></g><g transform="translate(19.94970703125,496.5)"><text class="blocklyText" dominant-baseline="central" x="0" y="7.5">draw edge indexes</text></g><g transform="translate(25.77490234375,536.5)"><text class="blocklyText" dominant-baseline="central" x="0" y="7.5">edge index height</text></g><g transform="translate(25.828201293945312,576.5)"><text class="blocklyText" dominant-baseline="central" x="0" y="7.5">edge index colour</text></g><path class="blocklyOutlinePath" d=" M 154.22865295410156,8  h 16 a 16 16 0 0,1 16,16  v 0 a 16 16 0 0,1 -16,16  h -16 a 16 16 0 0,1 -16,-16  v 0 a 16 16 0 0,1 16,-16 z" fill="#bfbfbf"></path><path class="blocklyOutlinePath" d=" M 154.22865295410156,48  h 16 a 16 16 0 0,1 16,16  v 0 a 16 16 0 0,1 -16,16  h -16 a 16 16 0 0,1 -16,-16  v 0 a 16 16 0 0,1 16,-16 z" fill="#bfbfbf"></path><path class="blocklyOutlinePath" d=" M 154.22865295410156,88  h 16  l 16,16  l -16,16  h -16  l -16,-16  l 16,-16 z" fill="#bfbfbf"></path><path class="blocklyOutlinePath" d=" M 154.22865295410156,128  h 16 a 16 16 0 0,1 16,16  v 0 a 16 16 0 0,1 -16,16  h -16 a 16 16 0 0,1 -16,-16  v 0 a 16 16 0 0,1 16,-16 z" fill="#bfbfbf"></path><path class="blocklyOutlinePath" d=" M 154.22865295410156,168  h 16 a 16 16 0 0,1 16,16  v 0 a 16 16 0 0,1 -16,16  h -16 a 16 16 0 0,1 -16,-16  v 0 a 16 16 0 0,1 16,-16 z" fill="#bfbfbf"></path><path class="blocklyOutlinePath" d=" M 154.22865295410156,248  h 16 a 16 16 0 0,1 16,16  v 0 a 16 16 0 0,1 -16,16  h -16 a 16 16 0 0,1 -16,-16  v 0 a 16 16 0 0,1 16,-16 z" fill="#bfbfbf"></path><path class="blocklyOutlinePath" d=" M 154.22865295410156,208  h 16  l 16,16  l -16,16  h -16  l -16,-16  l 16,-16 z" fill="#bfbfbf"></path><path class="blocklyOutlinePath" d=" M 154.22865295410156,288  h 16 a 16 16 0 0,1 16,16  v 0 a 16 16 0 0,1 -16,16  h -16 a 16 16 0 0,1 -16,-16  v 0 a 16 16 0 0,1 16,-16 z" fill="#bfbfbf"></path><path class="blocklyOutlinePath" d=" M 154.22865295410156,328  h 16  l 16,16  l -16,16  h -16  l -16,-16  l 16,-16 z" fill="#bfbfbf"></path><path class="blocklyOutlinePath" d=" M 154.22865295410156,368  h 16 a 16 16 0 0,1 16,16  v 0 a 16 16 0 0,1 -16,16  h -16 a 16 16 0 0,1 -16,-16  v 0 a 16 16 0 0,1 16,-16 z" fill="#bfbfbf"></path><path class="blocklyOutlinePath" d=" M 154.22865295410156,408  h 16 a 16 16 0 0,1 16,16  v 0 a 16 16 0 0,1 -16,16  h -16 a 16 16 0 0,1 -16,-16  v 0 a 16 16 0 0,1 16,-16 z" fill="#bfbfbf"></path><path class="blocklyOutlinePath" d=" M 154.22865295410156,448  h 16 a 16 16 0 0,1 16,16  v 0 a 16 16 0 0,1 -16,16  h -16 a 16 16 0 0,1 -16,-16  v 0 a 16 16 0 0,1 16,-16 z" fill="#bfbfbf"></path><path class="blocklyOutlinePath" d=" M 154.22865295410156,488  h 16  l 16,16  l -16,16  h -16  l -16,-16  l 16,-16 z" fill="#bfbfbf"></path><path class="blocklyOutlinePath" d=" M 154.22865295410156,528  h 16 a 16 16 0 0,1 16,16  v 0 a 16 16 0 0,1 -16,16  h -16 a 16 16 0 0,1 -16,-16  v 0 a 16 16 0 0,1 16,-16 z" fill="#bfbfbf"></path><path class="blocklyOutlinePath" d=" M 154.22865295410156,568  h 16 a 16 16 0 0,1 16,16  v 0 a 16 16 0 0,1 -16,16  h -16 a 16 16 0 0,1 -16,-16  v 0 a 16 16 0 0,1 16,-16 z" fill="#bfbfbf"></path></g></svg>