<svg  xmlns="http://www.w3.org/2000/svg" xmlns:xlink="http://www.w3.org/1999/xlink" width="332.9564208984375px" height="80px" style="font-family: 'IBM Plex Sans'; font-size: 13"><g data-id="91Q6,vG#-sNBlt7S.oS:" class="blocklyDraggable"><path class="blocklyPath" stroke="#bfbfbf" fill="#ffffff" d=" m 40,0  h 252.95639939405743 a 40 40 0 0,1 40,40  v 0 a 40 40 0 0,1 -40,40  V 80  h -252.95639939405743 a 40 40 0 0,1 -40,-40  v 0 a 40 40 0 0,1 40,-40 z
"></path><g transform="translate(22.56440422583731,11.5)"><image height="16px" width="16px" alt="" xlink:href="assets/blocks/async.svg"></image></g><g transform="translate(46.56440422583731,11.5)"><text class="blocklyText" dominant-baseline="central" x="0" y="8.5">Intersection between OCCT shapes</text></g><g transform="translate(144.71302483130606,51.5)"><text class="blocklyText" dominant-baseline="central" x="0" y="8.5">keep edge indexes</text></g><path class="blocklyOutlinePath" d=" M 278.3919951682201,4  h 16 a 16 16 0 0,1 16,16  v 0 a 16 16 0 0,1 -16,16  h -16 a 16 16 0 0,1 -16,-16  v 0 a 16 16 0 0,1 16,-16 z" fill="#bfbfbf"></path><path class="blocklyOutlinePath" d=" M 278.3919951682201,44  h 16  l 16,16  l -16,16  h -16  l -16,-16  l 16,-16 z" fill="#bfbfbf"></path></g></svg>