<svg  xmlns="http://www.w3.org/2000/svg" xmlns:xlink="http://www.w3.org/1999/xlink" width="149.9528350830078px" height="56px" style="font-family: 'IBM Plex Sans'; font-size: 13"><g data-id="ogmJ6@A5d%koP0jT%:(m" class="blocklyDraggable"><path class="blocklyPath" stroke="#bfbfbf" fill="#ffffff" d=" m 0,0  m 0,4 a 4 4 0 0,1 4,-4  h 8  c 2,0  3,1  4,2  l 4,4  c 1,1  2,2  4,2  h 12  c 2,0  3,-1  4,-2  l 4,-4  c 1,-1  2,-2  4,-2  h 97.95283508300781 a 4 4 0 0,1 4,4  v 8  V 40  V 44  V 44 a 4 4 0 0,1 -4,4  h -97.95283508300781  c -2,0  -3,1  -4,2  l -4,4  c -1,1  -2,2  -4,2  h -12  c -2,0  -3,-1  -4,-2  l -4,-4  c -1,-1  -2,-2  -4,-2  h -8 a 4 4 0 0,1 -4,-4 z
"></path><g transform="translate(8,15)"><text class="blocklyText" dominant-baseline="central" x="0" y="9">Clear all drawn objects</text></g></g></svg>