<svg  xmlns="http://www.w3.org/2000/svg" xmlns:xlink="http://www.w3.org/1999/xlink" width="251.1719207763672px" height="120px" style="font-family: 'IBM Plex Sans'; font-size: 13"><g data-id="eXIS?*L.U$qVz(IbZg6q" class="blocklyDraggable blocklySelected"><path class="blocklyPath" stroke="#bfbfbf" fill="#ffffff" d=" m 48,0  h 155.17192203224823 a 48 48 0 0,1 48,48  v 24 a 48 48 0 0,1 -48,48  V 120  h -155.17192203224823 a 48 48 0 0,1 -48,-48  v -24 a 48 48 0 0,1 48,-48 z
"></path><g transform="translate(28.816673906749116,11)"><text class="blocklyText" dominant-baseline="central" x="0" y="9">Derivatives of the curve</text></g><g transform="translate(89.93453279346787,51)"><text class="blocklyText" dominant-baseline="central" x="0" y="9">at parameter</text></g><g transform="translate(38.61417451710068,91)"><text class="blocklyText" dominant-baseline="central" x="0" y="9">number of derivatives</text></g><path class="blocklyOutlinePath" d=" M 190.35524812549912,4  h 16 a 16 16 0 0,1 16,16  v 0 a 16 16 0 0,1 -16,16  h -16 a 16 16 0 0,1 -16,-16  v 0 a 16 16 0 0,1 16,-16 z" fill="#bfbfbf"></path><path class="blocklyOutlinePath" d=" M 190.35524812549912,44  h 16 a 16 16 0 0,1 16,16  v 0 a 16 16 0 0,1 -16,16  h -16 a 16 16 0 0,1 -16,-16  v 0 a 16 16 0 0,1 16,-16 z" fill="#bfbfbf"></path><path class="blocklyOutlinePath" d=" M 190.35524812549912,84  h 16 a 16 16 0 0,1 16,16  v 0 a 16 16 0 0,1 -16,16  h -16 a 16 16 0 0,1 -16,-16  v 0 a 16 16 0 0,1 16,-16 z" fill="#bfbfbf"></path><path class="blocklyPath" stroke="#bfbfbf" fill="none" d=" m 48,0  h 155.17192203224823 a 48 48 0 0,1 48,48  v 24 a 48 48 0 0,1 -48,48  V 120  h -155.17192203224823 a 48 48 0 0,1 -48,-48  v -24 a 48 48 0 0,1 48,-48 z
" filter="url(#blocklySelectedGlowFilter34882233102591464)"></path></g></svg>