<svg  xmlns="http://www.w3.org/2000/svg" xmlns:xlink="http://www.w3.org/1999/xlink" width="197.91769409179688px" height="80px" style="font-family: 'IBM Plex Sans'; font-size: 13"><g data-id="8]O_rG[c@P7|$2/q1@;k" class="blocklyDraggable"><path class="blocklyPath" stroke="#bfbfbf" fill="#ffffff" d=" m 40,0  h 117.91768784620587 a 40 40 0 0,1 40,40  v 0 a 40 40 0 0,1 -40,40  V 80  h -117.91768784620587 a 40 40 0 0,1 -40,-40  v 0 a 40 40 0 0,1 40,-40 z
"></path><g transform="translate(22.56440422583731,11)"><text class="blocklyText" dominant-baseline="central" x="0" y="9">Points on curves</text></g><g transform="translate(42.93256828833731,51)"><text class="blocklyText" dominant-baseline="central" x="0" y="9">at parameter</text></g><path class="blocklyOutlinePath" d=" M 143.35328362036856,4  h 16 a 16 16 0 0,1 16,16  v 0 a 16 16 0 0,1 -16,16  h -16 a 16 16 0 0,1 -16,-16  v 0 a 16 16 0 0,1 16,-16 z" fill="#bfbfbf"></path><path class="blocklyOutlinePath" d=" M 143.35328362036856,44  h 16 a 16 16 0 0,1 16,16  v 0 a 16 16 0 0,1 -16,16  h -16 a 16 16 0 0,1 -16,-16  v 0 a 16 16 0 0,1 16,-16 z" fill="#bfbfbf"></path></g></svg>