<svg  xmlns="http://www.w3.org/2000/svg" xmlns:xlink="http://www.w3.org/1999/xlink" width="161.8040008544922px" height="40px" style="font-family: 'IBM Plex Sans'; font-size: 13"><g data-id="7~:{kh2/7P?NQSo,lbW6" class="blocklyDraggable"><path class="blocklyPath" stroke="#bfbfbf" fill="#ffffff" d=" m 20,0  h 121.80400085449219 a 20 20 0 0,1 20,20  v 0 a 20 20 0 0,1 -20,20  V 40  h -121.80400085449219 a 20 20 0 0,1 -20,-20  v 0 a 20 20 0 0,1 20,-20 z
"></path><g transform="translate(12,11)"><text class="blocklyText" dominant-baseline="central" x="0" y="9">Curve from line</text></g><path class="blocklyOutlinePath" d=" M 125.80400085449219,4  h 16 a 16 16 0 0,1 16,16  v 0 a 16 16 0 0,1 -16,16  h -16 a 16 16 0 0,1 -16,-16  v 0 a 16 16 0 0,1 16,-16 z" fill="#bfbfbf"></path></g></svg>