<svg  xmlns="http://www.w3.org/2000/svg" xmlns:xlink="http://www.w3.org/1999/xlink" width="197.04843139648438px" height="40px" style="font-family: 'IBM Plex Sans'; font-size: 13"><g data-id="uU%fcLr6-CQn$mXfk?l?" class="blocklyDraggable blocklySelected"><path class="blocklyPath" stroke="#bfbfbf" fill="#ffffff" d=" m 20,0  h 157.04843139648438 a 20 20 0 0,1 20,20  v 0 a 20 20 0 0,1 -20,20  V 40  h -157.04843139648438 a 20 20 0 0,1 -20,-20  v 0 a 20 20 0 0,1 20,-20 z
"></path><g transform="translate(12,11)"><text class="blocklyText" dominant-baseline="central" x="0" y="9">Lines between points</text></g><path class="blocklyOutlinePath" d=" M 161.04843139648438,4  h 16 a 16 16 0 0,1 16,16  v 0 a 16 16 0 0,1 -16,16  h -16 a 16 16 0 0,1 -16,-16  v 0 a 16 16 0 0,1 16,-16 z" fill="#bfbfbf"></path><path class="blocklyPath" stroke="#bfbfbf" fill="none" d=" m 20,0  h 157.04843139648438 a 20 20 0 0,1 20,20  v 0 a 20 20 0 0,1 -20,20  V 40  h -157.04843139648438 a 20 20 0 0,1 -20,-20  v 0 a 20 20 0 0,1 20,-20 z
" filter="url(#blocklySelectedGlowFilter34882233102591464)"></path></g></svg>