<svg  xmlns="http://www.w3.org/2000/svg" xmlns:xlink="http://www.w3.org/1999/xlink" width="230.3628387451172px" height="80px" style="font-family: 'IBM Plex Sans'; font-size: 13"><g data-id="ei3`,zr`K?Q8o.gZk9g-" class="blocklyDraggable"><path class="blocklyPath" stroke="#bfbfbf" fill="#ffffff" d=" m 40,0  h 150.36283249952618 a 40 40 0 0,1 40,40  v 0 a 40 40 0 0,1 -40,40  V 80  h -150.36283249952618 a 40 40 0 0,1 -40,-40  v 0 a 40 40 0 0,1 40,-40 z
"></path><g transform="translate(22.56440422583731,11)"><text class="blocklyText" dominant-baseline="central" x="0" y="9">Lines with start points</text></g><g transform="translate(67.5263640647045,51)"><text class="blocklyText" dominant-baseline="central" x="0" y="9">and endpoints</text></g><path class="blocklyOutlinePath" d=" M 175.79842827368887,4  h 16 a 16 16 0 0,1 16,16  v 0 a 16 16 0 0,1 -16,16  h -16 a 16 16 0 0,1 -16,-16  v 0 a 16 16 0 0,1 16,-16 z" fill="#bfbfbf"></path><path class="blocklyOutlinePath" d=" M 175.79842827368887,44  h 16 a 16 16 0 0,1 16,16  v 0 a 16 16 0 0,1 -16,16  h -16 a 16 16 0 0,1 -16,-16  v 0 a 16 16 0 0,1 16,-16 z" fill="#bfbfbf"></path></g></svg>