<svg  xmlns="http://www.w3.org/2000/svg" xmlns:xlink="http://www.w3.org/1999/xlink" width="188.62672424316406px" height="80px" style="font-family: 'IBM Plex Sans'; font-size: 13"><g data-id="IuY%/u~2zI-csy-O,#gG" class="blocklyDraggable"><path class="blocklyPath" stroke="#bfbfbf" fill="#ffffff" d=" m 40,0  h 108.62671799757305 a 40 40 0 0,1 40,40  v 0 a 40 40 0 0,1 -40,40  V 80  h -108.62671799757305 a 40 40 0 0,1 -40,-40  v 0 a 40 40 0 0,1 40,-40 z
"></path><g transform="translate(25.003781056892,11)"><text class="blocklyText" dominant-baseline="central" x="0" y="9">Transform line</text></g><g transform="translate(22.56440422583731,51)"><text class="blocklyText" dominant-baseline="central" x="0" y="9">transformation</text></g><path class="blocklyOutlinePath" d=" M 134.06231377173575,4  h 16 a 16 16 0 0,1 16,16  v 0 a 16 16 0 0,1 -16,16  h -16 a 16 16 0 0,1 -16,-16  v 0 a 16 16 0 0,1 16,-16 z" fill="#bfbfbf"></path><path class="blocklyOutlinePath" d=" M 134.06231377173575,44  h 16 a 16 16 0 0,1 16,16  v 0 a 16 16 0 0,1 -16,16  h -16 a 16 16 0 0,1 -16,-16  v 0 a 16 16 0 0,1 16,-16 z" fill="#bfbfbf"></path></g></svg>