<svg  xmlns="http://www.w3.org/2000/svg" xmlns:xlink="http://www.w3.org/1999/xlink" width="206.96975708007812px" height="160px" style="font-family: 'IBM Plex Sans'; font-size: 13"><g data-id="=FS^Z!hmrStcBOzE~ZB3" class="blocklyDraggable"><path class="blocklyPath" stroke="#bfbfbf" fill="#ffffff" d=" m 48,0  h 110.96975833595917 a 48 48 0 0,1 48,48  v 64 a 48 48 0 0,1 -48,48  V 160  h -110.96975833595917 a 48 48 0 0,1 -48,-48  v -64 a 48 48 0 0,1 48,-48 z
"></path><g transform="translate(28.816673906749116,11)"><text class="blocklyText" dominant-baseline="central" x="0" y="9">Expand polygon</text></g><g transform="translate(92.3206259331163,51)"><text class="blocklyText" dominant-baseline="central" x="0" y="9">delta</text></g><g transform="translate(34.161949785655366,91)"><text class="blocklyText" dominant-baseline="central" x="0" y="9">segment count</text></g><g transform="translate(77.69762483448349,131)"><text class="blocklyText" dominant-baseline="central" x="0" y="9">corners</text></g><path class="blocklyOutlinePath" d=" M 146.15308442921005,4  h 16 a 16 16 0 0,1 16,16  v 0 a 16 16 0 0,1 -16,16  h -16 a 16 16 0 0,1 -16,-16  v 0 a 16 16 0 0,1 16,-16 z" fill="#bfbfbf"></path><path class="blocklyOutlinePath" d=" M 146.15308442921005,44  h 16 a 16 16 0 0,1 16,16  v 0 a 16 16 0 0,1 -16,16  h -16 a 16 16 0 0,1 -16,-16  v 0 a 16 16 0 0,1 16,-16 z" fill="#bfbfbf"></path><path class="blocklyOutlinePath" d=" M 146.15308442921005,84  h 16 a 16 16 0 0,1 16,16  v 0 a 16 16 0 0,1 -16,16  h -16 a 16 16 0 0,1 -16,-16  v 0 a 16 16 0 0,1 16,-16 z" fill="#bfbfbf"></path><path class="blocklyOutlinePath" d=" M 146.15308442921005,124  h 16 a 16 16 0 0,1 16,16  v 0 a 16 16 0 0,1 -16,16  h -16 a 16 16 0 0,1 -16,-16  v 0 a 16 16 0 0,1 16,-16 z" fill="#bfbfbf"></path></g></svg>