<svg  xmlns="http://www.w3.org/2000/svg" xmlns:xlink="http://www.w3.org/1999/xlink" width="267.194580078125px" height="120px" style="font-family: 'IBM Plex Sans'; font-size: 13"><g data-id="|HF924cG_*;@UHoz!6wP" class="blocklyDraggable"><path class="blocklyPath" stroke="#bfbfbf" fill="#ffffff" d=" m 48,0  h 171.19453555763886 a 48 48 0 0,1 48,48  v 24 a 48 48 0 0,1 -48,48  V 120  h -171.19453555763886 a 48 48 0 0,1 -48,-48  v -24 a 48 48 0 0,1 48,-48 z
"></path><g transform="translate(28.816673906749116,11)"><text class="blocklyText" dominant-baseline="central" x="0" y="9">Ellipse on the center point</text></g><g transform="translate(129.7644735893663,51)"><text class="blocklyText" dominant-baseline="central" x="0" y="9">radius xy</text></g><g transform="translate(94.38672700733505,91)"><text class="blocklyText" dominant-baseline="central" x="0" y="9">segment count</text></g><path class="blocklyOutlinePath" d=" M 206.37786165088974,4  h 16 a 16 16 0 0,1 16,16  v 0 a 16 16 0 0,1 -16,16  h -16 a 16 16 0 0,1 -16,-16  v 0 a 16 16 0 0,1 16,-16 z" fill="#bfbfbf"></path><path class="blocklyOutlinePath" d=" M 206.37786165088974,44  h 16 a 16 16 0 0,1 16,16  v 0 a 16 16 0 0,1 -16,16  h -16 a 16 16 0 0,1 -16,-16  v 0 a 16 16 0 0,1 16,-16 z" fill="#bfbfbf"></path><path class="blocklyOutlinePath" d=" M 206.37786165088974,84  h 16 a 16 16 0 0,1 16,16  v 0 a 16 16 0 0,1 -16,16  h -16 a 16 16 0 0,1 -16,-16  v 0 a 16 16 0 0,1 16,-16 z" fill="#bfbfbf"></path></g></svg>