<svg  xmlns="http://www.w3.org/2000/svg" xmlns:xlink="http://www.w3.org/1999/xlink" width="286.7496032714844px" height="160px" style="font-family: 'IBM Plex Sans'; font-size: 13"><g data-id="63IBfhNHI@fh2=+Z1-Cv" class="blocklyDraggable"><path class="blocklyPath" stroke="#bfbfbf" fill="#ffffff" d=" m 48,0  h 190.74960452736542 a 48 48 0 0,1 48,48  v 64 a 48 48 0 0,1 -48,48  V 160  h -190.74960452736542 a 48 48 0 0,1 -48,-48  v -64 a 48 48 0 0,1 48,-48 z
"></path><g transform="translate(28.816673906749116,11)"><text class="blocklyText" dominant-baseline="central" x="0" y="9">Expand to polygons the paths</text></g><g transform="translate(172.10047212452255,51)"><text class="blocklyText" dominant-baseline="central" x="0" y="9">delta</text></g><g transform="translate(113.94179597706162,91)"><text class="blocklyText" dominant-baseline="central" x="0" y="9">segment count</text></g><g transform="translate(134.89652314991318,131)"><text class="blocklyText" dominant-baseline="central" x="0" y="9">corner type</text></g><path class="blocklyOutlinePath" d=" M 225.9329306206163,4  h 16 a 16 16 0 0,1 16,16  v 0 a 16 16 0 0,1 -16,16  h -16 a 16 16 0 0,1 -16,-16  v 0 a 16 16 0 0,1 16,-16 z" fill="#bfbfbf"></path><path class="blocklyOutlinePath" d=" M 225.9329306206163,44  h 16 a 16 16 0 0,1 16,16  v 0 a 16 16 0 0,1 -16,16  h -16 a 16 16 0 0,1 -16,-16  v 0 a 16 16 0 0,1 16,-16 z" fill="#bfbfbf"></path><path class="blocklyOutlinePath" d=" M 225.9329306206163,84  h 16 a 16 16 0 0,1 16,16  v 0 a 16 16 0 0,1 -16,16  h -16 a 16 16 0 0,1 -16,-16  v 0 a 16 16 0 0,1 16,-16 z" fill="#bfbfbf"></path><path class="blocklyOutlinePath" d=" M 225.9329306206163,124  h 16 a 16 16 0 0,1 16,16  v 0 a 16 16 0 0,1 -16,16  h -16 a 16 16 0 0,1 -16,-16  v 0 a 16 16 0 0,1 16,-16 z" fill="#bfbfbf"></path></g></svg>