<svg  xmlns="http://www.w3.org/2000/svg" xmlns:xlink="http://www.w3.org/1999/xlink" width="223.28466796875px" height="80px" style="font-family: 'IBM Plex Sans'; font-size: 13"><g data-id="J@}vQ:~b%)TRs0U$mE4Z" class="blocklyDraggable"><path class="blocklyPath" stroke="#bfbfbf" fill="#ffffff" d=" m 40,0  h 143.28464646436993 a 40 40 0 0,1 40,40  v 0 a 40 40 0 0,1 -40,40  V 80  h -143.28464646436993 a 40 40 0 0,1 -40,-40  v 0 a 40 40 0 0,1 40,-40 z
"></path><g transform="translate(22.56440422583731,11)"><text class="blocklyText" dominant-baseline="central" x="0" y="9">UV parameter with U</text></g><g transform="translate(110.16895744849356,51)"><text class="blocklyText" dominant-baseline="central" x="0" y="9">And V</text></g><path class="blocklyOutlinePath" d=" M 168.72024223853262,4  h 16 a 16 16 0 0,1 16,16  v 0 a 16 16 0 0,1 -16,16  h -16 a 16 16 0 0,1 -16,-16  v 0 a 16 16 0 0,1 16,-16 z" fill="#bfbfbf"></path><path class="blocklyOutlinePath" d=" M 168.72024223853262,44  h 16 a 16 16 0 0,1 16,16  v 0 a 16 16 0 0,1 -16,16  h -16 a 16 16 0 0,1 -16,-16  v 0 a 16 16 0 0,1 16,-16 z" fill="#bfbfbf"></path></g></svg>