<?xml version="1.0" ?><!DOCTYPE svg  PUBLIC '-//W3C//DTD SVG 1.1//EN'  'http://www.w3.org/Graphics/SVG/1.1/DTD/svg11.dtd'><svg height="512px" style="enable-background:new 0 0 512 512;" version="1.1" viewBox="0 0 512 512" width="512px" xml:space="preserve" xmlns="http://www.w3.org/2000/svg" xmlns:xlink="http://www.w3.org/1999/xlink"><g id="youtube__x2C__social__x2C_media__x2C__icons_x2C_"><g><polygon points="222.899,205.461 222.91,227.346 222.925,299.326     309.446,252.567 261.923,226.722   " style="fill-rule:evenodd;clip-rule:evenodd;fill:#1A1A1A;"/><path d="M434.478,16H77.519C43.718,16,16,43.717,16,77.521v356.957    C16,468.286,43.718,496,77.519,496h356.959C468.281,496,496,468.286,496,434.479V77.521C496,43.717,468.281,16,434.478,16z     M416,247.932v20.656c0,27.054-3.129,54.085-3.129,54.085s-3.072,23.013-12.678,33.141    c-12.177,13.327-25.816,13.378-32.048,14.169c-44.861,3.352-112.157,3.482-112.157,3.482s-83.288-0.813-108.927-3.367    c-7.103-1.385-23.119-0.957-35.339-14.27c-9.58-10.121-12.608-33.155-12.608-33.155S96,295.642,96,268.588v-22.075v-3.257    c0-27.028,3.116-54.057,3.116-54.057s3.078-23.03,12.658-33.169c12.221-13.303,25.828-13.142,32.089-13.893    C188.677,138.76,255.924,139,255.924,139h0.148c0,0,67.234-0.24,112.096,3.116c6.231,0.772,19.893,0.732,32.069,14.035    c9.605,10.116,12.634,33.098,12.634,33.098S416,216.228,416,243.256V247.932z" style="fill-rule:evenodd;clip-rule:evenodd;fill:#1A1A1A;"/></g></g><g id="Layer_1"/></svg>