<svg  xmlns="http://www.w3.org/2000/svg" xmlns:xlink="http://www.w3.org/1999/xlink" width="304.6037292480469px" height="80px" style="font-family: 'IBM Plex Sans'; font-size: 13"><g data-id="^nh7UT=FRN%wx6{l8Unk" class="blocklyDraggable"><path class="blocklyPath" stroke="#bfbfbf" fill="#ffffff" d=" m 40,0  h 224.6037077436668 a 40 40 0 0,1 40,40  v 0 a 40 40 0 0,1 -40,40  V 80  h -224.6037077436668 a 40 40 0 0,1 -40,-40  v 0 a 40 40 0 0,1 40,-40 z
"></path><g transform="translate(22.56440422583731,11.5)"><image height="16px" width="16px" alt="" xlink:href="assets/blocks/async.svg"></image></g><g transform="translate(46.56440422583731,11)"><text class="blocklyText" dominant-baseline="central" x="0" y="9">Create OCC sphere with radius</text></g><g transform="translate(155.04380486060293,51)"><text class="blocklyText" dominant-baseline="central" x="0" y="9">center point</text></g><path class="blocklyOutlinePath" d=" M 250.0393035178295,44  h 16 a 16 16 0 0,1 16,16  v 0 a 16 16 0 0,1 -16,16  h -16 a 16 16 0 0,1 -16,-16  v 0 a 16 16 0 0,1 16,-16 z" fill="#bfbfbf"></path><path class="blocklyOutlinePath" d=" M 250.0393035178295,4  h 16 a 16 16 0 0,1 16,16  v 0 a 16 16 0 0,1 -16,16  h -16 a 16 16 0 0,1 -16,-16  v 0 a 16 16 0 0,1 16,-16 z" fill="#bfbfbf"></path></g></svg>