<svg  xmlns="http://www.w3.org/2000/svg" xmlns:xlink="http://www.w3.org/1999/xlink" width="288.1250305175781px" height="40px" style="font-family: 'IBM Plex Sans'; font-size: 13"><g data-id="=q!0Og0_Gbc/o/*I%i,," class="blocklyDraggable"><path class="blocklyPath" stroke="#bfbfbf" fill="#ffffff" d=" m 20,0  h 248.12503051757812 a 20 20 0 0,1 20,20  v 0 a 20 20 0 0,1 -20,20  V 40  h -248.12503051757812 a 20 20 0 0,1 -20,-20  v 0 a 20 20 0 0,1 20,-20 z
"></path><g transform="translate(12,11.5)"><image height="16px" width="16px" alt="" xlink:href="assets/blocks/async.svg"></image></g><g transform="translate(36,12.5)"><text class="blocklyText" dominant-baseline="central" x="0" y="7.5">OCC polygon wire through points</text></g><path class="blocklyOutlinePath" d=" M 252.12503051757812,4  h 16 a 16 16 0 0,1 16,16  v 0 a 16 16 0 0,1 -16,16  h -16 a 16 16 0 0,1 -16,-16  v 0 a 16 16 0 0,1 16,-16 z" fill="#bfbfbf"></path></g></svg>