<svg  xmlns="http://www.w3.org/2000/svg" xmlns:xlink="http://www.w3.org/1999/xlink" width="280.34417724609375px" height="160px" style="font-family: 'IBM Plex Sans'; font-size: 13"><g data-id="iO?SCO2do/}.$[s/n(f_" class="blocklyDraggable"><path class="blocklyPath" stroke="#bfbfbf" fill="#ffffff" d=" m 48,0  h 184.34416324318573 a 48 48 0 0,1 48,48  v 64 a 48 48 0 0,1 -48,48  V 160  h -184.34416324318573 a 48 48 0 0,1 -48,-48  v -64 a 48 48 0 0,1 48,-48 z
"></path><g transform="translate(28.816673906749116,11.5)"><image height="16px" width="16px" alt="" xlink:href="assets/blocks/async.svg"></image></g><g transform="translate(52.816673906749116,11)"><text class="blocklyText" dominant-baseline="central" x="0" y="9">Create OCC box of width</text></g><g transform="translate(158.2435232719835,51)"><text class="blocklyText" dominant-baseline="central" x="0" y="9">length</text></g><g transform="translate(158.52346101612412,91)"><text class="blocklyText" dominant-baseline="central" x="0" y="9">height</text></g><g transform="translate(157.87027803272568,131)"><text class="blocklyText" dominant-baseline="central" x="0" y="9">center</text></g><path class="blocklyOutlinePath" d=" M 219.52748933643662,4  h 16 a 16 16 0 0,1 16,16  v 0 a 16 16 0 0,1 -16,16  h -16 a 16 16 0 0,1 -16,-16  v 0 a 16 16 0 0,1 16,-16 z" fill="#bfbfbf"></path><path class="blocklyOutlinePath" d=" M 219.52748933643662,44  h 16 a 16 16 0 0,1 16,16  v 0 a 16 16 0 0,1 -16,16  h -16 a 16 16 0 0,1 -16,-16  v 0 a 16 16 0 0,1 16,-16 z" fill="#bfbfbf"></path><path class="blocklyOutlinePath" d=" M 219.52748933643662,84  h 16 a 16 16 0 0,1 16,16  v 0 a 16 16 0 0,1 -16,16  h -16 a 16 16 0 0,1 -16,-16  v 0 a 16 16 0 0,1 16,-16 z" fill="#bfbfbf"></path><path class="blocklyOutlinePath" d=" M 219.52748933643662,124  h 16 a 16 16 0 0,1 16,16  v 0 a 16 16 0 0,1 -16,16  h -16 a 16 16 0 0,1 -16,-16  v 0 a 16 16 0 0,1 16,-16 z" fill="#bfbfbf"></path></g></svg>