<svg  xmlns="http://www.w3.org/2000/svg" xmlns:xlink="http://www.w3.org/1999/xlink" width="320.4674377441406px" height="120px" style="font-family: 'IBM Plex Sans'; font-size: 13"><g data-id="z0~w:s_svtrJh}?Cb/[J" class="blocklyDraggable"><path class="blocklyPath" stroke="#bfbfbf" fill="#ffffff" d=" m 48,0  h 224.46743900002167 a 48 48 0 0,1 48,48  v 24 a 48 48 0 0,1 -48,48  V 120  h -224.46743900002167 a 48 48 0 0,1 -48,-48  v -24 a 48 48 0 0,1 48,-48 z
"></path><g transform="translate(28.816673906749116,11.5)"><image height="16px" width="16px" alt="" xlink:href="assets/blocks/async.svg"></image></g><g transform="translate(52.816673906749116,11)"><text class="blocklyText" dominant-baseline="central" x="0" y="9">Difference between OCC shape</text></g><g transform="translate(168.18772188038193,51)"><text class="blocklyText" dominant-baseline="central" x="0" y="9">and shapes</text></g><g transform="translate(125.97164216846787,91)"><text class="blocklyText" dominant-baseline="central" x="0" y="9">keep edge indexes</text></g><path class="blocklyOutlinePath" d=" M 259.6507650932725,4  h 16 a 16 16 0 0,1 16,16  v 0 a 16 16 0 0,1 -16,16  h -16 a 16 16 0 0,1 -16,-16  v 0 a 16 16 0 0,1 16,-16 z" fill="#bfbfbf"></path><path class="blocklyOutlinePath" d=" M 259.6507650932725,44  h 16 a 16 16 0 0,1 16,16  v 0 a 16 16 0 0,1 -16,16  h -16 a 16 16 0 0,1 -16,-16  v 0 a 16 16 0 0,1 16,-16 z" fill="#bfbfbf"></path><path class="blocklyOutlinePath" d=" M 259.6507650932725,84  h 16  l 16,16  l -16,16  h -16  l -16,-16  l 16,-16 z" fill="#bfbfbf"></path></g></svg>