<svg  xmlns="http://www.w3.org/2000/svg" xmlns:xlink="http://www.w3.org/1999/xlink" width="309.9767150878906px" height="160px" style="font-family: 'IBM Plex Sans'; font-size: 13"><g data-id=",zPRJZB@:|imrSJu)^L1" class="blocklyDraggable" style="display: block;"><path class="blocklyPath" stroke="#bfbfbf" fill="#ffffff" d=" m 48,0  h 213.97671634377167 a 48 48 0 0,1 48,48  v 64 a 48 48 0 0,1 -48,48  V 160  h -213.97671634377167 a 48 48 0 0,1 -48,-48  v -64 a 48 48 0 0,1 48,-48 z
"></path><g transform="translate(28.816673906749116,11.5)"><image height="16px" width="16px" alt="" xlink:href="assets/blocks/async.svg"></image></g><g transform="translate(52.816673906749116,11)"><text class="blocklyText" dominant-baseline="central" x="0" y="9">Fillet edges of the OCC shape</text></g><g transform="translate(147.406242998546,51)"><text class="blocklyText" dominant-baseline="central" x="0" y="9">edge indexes</text></g><g transform="translate(188.6492392143663,91)"><text class="blocklyText" dominant-baseline="central" x="0" y="9">radius</text></g><g transform="translate(211.19022432178818,131)"><text class="blocklyText" dominant-baseline="central" x="0" y="9">all</text></g><path class="blocklyOutlinePath" d=" M 249.16004243702255,4  h 16 a 16 16 0 0,1 16,16  v 0 a 16 16 0 0,1 -16,16  h -16 a 16 16 0 0,1 -16,-16  v 0 a 16 16 0 0,1 16,-16 z" fill="#bfbfbf"></path><path class="blocklyOutlinePath" d=" M 249.16004243702255,44  h 16 a 16 16 0 0,1 16,16  v 0 a 16 16 0 0,1 -16,16  h -16 a 16 16 0 0,1 -16,-16  v 0 a 16 16 0 0,1 16,-16 z" fill="#bfbfbf"></path><path class="blocklyOutlinePath" d=" M 249.16004243702255,84  h 16 a 16 16 0 0,1 16,16  v 0 a 16 16 0 0,1 -16,16  h -16 a 16 16 0 0,1 -16,-16  v 0 a 16 16 0 0,1 16,-16 z" fill="#bfbfbf"></path><path class="blocklyOutlinePath" d=" M 249.16004243702255,124  h 16  l 16,16  l -16,16  h -16  l -16,-16  l 16,-16 z" fill="#bfbfbf"></path></g></svg>