<svg  xmlns="http://www.w3.org/2000/svg" xmlns:xlink="http://www.w3.org/1999/xlink" width="325.43853759765625px" height="80px" style="font-family: 'IBM Plex Sans'; font-size: 13"><g data-id="ZoIxB54%h6+fEn5rETA#" class="blocklyDraggable"><path class="blocklyPath" stroke="#bfbfbf" fill="#ffffff" d=" m 40,0  h 245.43851609327618 a 40 40 0 0,1 40,40  v 0 a 40 40 0 0,1 -40,40  V 80  h -245.43851609327618 a 40 40 0 0,1 -40,-40  v 0 a 40 40 0 0,1 40,-40 z
"></path><g transform="translate(22.56440422583731,11.5)"><image height="16px" width="16px" alt="" xlink:href="assets/blocks/async.svg"></image></g><g transform="translate(46.56440422583731,11)"><text class="blocklyText" dominant-baseline="central" x="0" y="9">Intersection between OCC shapes</text></g><g transform="translate(137.19498894263418,51)"><text class="blocklyText" dominant-baseline="central" x="0" y="9">keep edge indexes</text></g><path class="blocklyOutlinePath" d=" M 270.87411186743884,4  h 16 a 16 16 0 0,1 16,16  v 0 a 16 16 0 0,1 -16,16  h -16 a 16 16 0 0,1 -16,-16  v 0 a 16 16 0 0,1 16,-16 z" fill="#bfbfbf"></path><path class="blocklyOutlinePath" d=" M 270.87411186743884,44  h 16  l 16,16  l -16,16  h -16  l -16,-16  l 16,-16 z" fill="#bfbfbf"></path></g></svg>