<svg  xmlns="http://www.w3.org/2000/svg" xmlns:xlink="http://www.w3.org/1999/xlink" width="240.847412109375px" height="120px" style="font-family: 'IBM Plex Sans'; font-size: 13"><g data-id="lZubZtE^V:;t21*lo~@4" class="blocklyDraggable"><path class="blocklyPath" stroke="#bfbfbf" fill="#ffffff" d=" m 48,0  h 144.84741336525605 a 48 48 0 0,1 48,48  v 24 a 48 48 0 0,1 -48,48  V 120  h -144.84741336525605 a 48 48 0 0,1 -48,-48  v -24 a 48 48 0 0,1 48,-48 z
"></path><g transform="translate(28.816673906749116,11.5)"><image height="16px" width="16px" alt="" xlink:href="assets/blocks/async.svg"></image></g><g transform="translate(52.816673906749116,11)"><text class="blocklyText" dominant-baseline="central" x="0" y="9">Offset OCC shape</text></g><g transform="translate(106.0966269096788,51)"><text class="blocklyText" dominant-baseline="central" x="0" y="9">distance</text></g><g transform="translate(100.52468171924912,91)"><text class="blocklyText" dominant-baseline="central" x="0" y="9">tolerance</text></g><path class="blocklyOutlinePath" d=" M 180.03073945850693,4  h 16 a 16 16 0 0,1 16,16  v 0 a 16 16 0 0,1 -16,16  h -16 a 16 16 0 0,1 -16,-16  v 0 a 16 16 0 0,1 16,-16 z" fill="#bfbfbf"></path><path class="blocklyOutlinePath" d=" M 180.03073945850693,44  h 16 a 16 16 0 0,1 16,16  v 0 a 16 16 0 0,1 -16,16  h -16 a 16 16 0 0,1 -16,-16  v 0 a 16 16 0 0,1 16,-16 z" fill="#bfbfbf"></path><path class="blocklyOutlinePath" d=" M 180.03073945850693,84  h 16 a 16 16 0 0,1 16,16  v 0 a 16 16 0 0,1 -16,16  h -16 a 16 16 0 0,1 -16,-16  v 0 a 16 16 0 0,1 16,-16 z" fill="#bfbfbf"></path></g></svg>