<svg  xmlns="http://www.w3.org/2000/svg" xmlns:xlink="http://www.w3.org/1999/xlink" width="326.304931640625px" height="80px" style="font-family: 'IBM Plex Sans'; font-size: 13"><g data-id="J;YQeI^/s8aY.5,$W{$b" class="blocklyDraggable"><path class="blocklyPath" stroke="#bfbfbf" fill="#ffffff" d=" m 40,0  h 246.304925395034 a 40 40 0 0,1 40,40  v 0 a 40 40 0 0,1 -40,40  V 80  h -246.304925395034 a 40 40 0 0,1 -40,-40  v 0 a 40 40 0 0,1 40,-40 z
"></path><g transform="translate(22.56440422583731,11.5)"><image height="16px" width="16px" alt="" xlink:href="assets/blocks/async.svg"></image></g><g transform="translate(46.56440422583731,11)"><text class="blocklyText" dominant-baseline="central" x="0" y="9">Pipe through OCC path wire shape</text></g><g transform="translate(159.7093016867748,51)"><text class="blocklyText" dominant-baseline="central" x="0" y="9">section shapes</text></g><path class="blocklyOutlinePath" d=" M 271.74052116919665,4  h 16 a 16 16 0 0,1 16,16  v 0 a 16 16 0 0,1 -16,16  h -16 a 16 16 0 0,1 -16,-16  v 0 a 16 16 0 0,1 16,-16 z" fill="#bfbfbf"></path><path class="blocklyOutlinePath" d=" M 271.74052116919665,44  h 16 a 16 16 0 0,1 16,16  v 0 a 16 16 0 0,1 -16,16  h -16 a 16 16 0 0,1 -16,-16  v 0 a 16 16 0 0,1 16,-16 z" fill="#bfbfbf"></path></g></svg>