<svg  xmlns="http://www.w3.org/2000/svg" xmlns:xlink="http://www.w3.org/1999/xlink" width="244.03329467773438px" height="120px" style="font-family: 'IBM Plex Sans'; font-size: 13"><g data-id="Z5xPygC)$%n1N9hmm5i," class="blocklyDraggable"><path class="blocklyPath" stroke="#bfbfbf" fill="#ffffff" d=" m 48,0  h 148.03329593361542 a 48 48 0 0,1 48,48  v 24 a 48 48 0 0,1 -48,48  V 120  h -148.03329593361542 a 48 48 0 0,1 -48,-48  v -24 a 48 48 0 0,1 48,-48 z
"></path><g transform="translate(28.816673906749116,11.5)"><image height="16px" width="16px" alt="" xlink:href="assets/blocks/async.svg"></image></g><g transform="translate(52.816673906749116,11)"><text class="blocklyText" dominant-baseline="central" x="0" y="9">Rotate OCC shape</text></g><g transform="translate(135.96913972706162,51)"><text class="blocklyText" dominant-baseline="central" x="0" y="9">axis</text></g><g transform="translate(126.87807527393662,91)"><text class="blocklyText" dominant-baseline="central" x="0" y="9">angle</text></g><path class="blocklyOutlinePath" d=" M 183.2166220268663,4  h 16 a 16 16 0 0,1 16,16  v 0 a 16 16 0 0,1 -16,16  h -16 a 16 16 0 0,1 -16,-16  v 0 a 16 16 0 0,1 16,-16 z" fill="#bfbfbf"></path><path class="blocklyOutlinePath" d=" M 183.2166220268663,44  h 16 a 16 16 0 0,1 16,16  v 0 a 16 16 0 0,1 -16,16  h -16 a 16 16 0 0,1 -16,-16  v 0 a 16 16 0 0,1 16,-16 z" fill="#bfbfbf"></path><path class="blocklyOutlinePath" d=" M 183.2166220268663,84  h 16 a 16 16 0 0,1 16,16  v 0 a 16 16 0 0,1 -16,16  h -16 a 16 16 0 0,1 -16,-16  v 0 a 16 16 0 0,1 16,-16 z" fill="#bfbfbf"></path></g></svg>