<svg  xmlns="http://www.w3.org/2000/svg" xmlns:xlink="http://www.w3.org/1999/xlink" width="224.7171630859375px" height="80px" style="font-family: 'IBM Plex Sans'; font-size: 13"><g data-id="^MEPC@I?pM%TcT1NVxHc" class="blocklyDraggable"><path class="blocklyPath" stroke="#bfbfbf" fill="#ffffff" d=" m 40,0  h 144.71714158155743 a 40 40 0 0,1 40,40  v 0 a 40 40 0 0,1 -40,40  V 80  h -144.71714158155743 a 40 40 0 0,1 -40,-40  v 0 a 40 40 0 0,1 40,-40 z
"></path><g transform="translate(22.56440422583731,11.5)"><image height="16px" width="16px" alt="" xlink:href="assets/blocks/async.svg"></image></g><g transform="translate(46.56440422583731,11)"><text class="blocklyText" dominant-baseline="central" x="0" y="9">Scale OCC shape</text></g><g transform="translate(111.89468071509512,51)"><text class="blocklyText" dominant-baseline="central" x="0" y="9">factor</text></g><path class="blocklyOutlinePath" d=" M 170.15273735572012,4  h 16 a 16 16 0 0,1 16,16  v 0 a 16 16 0 0,1 -16,16  h -16 a 16 16 0 0,1 -16,-16  v 0 a 16 16 0 0,1 16,-16 z" fill="#bfbfbf"></path><path class="blocklyOutlinePath" d=" M 170.15273735572012,44  h 16 a 16 16 0 0,1 16,16  v 0 a 16 16 0 0,1 -16,16  h -16 a 16 16 0 0,1 -16,-16  v 0 a 16 16 0 0,1 16,-16 z" fill="#bfbfbf"></path></g></svg>