<svg  xmlns="http://www.w3.org/2000/svg" xmlns:xlink="http://www.w3.org/1999/xlink" width="320.333984375px" height="120px" style="font-family: 'IBM Plex Sans'; font-size: 13"><g data-id="Z~-L8A|E[s=/U{gZZU1Z" class="blocklyDraggable"><path class="blocklyPath" stroke="#bfbfbf" fill="#ffffff" d=" m 48,0  h 224.33397037209198 a 48 48 0 0,1 48,48  v 24 a 48 48 0 0,1 -48,48  V 120  h -224.33397037209198 a 48 48 0 0,1 -48,-48  v -24 a 48 48 0 0,1 48,-48 z
"></path><g transform="translate(28.816673906749116,11.5)"><image height="16px" width="16px" alt="" xlink:href="assets/blocks/async.svg"></image></g><g transform="translate(52.816673906749116,11.5)"><text class="blocklyText" dominant-baseline="central" x="0" y="8.5">OCCT cylindrical surface radius</text></g><g transform="translate(197.86013093799912,51.5)"><text class="blocklyText" dominant-baseline="central" x="0" y="8.5">center</text></g><g transform="translate(183.51709810108505,91.5)"><text class="blocklyText" dominant-baseline="central" x="0" y="8.5">direction</text></g><path class="blocklyOutlinePath" d=" M 259.51729646534284,44  h 16 a 16 16 0 0,1 16,16  v 0 a 16 16 0 0,1 -16,16  h -16 a 16 16 0 0,1 -16,-16  v 0 a 16 16 0 0,1 16,-16 z" fill="#bfbfbf"></path><path class="blocklyOutlinePath" d=" M 259.51729646534284,84  h 16 a 16 16 0 0,1 16,16  v 0 a 16 16 0 0,1 -16,16  h -16 a 16 16 0 0,1 -16,-16  v 0 a 16 16 0 0,1 16,-16 z" fill="#bfbfbf"></path><path class="blocklyOutlinePath" d=" M 259.51729646534284,4  h 16 a 16 16 0 0,1 16,16  v 0 a 16 16 0 0,1 -16,16  h -16 a 16 16 0 0,1 -16,-16  v 0 a 16 16 0 0,1 16,-16 z" fill="#bfbfbf"></path></g></svg>