<svg  xmlns="http://www.w3.org/2000/svg" xmlns:xlink="http://www.w3.org/1999/xlink" width="278.0984802246094px" height="160px" style="font-family: 'IBM Plex Sans'; font-size: 13"><g data-id="Pcn}L-W]TE=?}WF_20f:" class="blocklyDraggable"><path class="blocklyPath" stroke="#bfbfbf" fill="#ffffff" d=" m 48,0  h 182.09848148049042 a 48 48 0 0,1 48,48  v 64 a 48 48 0 0,1 -48,48  V 160  h -182.09848148049042 a 48 48 0 0,1 -48,-48  v -64 a 48 48 0 0,1 48,-48 z
"></path><g transform="translate(28.816673906749116,11)"><text class="blocklyText" dominant-baseline="central" x="0" y="9">Linear extrusion of polygons</text></g><g transform="translate(156.27780977100693,51)"><text class="blocklyText" dominant-baseline="central" x="0" y="9">height</text></g><g transform="translate(129.2979666313585,91)"><text class="blocklyText" dominant-baseline="central" x="0" y="9">twist angle</text></g><g transform="translate(129.67124238819443,131)"><text class="blocklyText" dominant-baseline="central" x="0" y="9">twist steps</text></g><path class="blocklyOutlinePath" d=" M 217.2818075737413,4  h 16 a 16 16 0 0,1 16,16  v 0 a 16 16 0 0,1 -16,16  h -16 a 16 16 0 0,1 -16,-16  v 0 a 16 16 0 0,1 16,-16 z" fill="#bfbfbf"></path><path class="blocklyOutlinePath" d=" M 217.2818075737413,44  h 16 a 16 16 0 0,1 16,16  v 0 a 16 16 0 0,1 -16,16  h -16 a 16 16 0 0,1 -16,-16  v 0 a 16 16 0 0,1 16,-16 z" fill="#bfbfbf"></path><path class="blocklyOutlinePath" d=" M 217.2818075737413,84  h 16 a 16 16 0 0,1 16,16  v 0 a 16 16 0 0,1 -16,16  h -16 a 16 16 0 0,1 -16,-16  v 0 a 16 16 0 0,1 16,-16 z" fill="#bfbfbf"></path><path class="blocklyOutlinePath" d=" M 217.2818075737413,124  h 16 a 16 16 0 0,1 16,16  v 0 a 16 16 0 0,1 -16,16  h -16 a 16 16 0 0,1 -16,-16  v 0 a 16 16 0 0,1 16,-16 z" fill="#bfbfbf"></path></g></svg>