<svg  xmlns="http://www.w3.org/2000/svg" xmlns:xlink="http://www.w3.org/1999/xlink" width="271.7400817871094px" height="160px" style="font-family: 'IBM Plex Sans'; font-size: 13"><g data-id="x3ozpjD4.YD-D)2(#8K[" class="blocklyDraggable"><path class="blocklyPath" stroke="#bfbfbf" fill="#ffffff" d=" m 48,0  h 175.74008304299042 a 48 48 0 0,1 48,48  v 64 a 48 48 0 0,1 -48,48  V 160  h -175.74008304299042 a 48 48 0 0,1 -48,-48  v -64 a 48 48 0 0,1 48,-48 z
"></path><g transform="translate(28.816673906749116,11)"><text class="blocklyText" dominant-baseline="central" x="0" y="9">Linear extrusion of polygon</text></g><g transform="translate(149.91941133350693,51)"><text class="blocklyText" dominant-baseline="central" x="0" y="9">height</text></g><g transform="translate(122.93956819385849,91)"><text class="blocklyText" dominant-baseline="central" x="0" y="9">twist angle</text></g><g transform="translate(123.31284395069443,131)"><text class="blocklyText" dominant-baseline="central" x="0" y="9">twist steps</text></g><path class="blocklyOutlinePath" d=" M 210.9234091362413,4  h 16 a 16 16 0 0,1 16,16  v 0 a 16 16 0 0,1 -16,16  h -16 a 16 16 0 0,1 -16,-16  v 0 a 16 16 0 0,1 16,-16 z" fill="#bfbfbf"></path><path class="blocklyOutlinePath" d=" M 210.9234091362413,44  h 16 a 16 16 0 0,1 16,16  v 0 a 16 16 0 0,1 -16,16  h -16 a 16 16 0 0,1 -16,-16  v 0 a 16 16 0 0,1 16,-16 z" fill="#bfbfbf"></path><path class="blocklyOutlinePath" d=" M 210.9234091362413,84  h 16 a 16 16 0 0,1 16,16  v 0 a 16 16 0 0,1 -16,16  h -16 a 16 16 0 0,1 -16,-16  v 0 a 16 16 0 0,1 16,-16 z" fill="#bfbfbf"></path><path class="blocklyOutlinePath" d=" M 210.9234091362413,124  h 16 a 16 16 0 0,1 16,16  v 0 a 16 16 0 0,1 -16,16  h -16 a 16 16 0 0,1 -16,-16  v 0 a 16 16 0 0,1 16,-16 z" fill="#bfbfbf"></path></g></svg>