<svg  xmlns="http://www.w3.org/2000/svg" xmlns:xlink="http://www.w3.org/1999/xlink" width="309.04345703125px" height="200px" style="font-family: 'IBM Plex Sans'; font-size: 13"><g data-id="u8Evu4XbH^Y=tiQ8iL5P" class="blocklyDraggable"><path class="blocklyPath" stroke="#bfbfbf" fill="#ffffff" d=" m 48,0  h 213.04345828713105 a 48 48 0 0,1 48,48  v 104 a 48 48 0 0,1 -48,48  V 200  h -213.04345828713105 a 48 48 0 0,1 -48,-48  v -104 a 48 48 0 0,1 48,-48 z
"></path><g transform="translate(28.816673906749116,11.5)"><image height="16px" width="16px" alt="" xlink:href="assets/blocks/async.svg"></image></g><g transform="translate(52.816673906749116,11.5)"><text class="blocklyText" dominant-baseline="central" x="0" y="8.5">OCCT 2D ellipse curve center</text></g><g transform="translate(150.05880037159287,51.5)"><text class="blocklyText" dominant-baseline="central" x="0" y="8.5">radius minor</text></g><g transform="translate(150.53867402881943,91.5)"><text class="blocklyText" dominant-baseline="central" x="0" y="8.5">radius major</text></g><g transform="translate(172.22658601612412,131.5)"><text class="blocklyText" dominant-baseline="central" x="0" y="8.5">direction</text></g><g transform="translate(189.52886262745224,171.5)"><text class="blocklyText" dominant-baseline="central" x="0" y="8.5">sense</text></g><path class="blocklyOutlinePath" d=" M 248.22678438038193,4  h 16 a 16 16 0 0,1 16,16  v 0 a 16 16 0 0,1 -16,16  h -16 a 16 16 0 0,1 -16,-16  v 0 a 16 16 0 0,1 16,-16 z" fill="#bfbfbf"></path><path class="blocklyOutlinePath" d=" M 248.22678438038193,44  h 16 a 16 16 0 0,1 16,16  v 0 a 16 16 0 0,1 -16,16  h -16 a 16 16 0 0,1 -16,-16  v 0 a 16 16 0 0,1 16,-16 z" fill="#bfbfbf"></path><path class="blocklyOutlinePath" d=" M 248.22678438038193,84  h 16 a 16 16 0 0,1 16,16  v 0 a 16 16 0 0,1 -16,16  h -16 a 16 16 0 0,1 -16,-16  v 0 a 16 16 0 0,1 16,-16 z" fill="#bfbfbf"></path><path class="blocklyOutlinePath" d=" M 248.22678438038193,124  h 16 a 16 16 0 0,1 16,16  v 0 a 16 16 0 0,1 -16,16  h -16 a 16 16 0 0,1 -16,-16  v 0 a 16 16 0 0,1 16,-16 z" fill="#bfbfbf"></path><path class="blocklyOutlinePath" d=" M 248.22678438038193,164  h 16  l 16,16  l -16,16  h -16  l -16,-16  l 16,-16 z" fill="#bfbfbf"></path></g></svg>