<svg  xmlns="http://www.w3.org/2000/svg" xmlns:xlink="http://www.w3.org/1999/xlink" width="309.22906494140625px" height="80px" style="font-family: 'IBM Plex Sans'; font-size: 13"><g data-id="E}}.iv7adL[~SljLMelR" class="blocklyDraggable blocklySelected"><path class="blocklyPath" stroke="#bfbfbf" fill="#ffffff" d=" m 40,0  h 229.22905869581524 a 40 40 0 0,1 40,40  v 0 a 40 40 0 0,1 -40,40  V 80  h -229.22905869581524 a 40 40 0 0,1 -40,-40  v 0 a 40 40 0 0,1 40,-40 z
"></path><g transform="translate(22.56440422583731,11.5)"><image height="16px" width="16px" alt="" xlink:href="assets/blocks/async.svg"></image></g><g transform="translate(46.56440422583731,11.5)"><text class="blocklyText" dominant-baseline="central" x="0" y="8.5">Get 2D point on OCCT 2D curve</text></g><g transform="translate(192.55424187232168,51.5)"><text class="blocklyText" dominant-baseline="central" x="0" y="8.5">param</text></g><path class="blocklyOutlinePath" d=" M 254.66465446997793,4  h 16 a 16 16 0 0,1 16,16  v 0 a 16 16 0 0,1 -16,16  h -16 a 16 16 0 0,1 -16,-16  v 0 a 16 16 0 0,1 16,-16 z" fill="#bfbfbf"></path><path class="blocklyOutlinePath" d=" M 254.66465446997793,44  h 16 a 16 16 0 0,1 16,16  v 0 a 16 16 0 0,1 -16,16  h -16 a 16 16 0 0,1 -16,-16  v 0 a 16 16 0 0,1 16,-16 z" fill="#bfbfbf"></path><path class="blocklyPath" stroke="#bfbfbf" fill="none" d=" m 40,0  h 229.22905869581524 a 40 40 0 0,1 40,40  v 0 a 40 40 0 0,1 -40,40  V 80  h -229.22905869581524 a 40 40 0 0,1 -40,-40  v 0 a 40 40 0 0,1 40,-40 z
" filter="url(#blocklySelectedGlowFilter3722260597715019)"></path></g></svg>