<svg  xmlns="http://www.w3.org/2000/svg" xmlns:xlink="http://www.w3.org/1999/xlink" width="208.609375px" height="440px" style="font-family: 'IBM Plex Sans'; font-size: 13"><g data-id="a89cdnuyPb?)D_7`3gDt" class="blocklyDraggable"><path class="blocklyPath" stroke="#bfbfbf" fill="#ffffff" d=" m 48,0  h 112.60937625588105 a 48 48 0 0,1 48,48  v 344 a 48 48 0 0,1 -48,48  V 440  h -112.60937625588105 a 48 48 0 0,1 -48,-48  v -344 a 48 48 0 0,1 48,-48 z
"></path><g transform="translate(46.972130449717866,11)"><text class="blocklyText" dominant-baseline="central" x="0" y="9">Cylindric text</text></g><g transform="translate(28.816673906749116,51)"><text class="blocklyText" dominant-baseline="central" x="0" y="9">extrusion height</text></g><g transform="translate(43.14640107960068,91)"><text class="blocklyText" dominant-baseline="central" x="0" y="9">extrusion size</text></g><g transform="translate(35.80156770557724,131)"><text class="blocklyText" dominant-baseline="central" x="0" y="9">segment count</text></g><g transform="translate(80.49698701710068,171)"><text class="blocklyText" dominant-baseline="central" x="0" y="9">x offset</text></g><g transform="translate(80.68360200733505,211)"><text class="blocklyText" dominant-baseline="central" x="0" y="9">y offset</text></g><g transform="translate(86.78870454639755,251)"><text class="blocklyText" dominant-baseline="central" x="0" y="9">height</text></g><g transform="translate(53.70371309131943,291)"><text class="blocklyText" dominant-baseline="central" x="0" y="9">line spacing</text></g><g transform="translate(43.71959749073349,331)"><text class="blocklyText" dominant-baseline="central" x="0" y="9">letter spacing</text></g><g transform="translate(95.45317903370224,371)"><text class="blocklyText" dominant-baseline="central" x="0" y="9">align</text></g><g transform="translate(41.786766680186616,411)"><text class="blocklyText" dominant-baseline="central" x="0" y="9">extrude offset</text></g><path class="blocklyOutlinePath" d=" M 147.79270234913193,4  h 16 a 16 16 0 0,1 16,16  v 0 a 16 16 0 0,1 -16,16  h -16 a 16 16 0 0,1 -16,-16  v 0 a 16 16 0 0,1 16,-16 z" fill="#bfbfbf"></path><path class="blocklyOutlinePath" d=" M 147.79270234913193,44  h 16 a 16 16 0 0,1 16,16  v 0 a 16 16 0 0,1 -16,16  h -16 a 16 16 0 0,1 -16,-16  v 0 a 16 16 0 0,1 16,-16 z" fill="#bfbfbf"></path><path class="blocklyOutlinePath" d=" M 147.79270234913193,84  h 16 a 16 16 0 0,1 16,16  v 0 a 16 16 0 0,1 -16,16  h -16 a 16 16 0 0,1 -16,-16  v 0 a 16 16 0 0,1 16,-16 z" fill="#bfbfbf"></path><path class="blocklyOutlinePath" d=" M 147.79270234913193,124  h 16 a 16 16 0 0,1 16,16  v 0 a 16 16 0 0,1 -16,16  h -16 a 16 16 0 0,1 -16,-16  v 0 a 16 16 0 0,1 16,-16 z" fill="#bfbfbf"></path><path class="blocklyOutlinePath" d=" M 147.79270234913193,164  h 16 a 16 16 0 0,1 16,16  v 0 a 16 16 0 0,1 -16,16  h -16 a 16 16 0 0,1 -16,-16  v 0 a 16 16 0 0,1 16,-16 z" fill="#bfbfbf"></path><path class="blocklyOutlinePath" d=" M 147.79270234913193,204  h 16 a 16 16 0 0,1 16,16  v 0 a 16 16 0 0,1 -16,16  h -16 a 16 16 0 0,1 -16,-16  v 0 a 16 16 0 0,1 16,-16 z" fill="#bfbfbf"></path><path class="blocklyOutlinePath" d=" M 147.79270234913193,244  h 16 a 16 16 0 0,1 16,16  v 0 a 16 16 0 0,1 -16,16  h -16 a 16 16 0 0,1 -16,-16  v 0 a 16 16 0 0,1 16,-16 z" fill="#bfbfbf"></path><path class="blocklyOutlinePath" d=" M 147.79270234913193,284  h 16 a 16 16 0 0,1 16,16  v 0 a 16 16 0 0,1 -16,16  h -16 a 16 16 0 0,1 -16,-16  v 0 a 16 16 0 0,1 16,-16 z" fill="#bfbfbf"></path><path class="blocklyOutlinePath" d=" M 147.79270234913193,324  h 16 a 16 16 0 0,1 16,16  v 0 a 16 16 0 0,1 -16,16  h -16 a 16 16 0 0,1 -16,-16  v 0 a 16 16 0 0,1 16,-16 z" fill="#bfbfbf"></path><path class="blocklyOutlinePath" d=" M 147.79270234913193,364  h 16 a 16 16 0 0,1 16,16  v 0 a 16 16 0 0,1 -16,16  h -16 a 16 16 0 0,1 -16,-16  v 0 a 16 16 0 0,1 16,-16 z" fill="#bfbfbf"></path><path class="blocklyOutlinePath" d=" M 147.79270234913193,404  h 16 a 16 16 0 0,1 16,16  v 0 a 16 16 0 0,1 -16,16  h -16 a 16 16 0 0,1 -16,-16  v 0 a 16 16 0 0,1 16,-16 z" fill="#bfbfbf"></path></g></svg>