<svg  xmlns="http://www.w3.org/2000/svg" xmlns:xlink="http://www.w3.org/1999/xlink" width="201.62448120117188px" height="400px" style="font-family: 'IBM Plex Sans'; font-size: 13"><g data-id="A?_+o38s9tTbBXlv|s9e" class="blocklyDraggable"><path class="blocklyPath" stroke="#bfbfbf" fill="#ffffff" d=" m 48,0  h 105.62448245705292 a 48 48 0 0,1 48,48  v 304 a 48 48 0 0,1 -48,48  V 400  h -105.62448245705292 a 48 48 0 0,1 -48,-48  v -304 a 48 48 0 0,1 48,-48 z
"></path><g transform="translate(36.00156465381943,11)"><text class="blocklyText" dominant-baseline="central" x="0" y="9">Spherical text</text></g><g transform="translate(80.29702058643662,51)"><text class="blocklyText" dominant-baseline="central" x="0" y="9">radius</text></g><g transform="translate(28.816673906749116,91)"><text class="blocklyText" dominant-baseline="central" x="0" y="9">segment count</text></g><g transform="translate(73.51209321827255,131)"><text class="blocklyText" dominant-baseline="central" x="0" y="9">x offset</text></g><g transform="translate(73.69870820850693,171)"><text class="blocklyText" dominant-baseline="central" x="0" y="9">y offset</text></g><g transform="translate(79.80381074756943,211)"><text class="blocklyText" dominant-baseline="central" x="0" y="9">height</text></g><g transform="translate(46.718819292491304,251)"><text class="blocklyText" dominant-baseline="central" x="0" y="9">line spacing</text></g><g transform="translate(36.734703691905366,291)"><text class="blocklyText" dominant-baseline="central" x="0" y="9">letter spacing</text></g><g transform="translate(88.46828523487412,331)"><text class="blocklyText" dominant-baseline="central" x="0" y="9">align</text></g><g transform="translate(34.80187288135849,371)"><text class="blocklyText" dominant-baseline="central" x="0" y="9">extrude offset</text></g><path class="blocklyOutlinePath" d=" M 140.8078085503038,4  h 16 a 16 16 0 0,1 16,16  v 0 a 16 16 0 0,1 -16,16  h -16 a 16 16 0 0,1 -16,-16  v 0 a 16 16 0 0,1 16,-16 z" fill="#bfbfbf"></path><path class="blocklyOutlinePath" d=" M 140.8078085503038,44  h 16 a 16 16 0 0,1 16,16  v 0 a 16 16 0 0,1 -16,16  h -16 a 16 16 0 0,1 -16,-16  v 0 a 16 16 0 0,1 16,-16 z" fill="#bfbfbf"></path><path class="blocklyOutlinePath" d=" M 140.8078085503038,84  h 16 a 16 16 0 0,1 16,16  v 0 a 16 16 0 0,1 -16,16  h -16 a 16 16 0 0,1 -16,-16  v 0 a 16 16 0 0,1 16,-16 z" fill="#bfbfbf"></path><path class="blocklyOutlinePath" d=" M 140.8078085503038,124  h 16 a 16 16 0 0,1 16,16  v 0 a 16 16 0 0,1 -16,16  h -16 a 16 16 0 0,1 -16,-16  v 0 a 16 16 0 0,1 16,-16 z" fill="#bfbfbf"></path><path class="blocklyOutlinePath" d=" M 140.8078085503038,164  h 16 a 16 16 0 0,1 16,16  v 0 a 16 16 0 0,1 -16,16  h -16 a 16 16 0 0,1 -16,-16  v 0 a 16 16 0 0,1 16,-16 z" fill="#bfbfbf"></path><path class="blocklyOutlinePath" d=" M 140.8078085503038,204  h 16 a 16 16 0 0,1 16,16  v 0 a 16 16 0 0,1 -16,16  h -16 a 16 16 0 0,1 -16,-16  v 0 a 16 16 0 0,1 16,-16 z" fill="#bfbfbf"></path><path class="blocklyOutlinePath" d=" M 140.8078085503038,244  h 16 a 16 16 0 0,1 16,16  v 0 a 16 16 0 0,1 -16,16  h -16 a 16 16 0 0,1 -16,-16  v 0 a 16 16 0 0,1 16,-16 z" fill="#bfbfbf"></path><path class="blocklyOutlinePath" d=" M 140.8078085503038,284  h 16 a 16 16 0 0,1 16,16  v 0 a 16 16 0 0,1 -16,16  h -16 a 16 16 0 0,1 -16,-16  v 0 a 16 16 0 0,1 16,-16 z" fill="#bfbfbf"></path><path class="blocklyOutlinePath" d=" M 140.8078085503038,324  h 16 a 16 16 0 0,1 16,16  v 0 a 16 16 0 0,1 -16,16  h -16 a 16 16 0 0,1 -16,-16  v 0 a 16 16 0 0,1 16,-16 z" fill="#bfbfbf"></path><path class="blocklyOutlinePath" d=" M 140.8078085503038,364  h 16 a 16 16 0 0,1 16,16  v 0 a 16 16 0 0,1 -16,16  h -16 a 16 16 0 0,1 -16,-16  v 0 a 16 16 0 0,1 16,-16 z" fill="#bfbfbf"></path></g></svg>